<svg
    xmlns="http://www.w3.org/2000/svg"
    width="17.15"
    height="17.5"
    version="1.1"
    viewBox="0 0 17.15 17.5"
>
    <path
        fill="#4285f4"
        strokeWidth="0"
        d="M17.15 8.944c0-.72-.058-1.244-.185-1.788H8.75v3.247h4.822c-.097.807-.622 2.022-1.789 2.839l-.016.108 2.597 2.013.18.018c1.653-1.527 2.606-3.773 2.606-6.437m0 0z"
    ></path>
    <path
        fill="#34a853"
        strokeWidth="0"
        d="M8.75 17.5c2.362 0 4.346-.778 5.794-2.12l-2.76-2.138c-.74.515-1.731.875-3.034.875-2.314 0-4.278-1.527-4.978-3.636l-.102.008-2.701 2.09-.036.099A8.744 8.744 0 008.75 17.5z"
    ></path>
    <path
        fill="#fbbc04"
        strokeWidth="0"
        d="M3.772 10.48a5.387 5.387 0 01-.291-1.73c0-.603.106-1.186.281-1.73l-.004-.117L1.023 4.78l-.09.042A8.758 8.758 0 000 8.75c0 1.41.34 2.742.933 3.928l2.84-2.197m0 0z"
    ></path>
    <path
        fill="#ea4335"
        strokeWidth="0"
        d="M8.75 3.383c1.643 0 2.751.71 3.383 1.303l2.47-2.411C13.086.865 11.113 0 8.75 0A8.744 8.744 0 00.933 4.822l2.83 2.197c.71-2.11 2.673-3.636 4.987-3.636m0 0z"
    ></path>
</svg>