<?xml version="1.0" encoding="UTF-8" standalone="no"?>
<!-- Created with Inkscape (http://www.inkscape.org/) -->

<svg
   width="111.125mm"
   height="111.125mm"
   viewBox="0 0 111.125 111.125"
   version="1.1"
   id="svg5"
   xml:space="preserve"
   sodipodi:docname="logoface-black.svg"
   inkscape:version="1.2.2 (732a01da63, 2022-12-09)"
   xmlns:inkscape="http://www.inkscape.org/namespaces/inkscape"
   xmlns:sodipodi="http://sodipodi.sourceforge.net/DTD/sodipodi-0.dtd"
   xmlns="http://www.w3.org/2000/svg"
   xmlns:svg="http://www.w3.org/2000/svg"><sodipodi:namedview
     id="namedview7"
     pagecolor="#ffffff"
     bordercolor="#000000"
     borderopacity="0.25"
     inkscape:showpageshadow="2"
     inkscape:pageopacity="0.0"
     inkscape:pagecheckerboard="0"
     inkscape:deskcolor="#d1d1d1"
     inkscape:document-units="mm"
     showgrid="false"
     inkscape:zoom="1.0859962"
     inkscape:cx="325.50758"
     inkscape:cy="131.67634"
     inkscape:window-width="1920"
     inkscape:window-height="1017"
     inkscape:window-x="-8"
     inkscape:window-y="1072"
     inkscape:window-maximized="1"
     inkscape:current-layer="layer1" /><defs
     id="defs2" /><g
     inkscape:label="Layer 1"
     inkscape:groupmode="layer"
     id="layer1"
     transform="translate(-11.279734,-62.035492)"><path
       style="fill:#000000;stroke:#000000;strokeWidth:1.22116;stroke-dasharray:none"
       d="m 65.91496,169.21631 c -0.2888,-0.41256 -1.06225,-0.60024 -4.39848,-1.06731 -3.1817,-0.44543 -4.15123,-0.50227 -4.53014,-0.26565 -1.00282,0.62627 -2.14962,0.1184 -1.97319,-0.87385 0.11754,-0.66105 -16.03031,-15.40774 -16.6844,-15.23669 -0.96329,0.25191 -1.68934,-1.17424 -0.96604,-1.89754 0.19891,-0.19891 -0.0468,-1.59803 -0.87247,-4.96781 -0.63214,-2.58002 -1.68624,-6.90346 -2.34244,-9.60766 -0.83206,-3.42892 -1.29957,-4.91673 -1.54498,-4.91673 -0.19354,0 -0.48004,-0.23944 -0.63665,-0.53208 -0.22706,-0.42425 -0.19531,-0.63092 0.15667,-1.01985 0.41969,-0.46375 0.38809,-0.83666 -0.64143,-7.56958 -0.90594,-5.92477 -1.16252,-7.13758 -1.57044,-7.4233 -0.64382,-0.45096 -0.64598,-1.59602 -0.003,-1.76408 0.37435,-0.0979 0.52383,-0.45476 0.65864,-1.57242 0.0959,-0.7952 0.50302,-3.802 0.90469,-6.6818 0.40166,-2.87979 0.97443,-7.017506 1.27281,-9.194922 0.29837,-2.177406 0.87114,-6.315121 1.2728,-9.194922 1.074,-7.700142 1.1213,-8.173258 0.81715,-8.173258 -0.42351,0 -0.63118,-1.008207 -0.29188,-1.417041 0.16928,-0.203978 0.61114,-0.370867 0.9819,-0.370867 0.95394,0 8.78663,-7.814265 8.8302,-8.809421 0.0491,-1.120834 1.17138,-1.536454 1.73066,-0.640912 0.30983,0.49612 0.59563,0.510832 9.92374,0.510832 9.28035,0 9.62034,-0.01728 10.06702,-0.510832 0.58693,-0.648549 1.05903,-0.648549 1.46405,0 0.30983,0.49612 0.59564,0.510832 9.92375,0.510832 9.28035,0 9.62033,-0.01728 10.06702,-0.510832 0.25426,-0.280955 0.59907,-0.510833 0.76624,-0.510833 0.46288,0 1.19363,0.918431 1.10246,1.385581 -0.0499,0.255566 1.48294,1.974954 4.00583,4.493416 3.26482,3.259086 4.22608,4.079737 4.78004,4.080818 0.93464,0.0019 1.43276,0.877818 0.85944,1.511346 -0.52825,0.583696 -0.5287,0.574979 0.36446,6.938599 1.1029,7.857986 1.65824,11.860745 2.54865,18.369926 0.43236,3.16076 0.90915,6.62725 1.05952,7.70331 0.21977,1.57279 0.36846,1.98134 0.75819,2.08325 0.66116,0.17291 0.63667,1.31636 -0.0383,1.78914 -0.44854,0.31417 -0.65075,1.1996 -1.41785,6.20828 -1.17336,7.66138 -1.25195,8.41448 -0.9007,8.63157 0.49564,0.30631 0.34133,1.4584 -0.21483,1.60384 -0.59845,0.15649 -0.45461,-0.28545 -2.01997,6.20616 -0.69441,2.8798 -1.68893,6.99955 -2.21003,9.15499 -0.83016,3.43386 -0.90563,3.99714 -0.60963,4.55024 0.43952,0.82123 0.0353,1.49577 -0.88771,1.48158 -0.5319,-0.008 -2.37827,1.54368 -8.77943,7.37898 -6.68393,6.09309 -8.12827,7.52866 -8.23357,8.18361 -0.10018,0.62311 -0.27004,0.81083 -0.78811,0.87105 -0.36322,0.0422 -0.78919,-0.0784 -0.94661,-0.26808 -0.45322,-0.5461 -8.47265,0.66796 -8.95999,1.35645 -0.45158,0.63799 -1.40482,0.63514 -1.8533,-0.006 z m 0.2852,-1.21636 c 0.49052,-0.42 0.51355,-0.74047 0.50933,-7.08776 l -0.004,-6.64787 -0.64113,-0.60823 c -0.69036,-0.65494 -0.23083,-0.60694 -21.06027,-2.19985 -5.90112,-0.45129 -5.87454,-0.45062 -5.87454,-0.14658 0,0.13091 3.64022,3.55027 8.08936,7.59858 5.70022,5.18668 8.23987,7.34037 8.59896,7.29218 0.28027,-0.0376 0.78703,0.19226 1.12611,0.51084 0.50242,0.47201 1.28632,0.68002 4.23562,1.12393 4.58806,0.69055 4.41357,0.68483 5.02097,0.16476 z m 6.51599,-0.22592 c 2.69762,-0.35757 3.40962,-0.54 3.79615,-0.97267 0.26202,-0.29328 0.7887,-0.53255 1.17226,-0.53255 0.55595,0 2.3283,-1.4908 8.78301,-7.38778 4.44758,-4.06327 8.08651,-7.48263 8.08651,-7.59858 0,-0.27376 -0.0352,-0.27271 -5.87452,0.17345 -20.94748,1.60054 -20.66179,1.57072 -21.1966,2.21248 -0.46329,0.55592 -0.49721,1.0406 -0.50514,7.21662 -0.008,5.9083 0.0387,6.67285 0.43046,7.1057 0.31467,0.34772 0.65816,0.44801 1.21322,0.35423 0.42584,-0.0719 2.26844,-0.32884 4.09465,-0.5709 z m -6.75072,-15.51829 c 0.5872,-0.20995 1.09432,-0.24449 1.42474,-0.097 0.39241,0.1751 1.70935,-0.2606 5.60135,-1.85318 2.79859,-1.14515 6.2624,-2.55066 7.69735,-3.12333 1.43496,-0.57268 2.55892,-1.12232 2.49767,-1.22142 -0.12138,-0.1964 -0.82927,-0.37431 -9.19332,-2.31061 -4.94981,-1.14588 -5.72153,-1.26488 -6.47891,-0.99903 -0.67607,0.23731 -0.99044,0.23187 -1.47125,-0.0255 -0.53355,-0.28555 -1.57113,-0.10401 -8.14357,1.42484 -4.14266,0.96364 -7.53211,1.82531 -7.53211,1.91483 0,0.0895 0.71835,0.45421 1.59634,0.81042 9.68775,3.93045 13.21005,5.41032 13.11161,5.50876 -0.1229,0.12289 -0.55868,-0.0472 -9.2909,-3.62643 -4.45762,-1.82713 -5.50662,-2.17213 -5.81825,-1.9135 -0.28875,0.23964 -0.5319,0.24638 -1.01114,0.028 -0.94504,-0.43059 -0.78927,-1.6671 0.23498,-1.86524 0.46155,-0.0893 1.0434,-1.33225 5.54362,-11.84247 l 0.76553,-1.7879 -0.74133,0.76625 c -0.40774,0.42143 -4.15979,4.65865 -8.3379,9.41604 -6.25537,7.12266 -7.53574,8.70647 -7.25211,8.97078 0.23038,0.21468 3.38909,0.55496 9.53936,1.02762 5.0572,0.38866 10.17188,0.78868 11.36594,0.88892 3.39483,0.285 4.90617,0.26169 5.8923,-0.0908 z m 7.13384,0.10765 c 1.61549,-0.12575 7.01751,-0.54017 12.00448,-0.92092 5.75644,-0.43949 9.18712,-0.80345 9.39559,-0.99675 0.26182,-0.24276 -1.25803,-2.11278 -7.49821,-9.22576 -7.64791,-8.71761 -8.99236,-10.20781 -8.73998,-9.68753 0.0682,0.14049 1.37628,3.17107 2.90696,6.73462 2.12192,4.94 2.91407,6.52902 3.33455,6.68889 0.71353,0.27127 0.92742,0.63703 0.73222,1.25205 -0.19734,0.62178 -1.0618,0.91508 -1.53633,0.52127 -0.28374,-0.23549 -1.74059,0.26484 -6.94778,2.38609 -3.62382,1.47625 -6.99104,2.86063 -7.48272,3.07643 l -0.89395,0.39236 0.89395,0.004 c 0.49168,0.002 2.21573,-0.0989 3.83122,-0.22469 z M 47.018,140.35003 c 6.42037,-7.31012 8.15431,-9.43052 8.05038,-9.84463 -0.0841,-0.33498 0.0594,-0.70148 0.39282,-1.00319 0.50955,-0.46114 0.5253,-0.72371 0.5253,-8.75969 0,-8.27879 -2.6e-4,-8.28461 -0.57468,-8.76371 -0.5208,-0.43447 -1.07236,-0.48022 -5.88255,-0.48791 -4.48786,-0.007 -5.33058,0.0507 -5.45489,0.37462 -0.0809,0.21072 -0.39332,0.38537 -0.69437,0.38812 -0.44927,0.004 -1.37632,1.45726 -5.17336,8.10941 -3.66534,6.42139 -4.57653,8.20079 -4.38775,8.56852 0.16494,0.32128 0.12048,0.64384 -0.14447,1.04822 -0.3476,0.53049 -0.31649,0.85129 0.33894,3.49482 0.39692,1.60088 1.43407,5.84158 2.30478,9.42377 0.87071,3.58218 1.64022,6.60564 1.71003,6.71878 0.0698,0.11313 0.27994,0.17059 0.46695,0.1277 0.18701,-0.0429 4.0223,-4.27057 8.52287,-9.39483 z m 50.40302,2.16309 c 0.95244,-3.93221 2.00228,-8.26972 2.33299,-9.63891 0.52019,-2.15364 0.5516,-2.53068 0.23282,-2.79524 -0.24223,-0.20104 -0.31747,-0.56094 -0.21958,-1.05037 0.12562,-0.62809 -0.56002,-1.99686 -4.38389,-8.75185 -3.84903,-6.79945 -4.62067,-8.00887 -5.11548,-8.01771 -0.32049,-0.006 -0.64886,-0.1828 -0.72972,-0.39352 -0.12419,-0.32364 -0.97556,-0.38313 -5.48339,-0.38313 -4.99582,0 -5.36898,0.0326 -5.84721,0.51084 -0.48979,0.48979 -0.51082,0.85137 -0.51082,8.78052 0,7.03925 0.057,8.31701 0.38311,8.58766 0.21072,0.17488 0.38313,0.62587 0.38313,1.0022 0,0.51321 0.8374,1.63851 3.35047,4.50232 1.84277,2.09997 5.54419,6.32189 8.22538,9.38207 2.9607,3.37918 5.02718,5.53463 5.2627,5.48928 0.28365,-0.0546 0.8529,-1.9949 2.11949,-7.22416 z m -39.13579,1.15946 c 5.96857,-1.36141 7.10209,-1.69343 7.54432,-2.20983 0.64682,-0.75527 1.64641,-0.80658 1.83274,-0.094 0.0739,0.28249 0.37919,0.57382 0.67848,0.64741 3.94163,0.96909 14.61107,3.37475 14.67665,3.30917 0.0477,-0.0477 -0.15791,-0.21772 -0.45696,-0.37777 -0.29906,-0.16005 -3.72826,-2.32761 -7.62046,-4.81681 -6.62497,-4.23689 -7.1501,-4.52355 -8.22609,-4.49047 -1.02896,0.0317 -1.91198,0.52383 -8.42868,4.69814 -7.00185,4.48506 -8.25845,5.34397 -7.40702,5.06285 0.21072,-0.0696 3.54388,-0.84746 7.40702,-1.72863 z m 0.0826,-3.71147 c 4.15432,-2.66908 7.46172,-4.94469 7.34978,-5.05692 -0.11194,-0.11222 -1.39899,-0.41267 -2.86012,-0.66767 -2.25117,-0.39288 -2.71814,-0.41047 -3.05984,-0.11522 -0.81568,0.70478 -1.89158,0.1455 -1.72257,-0.89544 0.11183,-0.68879 -1.21372,-2.05711 -1.83534,-1.89456 -0.2603,0.0681 -0.52825,0.25611 -0.59546,0.41786 -0.0672,0.16176 -1.33945,3.10139 -2.82722,6.53251 -1.48778,3.43112 -2.70505,6.39645 -2.70505,6.58961 0,0.43277 -0.81089,0.91506 8.25582,-4.91017 z m 22.38463,-1.8806 c -2.01409,-4.67999 -2.98992,-6.66579 -3.31773,-6.75153 -0.6129,-0.16027 -1.93719,1.21506 -1.82649,1.89688 0.16888,1.04014 -0.90565,1.59968 -1.72257,0.89699 -0.40874,-0.35158 -0.58853,-0.33523 -5.33636,0.48528 -0.46557,0.0804 -0.81038,0.24964 -0.76624,0.37594 0.13456,0.38508 15.65474,10.20023 15.74162,9.95519 0.0446,-0.12577 -1.20291,-3.21221 -2.77223,-6.85875 z m -13.83952,-4.37705 c 0.29803,0 0.63379,0.15832 0.74613,0.35183 0.17232,0.29682 0.63505,0.28358 2.95963,-0.0847 2.24435,-0.35555 2.82732,-0.53923 3.14331,-0.99036 0.21336,-0.30462 0.64724,-0.55385 0.9642,-0.55385 0.9066,0 1.87889,-1.23389 1.82697,-2.31852 -0.0555,-1.15941 -2.25855,-4.02189 -3.11636,-4.04916 -0.56956,-0.0181 -1.35917,-0.63251 -1.35917,-1.05759 0,-0.13044 0.23268,-0.46985 0.51707,-0.75424 0.4824,-0.4824 0.54197,-1.09409 0.88856,-9.12394 0.32766,-7.59162 0.32693,-8.63179 -0.006,-8.81825 -0.20776,-0.11626 -0.37773,-0.48385 -0.37773,-0.81688 0,-0.45829 -0.64769,-1.1382 -2.66436,-2.79686 -3.5384,-2.910259 -3.59612,-2.910935 -7.16359,-0.0842 -2.1732,1.72196 -2.66191,2.23325 -2.67335,2.79687 -0.008,0.37933 -0.19645,0.79179 -0.41943,0.91658 -0.36532,0.20444 -0.37807,0.89406 -0.12889,6.97274 0.33932,8.27751 0.52237,10.70478 0.80733,10.70478 0.12091,0 0.34798,0.23943 0.5046,0.53207 0.22717,0.42448 0.19516,0.63108 -0.15831,1.02166 -0.24368,0.26927 -0.68386,0.49052 -0.97816,0.49167 -0.79672,0.003 -3.04329,2.91941 -3.13374,4.06795 -0.0834,1.05889 0.92905,2.31533 1.8657,2.31533 0.31695,0 0.75201,0.2509 0.96681,0.55757 0.52658,0.75179 5.3913,1.60228 6.0439,1.05664 0.22178,-0.18543 0.64708,-0.33715 0.94511,-0.33715 z m -8.64224,-6.36023 c 0.86851,-1.0911 1.25333,-1.7868 1.15672,-2.09119 -0.0796,-0.25087 -0.008,-0.67476 0.15864,-0.94198 0.25203,-0.40357 0.005,-1.43059 -1.45649,-6.06471 l -1.7599,-5.57888 -0.0676,8.02586 c -0.0372,4.41422 -0.005,8.18979 0.0722,8.39018 0.16487,0.42964 0.18362,0.41243 1.89638,-1.73928 z m 19.17066,-6.46813 c 0,-4.51043 -0.0559,-8.14482 -0.12432,-8.07645 -0.0684,0.0684 -0.91045,2.60203 -1.87126,5.63034 -1.43885,4.53499 -1.69196,5.58118 -1.43519,5.93235 0.17147,0.2345 0.25512,0.64298 0.18587,0.90775 -0.14331,0.54806 2.63499,4.1837 3.0168,3.94774 0.1262,-0.078 0.2281,-3.80467 0.2281,-8.34173 z m 23.61734,5.74398 c 0.0984,-0.8096 0.56402,-3.94245 1.03471,-6.96187 0.74647,-4.78839 0.809,-5.54157 0.48948,-5.89464 -0.43802,-0.48402 -0.46113,-0.85799 -0.0898,-1.45354 0.37158,-0.59592 -3.0403,-11.64134 -3.6311,-11.75512 -0.5327,-0.10258 -4.86742,5.14063 -4.67164,5.65079 0.0813,0.2117 0.0152,0.63248 -0.14674,0.93506 -0.24978,0.46672 0.21908,2.11389 3.09169,10.86148 1.86236,5.67124 3.46675,10.2615 3.5653,10.20059 0.0986,-0.0609 0.25969,-0.77314 0.35809,-1.58275 z m -64.5141,-8.76494 c 2.71476,-8.19062 3.32986,-10.3036 3.08524,-10.59834 -0.16804,-0.20248 -0.24206,-0.61083 -0.16449,-0.90745 0.10739,-0.41069 -0.38697,-1.1724 -2.07302,-3.19404 -1.21772,-1.4601 -2.36198,-2.65474 -2.5428,-2.65474 -0.43176,0 -0.53602,0.27232 -2.38688,6.23463 -1.27602,4.11053 -1.52276,5.17469 -1.28725,5.5518 0.38908,0.62302 0.36786,0.8713 -0.11577,1.35494 -0.36985,0.36984 -0.37185,0.62297 -0.0219,2.76395 0.21187,1.29625 0.70468,4.45441 1.09512,7.01813 0.39044,2.56373 0.77989,4.66132 0.86543,4.66132 0.0855,0 1.68139,-4.60359 3.54631,-10.2302 z m 1.82489,1.67641 c 3.54887,-6.22978 3.93006,-7.01683 3.95851,-8.17327 0.0246,-1.00029 -0.13075,-1.54453 -0.71162,-2.49289 -0.40871,-0.66726 -0.88339,-1.21321 -1.05484,-1.21321 -0.24721,0 -2.97903,7.87453 -6.73421,19.4115 -0.26124,0.80261 0.73992,-0.85759 4.54216,-7.53213 z m 61.19633,6.82974 c -0.18114,-0.52679 -1.63618,-4.95185 -3.23341,-9.83346 -1.83115,-5.59651 -3.02621,-8.87565 -3.23465,-8.87565 -0.18183,0 -0.66325,0.53447 -1.06985,1.18772 -0.5874,0.94375 -0.73178,1.45677 -0.70286,2.49756 0.0332,1.1958 0.40048,1.94853 4.21807,8.64574 2.29991,4.03474 4.21999,7.3359 4.26685,7.3359 0.0469,0 -0.063,-0.43101 -0.24415,-0.95781 z m -24.27715,-8.42868 c 1.43735,-4.47101 1.66264,-5.40927 1.44062,-5.99954 -0.14474,-0.38483 -0.20284,-0.93042 -0.1291,-1.21242 0.12882,-0.49257 -1.65059,-3.86357 -2.22768,-4.22023 -0.15063,-0.0931 -0.25154,0.29786 -0.25154,0.97459 0,1.03153 -0.35125,8.94756 -0.61135,13.77799 -0.0586,1.0887 -0.0656,1.97947 -0.0156,1.97947 0.05,0 0.85763,-2.38494 1.79472,-5.29986 z m -15.4657,-3.63965 c -0.17095,-4.1441 -0.38883,-7.61828 -0.48418,-7.72042 -0.0953,-0.10212 -0.70003,0.71688 -1.34375,1.82 -0.87819,1.5049 -1.11051,2.11269 -0.93054,2.43429 0.16282,0.29093 0.12458,0.60882 -0.11903,0.98957 -0.32417,0.50667 -0.1964,1.07647 1.32055,5.88896 1.01187,3.21013 1.71688,5.08838 1.77361,4.72516 0.0518,-0.33156 -0.0457,-3.99347 -0.21666,-8.13756 z m -4.65127,-3.63894 c 0.12668,-0.65905 -2.20494,-4.27891 -2.75612,-4.27891 -0.24922,0 -0.60044,-0.17752 -0.78051,-0.39448 -0.20735,-0.24984 -0.56999,-0.34594 -0.98907,-0.2621 -0.36393,0.0728 -2.0984,0.25031 -3.85438,0.39447 -4.66189,0.38271 -5.29938,0.49233 -5.47151,0.94089 -0.23039,0.60038 1.31772,3.15244 1.91229,3.15244 0.26946,0 0.63457,0.23197 0.81135,0.51549 0.30815,0.49418 0.54306,0.51267 5.6818,0.44698 4.86709,-0.0622 5.36826,-0.10959 5.44615,-0.51478 z m 34.40185,0.0631 c 0.25426,-0.28096 0.6475,-0.51082 0.87386,-0.51082 0.5215,0 2.11596,-2.63081 1.91379,-3.15768 -0.16722,-0.43577 -0.45879,-0.48438 -6.10804,-1.01837 -3.26332,-0.30847 -3.89099,-0.30975 -4.23445,-0.009 -0.22178,0.19442 -0.59388,0.35349 -0.8269,0.35349 -0.40598,0 -0.92419,0.68984 -2.22134,2.95712 -1.06747,1.8658 -0.98948,1.89575 4.93636,1.89575 4.88005,0 5.23324,-0.0319 5.66672,-0.51083 z m -56.93593,-5.47964 c 1.1455,-3.64507 1.38278,-4.67908 1.15677,-5.04097 -0.15637,-0.250402 -0.28432,-0.625197 -0.28432,-0.832882 0,-0.475751 0.86042,-0.952237 1.36787,-0.757517 0.49849,0.191293 4.50666,-3.608956 4.50666,-4.272873 0,-0.264215 0.12716,-0.684006 0.28257,-0.932862 0.22378,-0.358327 -0.15473,-1.9915 -1.81946,-7.850523 -1.15612,-4.068944 -2.18041,-7.544992 -2.27622,-7.724556 -0.0958,-0.179564 -0.43632,1.601944 -0.75669,3.958924 -0.32038,2.356969 -0.74111,5.434773 -0.93496,6.839545 -0.19386,1.404781 -0.5255,3.818456 -0.737,5.363704 -0.21149,1.545259 -0.79002,5.740451 -1.28561,9.32264 -0.49559,3.58218 -0.89205,6.62799 -0.88102,6.76847 0.0279,0.35577 0.0317,0.34477 1.66141,-4.8411 z m 25.0849,3.06792 c 1.54164,-2.66148 1.43907,-2.93793 -1.94024,-5.22917 -3.08156,-2.08935 -3.50922,-2.11577 -3.28265,-0.20273 0.0829,0.7001 0.34088,1.48298 0.57325,1.73975 0.26616,0.2941 0.37429,0.71902 0.29222,1.14833 -0.0975,0.50981 0.16806,1.15515 1.05403,2.5618 1.55209,2.46427 1.86657,2.46256 3.30339,-0.018 z m 21.5042,-0.0184 c 0.78804,-1.31133 1.12304,-2.13504 1.07082,-2.63292 -0.0445,-0.42406 0.089,-0.86148 0.32181,-1.05472 0.45256,-0.37558 0.568,-2.94183 0.14412,-3.2038 -0.13954,-0.0862 -1.44726,0.65565 -2.90605,1.64863 -3.35611,2.28447 -3.45702,2.56704 -1.88565,5.28005 1.42919,2.4675 1.75195,2.4638 3.25495,-0.0373 z m 22.08053,-8.440901 C 99.24632,84.928889 99.20008,84.588904 98.72908,80.889417 98.49161,79.024204 98.21824,77.587489 98.1216,77.696738 c -0.0966,0.109248 -1.12807,3.565399 -2.29207,7.680342 -1.8299,6.469055 -2.07392,7.561026 -1.80279,8.06762 0.17246,0.322252 0.2761,0.749051 0.2303,0.948462 -0.1066,0.464225 4.01493,4.418708 4.37405,4.196756 0.42641,-0.26354 1.24589,0.101496 1.41353,0.629647 0.0841,0.264987 0.0169,0.699538 -0.14928,0.965675 -0.24952,0.39955 -0.0444,1.31552 1.17661,5.25515 0.81335,2.62419 1.51613,4.73394 1.56176,4.68832 0.0457,-0.0457 -0.55128,-4.67324 -1.32646,-10.283611 z m -55.15416,6.019811 c 4.84892,-0.43556 5.09791,-0.4838 5.61521,-1.08797 0.66969,-0.78213 0.5538,-2.79875 -0.207,-3.60223 -0.53275,-0.56263 -0.81504,-0.59929 -6.9407,-0.90112 -3.51195,-0.17306 -6.98878,-0.381237 -7.72629,-0.462625 -1.88175,-0.207665 -1.78687,0.194475 0.76625,3.247705 1.71804,2.05457 2.23835,2.52262 2.81757,2.53454 0.39072,0.008 0.7776,0.18974 0.85973,0.40377 0.10537,0.27458 0.38497,0.35294 0.94979,0.26618 0.44026,-0.0677 2.1797,-0.24684 3.86544,-0.39825 z m 46.08973,0.14122 c 0.16796,-0.20239 0.60805,-0.40352 0.97798,-0.44698 0.49071,-0.0576 1.24544,-0.7553 2.79087,-2.57981 1.16504,-1.37544 2.11826,-2.68332 2.11826,-2.9064 0,-0.341288 -0.23288,-0.381292 -1.46863,-0.252235 -0.80775,0.08437 -4.28458,0.290345 -7.72629,0.457765 -6.02023,0.29284 -6.27883,0.32687 -6.81602,0.89683 -0.31054,0.32949 -0.6355,1.10678 -0.73215,1.75131 -0.15407,1.02741 -0.0991,1.23355 0.48438,1.81704 0.61449,0.6145 0.95955,0.68837 5.2019,1.11365 2.49906,0.25052 4.61587,0.46929 4.70403,0.48614 0.0881,0.0169 0.29771,-0.13494 0.46567,-0.33731 z m -33.14058,-1.55581 c 0.0747,-0.0747 -0.0732,-1.03387 -0.32881,-2.13144 -0.34352,-1.47529 -0.6679,-2.21314 -1.24418,-2.830042 -0.82657,-0.884845 -0.19665,-0.68581 -13.10927,-4.142136 -2.29032,-0.613053 -3.08131,-0.734599 -3.30762,-0.508293 -0.16359,0.163597 -0.57012,0.297442 -0.90339,0.297442 -0.63446,0 -4.65518,3.443979 -4.65545,3.987652 -1.5e-4,0.315118 1.24232,0.428382 9.89032,0.901617 5.22154,0.28573 5.71407,0.27626 6.15006,-0.118306 0.26067,-0.235902 0.66199,-0.428913 0.89182,-0.428913 0.4344,0 1.00354,0.808919 0.88627,1.259649 -0.0592,0.22759 5.06246,3.84699 5.4454,3.84818 0.0819,2.5e-4 0.21013,-0.0607 0.28485,-0.13541 z m 3.99534,-2.06436 c 2.41525,-1.96057 2.71658,-2.29557 2.76648,-3.075517 0.0474,-0.741464 -0.52441,-1.762095 -3.74015,-6.675427 -2.08788,-3.190073 -4.77103,-7.29431 -5.96256,-9.120523 C 48.6856,72.056616 46.70894,69.08111 46.62733,69.16273 c -0.0504,0.05049 2.46039,6.494646 5.57963,14.320447 4.85857,12.189542 5.76413,14.273193 6.31869,14.538982 0.77798,0.372884 0.94859,0.996527 0.41781,1.527313 -0.69415,0.694148 0.45729,5.036708 1.33549,5.036708 0.0595,0 1.32786,-0.9901 2.81863,-2.20022 z m 10.72227,1.97846 c 0.18558,-0.11766 0.54617,-1.17587 0.80131,-2.35156 0.41544,-1.91438 0.42295,-2.167558 0.0719,-2.424263 -0.55662,-0.407009 -0.22233,-1.583331 0.48008,-1.689336 0.45838,-0.06921 1.31449,-2.02184 5.63483,-12.852281 6.37412,-15.97898 6.61705,-16.602709 6.35696,-16.321523 -0.11721,0.126721 -4.57856,6.931099 -9.9141,15.120845 -8.54759,13.120039 -9.68235,14.977992 -9.54425,15.62683 0.1149,0.539788 0.87273,1.318898 2.83859,2.918248 1.47502,1.20002 2.73932,2.18301 2.80956,2.18442 0.0703,0.002 0.27955,-0.0937 0.46512,-0.21138 z m 3.79654,-1.50228 c 1.90541,-1.2512 2.62674,-1.86765 2.63002,-2.24765 0.01,-1.081641 1.00664,-1.464585 1.84301,-0.707676 0.43599,0.394566 0.92852,0.404036 6.15006,0.118306 8.65659,-0.473708 9.89117,-0.586325 9.88393,-0.901617 -0.004,-0.15628 -0.91358,-1.117427 -2.02221,-2.135896 -1.52863,-1.404318 -2.19357,-1.851756 -2.75194,-1.851756 -0.40495,0 -0.8582,-0.121923 -1.00722,-0.270953 -0.27879,-0.278792 -0.62149,-0.198195 -11.02165,2.591925 -2.57255,0.690155 -4.72761,1.254835 -4.78902,1.254835 -0.0614,0 -0.11167,0.158384 -0.11167,0.351965 0,0.193581 -0.23437,0.509654 -0.52082,0.702386 -0.3434,0.231055 -0.648,0.915981 -0.89413,2.010621 -0.20532,0.9131 -0.43289,1.9188 -0.5057,2.23487 -0.0817,0.35468 -0.0129,0.57468 0.17973,0.57468 0.17167,0 1.49359,-0.77582 2.93761,-1.72404 z M 57.42365,98.080978 c 0.0792,-0.206391 -2.53921,-7.102351 -5.8187,-15.32435 -4.40901,-11.053821 -6.08637,-14.989258 -6.43734,-15.103294 -0.63013,-0.20474 -8.69909,7.649036 -8.74282,8.509671 -0.0158,0.311488 -0.15376,0.716934 -0.30651,0.900987 -0.20646,0.248769 0.27919,2.299155 1.89249,7.990044 1.81968,6.418877 2.27092,7.731033 2.79368,8.123678 0.3429,0.257554 0.62385,0.602357 0.62432,0.766244 6.4e-4,0.225398 14.44388,4.370904 15.6513,4.492248 0.10976,0.01101 0.26438,-0.148818 0.34358,-0.355209 z M 69.8702,94.625019 c 1.33464,-2.036929 4.1102,-6.289578 6.16791,-9.450334 2.05771,-3.160755 5.50317,-8.44784 7.65656,-11.749064 2.86806,-4.396823 3.84502,-6.087637 3.65258,-6.321511 -0.32912,-0.400011 -19.61164,-0.47163 -19.61164,-0.07288 0,0.135535 -0.21759,0.362874 -0.48353,0.505204 -0.36948,0.197732 -0.63503,0.139609 -1.1258,-0.246423 -0.61394,-0.482934 -1.06453,-0.505214 -10.21655,-0.505214 -7.96354,0 -9.59733,0.06004 -9.71128,0.357004 -0.12046,0.313911 2.02889,3.708107 11.53508,18.215879 1.21657,1.856651 3.6393,5.569121 5.38385,8.249936 2.71888,4.178018 3.25435,4.863259 3.74906,4.797529 0.42789,-0.05686 1.20471,-1.034426 3.00376,-3.78017 z m 8.98296,3.180652 c 4.72603,-1.22934 13.03338,-3.493665 13.20367,-3.598908 0.10921,-0.06748 0.19856,-0.270779 0.19856,-0.451733 0,-0.180964 0.2575,-0.443915 0.57221,-0.584344 0.49221,-0.219626 0.87898,-1.340441 2.76681,-8.017866 1.88872,-6.680572 2.1444,-7.812759 1.83441,-8.12276 -0.19812,-0.198118 -0.30804,-0.559718 -0.24427,-0.803564 0.0813,-0.310639 -1.12619,-1.683776 -4.03357,-4.587142 -3.29242,-3.287891 -4.25249,-4.1111 -4.64815,-3.985528 -0.38359,0.12175 -1.88498,3.632318 -6.50653,15.213624 -5.93989,14.885001 -6.2523,15.837672 -5.07076,15.462664 0.22119,-0.07018 1.08862,-0.306198 1.92762,-0.524443 z"
       id="path302-9" /></g></svg>
