<?xml version="1.0" encoding="UTF-8" standalone="no"?>
<!-- Created with Inkscape (http://www.inkscape.org/) -->

<svg
   width="67.58622mm"
   height="15.875mm"
   viewBox="0 0 67.586219 15.875"
   version="1.1"
   id="svg5"
   xml:space="preserve"
   sodipodi:docname="logoface1.svg"
   inkscape:version="1.2.2 (732a01da63, 2022-12-09)"
   xmlns:inkscape="http://www.inkscape.org/namespaces/inkscape"
   xmlns:sodipodi="http://sodipodi.sourceforge.net/DTD/sodipodi-0.dtd"
   xmlns="http://www.w3.org/2000/svg"
   xmlns:svg="http://www.w3.org/2000/svg"><sodipodi:namedview
     id="namedview7"
     pagecolor="#ffffff"
     bordercolor="#000000"
     borderopacity="0.25"
     inkscape:showpageshadow="2"
     inkscape:pageopacity="0.0"
     inkscape:pagecheckerboard="0"
     inkscape:deskcolor="#d1d1d1"
     inkscape:document-units="mm"
     showgrid="false"
     inkscape:zoom="2.1719924"
     inkscape:cx="45.350067"
     inkscape:cy="-18.876677"
     inkscape:window-width="1920"
     inkscape:window-height="1017"
     inkscape:window-x="-8"
     inkscape:window-y="1072"
     inkscape:window-maximized="1"
     inkscape:current-layer="layer1" /><defs
     id="defs2" /><g
     inkscape:label="Layer 1"
     inkscape:groupmode="layer"
     id="layer1"
     transform="translate(-29.345502,-64.897212)"><g
       id="g293"
       transform="matrix(1.5000006,0,0,1.5000006,-14.672768,-32.448645)"><path
         style="fill:#ffffff;stroke:#ffffff;stroke-width:0.122616;stroke-dasharray:none"
         d="m 33.070564,75.371847 c -0.029,-0.04143 -0.10666,-0.06027 -0.44165,-0.107168 -0.319473,-0.04473 -0.416823,-0.05043 -0.45487,-0.02667 -0.100692,0.06288 -0.215842,0.01189 -0.198127,-0.08774 0.0118,-0.06638 -1.609597,-1.547086 -1.675274,-1.529911 -0.09672,0.02529 -0.169626,-0.117905 -0.097,-0.190531 0.01997,-0.01997 -0.0047,-0.160457 -0.0876,-0.498816 -0.06347,-0.259059 -0.169315,-0.693174 -0.235204,-0.964701 -0.08355,-0.344297 -0.130489,-0.493687 -0.155131,-0.493687 -0.01943,0 -0.0482,-0.02404 -0.06393,-0.05343 -0.0228,-0.0426 -0.01961,-0.06335 0.01573,-0.102403 0.04214,-0.04657 0.03897,-0.08401 -0.06441,-0.760059 -0.09096,-0.594904 -0.116728,-0.716682 -0.157688,-0.745371 -0.06464,-0.04528 -0.06486,-0.160255 -3.01e-4,-0.17713 0.03759,-0.0098 0.0526,-0.04566 0.06613,-0.157886 0.0096,-0.07985 0.05051,-0.381758 0.09084,-0.670917 0.04033,-0.289159 0.09784,-0.704626 0.127802,-0.923259 0.02996,-0.218633 0.08747,-0.634099 0.127801,-0.923259 0.10784,-0.773168 0.11259,-0.820674 0.08205,-0.820674 -0.04252,0 -0.06338,-0.101233 -0.02931,-0.142284 0.017,-0.02048 0.06136,-0.03724 0.09859,-0.03724 0.09578,0 0.882262,-0.784627 0.886637,-0.884551 0.0049,-0.112542 0.117618,-0.154274 0.173775,-0.06435 0.03111,0.04981 0.05981,0.05129 0.996439,0.05129 0.931836,0 0.965975,-0.0017 1.010826,-0.05129 0.05893,-0.06512 0.106336,-0.06512 0.147004,0 0.03111,0.04981 0.05981,0.05129 0.99644,0.05129 0.931837,0 0.965974,-0.0017 1.010826,-0.05129 0.02553,-0.02821 0.06015,-0.05129 0.07694,-0.05129 0.04648,0 0.119852,0.09222 0.110698,0.139126 -0.005,0.02566 0.148901,0.198304 0.402224,0.451182 0.327819,0.327244 0.424339,0.409645 0.479962,0.409753 0.09385,1.91e-4 0.143862,0.08814 0.0863,0.151754 -0.05304,0.05861 -0.05309,0.05773 0.03659,0.696702 0.110742,0.789018 0.166503,1.190933 0.255909,1.844518 0.04341,0.31737 0.09129,0.665439 0.106386,0.773486 0.02207,0.157924 0.037,0.198946 0.07613,0.209179 0.06639,0.01736 0.06393,0.132175 -0.0038,0.179647 -0.04504,0.03155 -0.06534,0.120451 -0.142366,0.623371 -0.117817,0.769276 -0.125708,0.844894 -0.09044,0.866692 0.04977,0.03076 0.03427,0.146438 -0.02157,0.161041 -0.06009,0.01571 -0.04565,-0.02866 -0.202824,0.623159 -0.06973,0.289159 -0.169585,0.702822 -0.221909,0.919249 -0.08336,0.344792 -0.09093,0.401351 -0.06121,0.456888 0.04413,0.08246 0.0035,0.150189 -0.08914,0.148765 -0.05341,-8.04e-4 -0.238801,0.155 -0.881539,0.74092 -0.671131,0.611805 -0.816157,0.75595 -0.82673,0.821713 -0.01006,0.06257 -0.02712,0.08142 -0.07913,0.08746 -0.03647,0.0042 -0.07924,-0.0079 -0.09505,-0.02692 -0.04551,-0.05483 -0.850735,0.06707 -0.899669,0.136201 -0.04534,0.06406 -0.141057,0.06377 -0.186089,-6.02e-4 z m 0.02864,-0.122134 c 0.04925,-0.04217 0.05157,-0.07435 0.05114,-0.71168 l -4.01e-4,-0.66751 -0.06438,-0.06107 c -0.06932,-0.06576 -0.02318,-0.06094 -2.114654,-0.220886 -0.592529,-0.04531 -0.58986,-0.04525 -0.58986,-0.01472 0,0.01314 0.365513,0.356481 0.812249,0.76297 0.572357,0.520793 0.827363,0.737044 0.863419,0.732205 0.02814,-0.0038 0.07903,0.01931 0.113072,0.05129 0.05045,0.04739 0.129159,0.06828 0.425297,0.112853 0.460685,0.06934 0.443165,0.06876 0.504154,0.01654 z m 0.654268,-0.02268 c 0.270867,-0.0359 0.342358,-0.05422 0.38117,-0.09767 0.02631,-0.02945 0.07919,-0.05347 0.117706,-0.05347 0.05582,0 0.233784,-0.14969 0.881899,-0.741804 0.44658,-0.407991 0.811963,-0.751328 0.811963,-0.76297 0,-0.02749 -0.0035,-0.02738 -0.589858,0.01742 -2.103329,0.160709 -2.074643,0.157715 -2.128343,0.222154 -0.04652,0.05582 -0.04993,0.104486 -0.05072,0.724618 -8.03e-4,0.59325 0.0039,0.670018 0.04322,0.713481 0.0316,0.03491 0.06609,0.04498 0.121819,0.03557 0.04276,-0.0072 0.227774,-0.03302 0.411143,-0.05732 z m -0.677838,-1.558186 c 0.05896,-0.02108 0.109881,-0.02455 0.143058,-0.0097 0.0394,0.01758 0.171635,-0.02617 0.56243,-0.186078 0.281005,-0.114984 0.628805,-0.25611 0.772888,-0.313612 0.144083,-0.0575 0.25694,-0.112692 0.25079,-0.122642 -0.01219,-0.01972 -0.08327,-0.03759 -0.923098,-0.232008 -0.497009,-0.115057 -0.574497,-0.127006 -0.650545,-0.100312 -0.06788,0.02383 -0.09945,0.02328 -0.147728,-0.0026 -0.05357,-0.02867 -0.157756,-0.01044 -0.817693,0.143067 -0.415963,0.09676 -0.756296,0.183279 -0.756296,0.192268 0,0.009 0.07213,0.04561 0.160288,0.08137 0.972743,0.394655 1.326416,0.543248 1.316532,0.553132 -0.01234,0.01234 -0.0561,-0.0047 -0.932896,-0.364128 -0.447588,-0.183462 -0.552918,-0.218103 -0.584208,-0.192134 -0.02899,0.02406 -0.05341,0.02474 -0.101529,0.0028 -0.09489,-0.04323 -0.07925,-0.167393 0.0236,-0.187288 0.04634,-0.009 0.104767,-0.133771 0.556633,-1.189098 l 0.07687,-0.179522 -0.07444,0.07694 c -0.04094,0.04232 -0.417683,0.467773 -0.837205,0.945461 -0.628099,0.715183 -0.756661,0.874213 -0.728182,0.900752 0.02313,0.02156 0.340298,0.05572 0.957844,0.103183 0.507792,0.03903 1.021355,0.07919 1.14125,0.08926 0.340873,0.02862 0.492626,0.02628 0.591643,-0.0091 z m 0.716307,0.01081 c 0.16221,-0.01263 0.704625,-0.05424 1.205365,-0.09247 0.578002,-0.04413 0.922475,-0.08067 0.943408,-0.100083 0.02629,-0.02438 -0.126319,-0.212144 -0.752893,-0.926355 -0.767924,-0.875332 -0.902919,-1.024963 -0.877578,-0.972722 0.0068,0.01411 0.138192,0.318406 0.291887,0.676221 0.213061,0.496024 0.292601,0.655577 0.334821,0.671629 0.07164,0.02724 0.09312,0.06396 0.07352,0.125718 -0.01981,0.06243 -0.106615,0.09188 -0.154263,0.05234 -0.02849,-0.02365 -0.174772,0.02659 -0.697624,0.239587 -0.363866,0.14823 -0.701967,0.287235 -0.751337,0.308903 l -0.08976,0.0394 0.08976,4.01e-4 c 0.04937,2.01e-4 0.222481,-0.0099 0.384692,-0.02256 z m -2.618814,-1.206263 c 0.644667,-0.734006 0.818771,-0.946915 0.808336,-0.988495 -0.0084,-0.03364 0.006,-0.07044 0.03944,-0.10073 0.05116,-0.0463 0.05275,-0.07267 0.05275,-0.879557 0,-0.831271 -2.6e-5,-0.831855 -0.0577,-0.879961 -0.05229,-0.04363 -0.107675,-0.04822 -0.590664,-0.04899 -0.450625,-7.03e-4 -0.535242,0.0051 -0.547724,0.03762 -0.0081,0.02116 -0.03949,0.0387 -0.06972,0.03897 -0.04511,4.02e-4 -0.138196,0.146323 -0.519455,0.814263 -0.368036,0.644769 -0.459528,0.823438 -0.440573,0.860362 0.01656,0.03226 0.0121,0.06465 -0.01451,0.105251 -0.0349,0.05327 -0.03178,0.08548 0.03403,0.350914 0.03985,0.160744 0.143994,0.586551 0.231422,0.946237 0.08743,0.359686 0.164694,0.66327 0.171703,0.67463 0.007,0.01136 0.02811,0.01713 0.04689,0.01282 0.01878,-0.0043 0.403877,-0.428807 0.855778,-0.943332 z m 5.060949,0.217195 c 0.09563,-0.394831 0.201048,-0.830359 0.234254,-0.967839 0.05223,-0.216246 0.05539,-0.254105 0.02338,-0.280669 -0.02432,-0.02019 -0.03188,-0.05632 -0.02205,-0.105467 0.01261,-0.06307 -0.05623,-0.200504 -0.440185,-0.87877 -0.38648,-0.682731 -0.46396,-0.804168 -0.513644,-0.805056 -0.03218,-6.02e-4 -0.06515,-0.01835 -0.07327,-0.03951 -0.01247,-0.0325 -0.09796,-0.03847 -0.550586,-0.03847 -0.501628,0 -0.539097,0.0033 -0.587116,0.05129 -0.04918,0.04918 -0.05129,0.08549 -0.05129,0.881648 0,0.706809 0.0057,0.835108 0.03847,0.862284 0.02116,0.01756 0.03847,0.06284 0.03847,0.100631 0,0.05153 0.08408,0.164522 0.336419,0.452076 0.185032,0.210857 0.55669,0.634779 0.825908,0.94205 0.297282,0.339302 0.504777,0.55573 0.528425,0.551177 0.02848,-0.0055 0.08564,-0.200308 0.212818,-0.725376 z m -3.929611,0.116421 c 0.599302,-0.136698 0.713119,-0.170036 0.757523,-0.221888 0.06495,-0.07584 0.165315,-0.08099 0.184025,-0.0094 0.0074,0.02836 0.03807,0.05762 0.06813,0.06501 0.395778,0.09731 1.467093,0.338857 1.473677,0.332272 0.0048,-0.0048 -0.01586,-0.02186 -0.04588,-0.03793 -0.03003,-0.01607 -0.374353,-0.233715 -0.765167,-0.483654 -0.665211,-0.425425 -0.717939,-0.454208 -0.825979,-0.450887 -0.103317,0.0032 -0.191981,0.0526 -0.846321,0.471739 -0.703053,0.450343 -0.829228,0.536586 -0.743736,0.508358 0.02116,-0.007 0.35584,-0.08509 0.743736,-0.173571 z m 0.0083,-0.372667 c 0.417134,-0.268001 0.749229,-0.496494 0.737989,-0.507763 -0.01124,-0.01127 -0.140472,-0.04144 -0.287184,-0.06704 -0.226039,-0.03945 -0.272927,-0.04121 -0.307237,-0.01157 -0.0819,0.07077 -0.189933,0.01461 -0.172963,-0.08991 0.01123,-0.06916 -0.121869,-0.206554 -0.184286,-0.190232 -0.02614,0.0068 -0.05304,0.02572 -0.05979,0.04196 -0.0067,0.01624 -0.134494,0.31141 -0.283881,0.655927 -0.149387,0.344518 -0.271613,0.642265 -0.271613,0.66166 0,0.04346 -0.08142,0.09188 0.828964,-0.493028 z m 2.247633,-0.18883 c -0.202234,-0.469916 -0.300217,-0.66931 -0.333132,-0.677919 -0.06154,-0.01609 -0.194513,0.122004 -0.183398,0.190465 0.01696,0.10444 -0.09094,0.160623 -0.172962,0.09007 -0.04104,-0.0353 -0.05909,-0.03366 -0.535822,0.04873 -0.04675,0.0081 -0.08137,0.02507 -0.07694,0.03775 0.01351,0.03867 1.571887,1.024202 1.58061,0.999597 0.0045,-0.01263 -0.120784,-0.322537 -0.278358,-0.688684 z m -1.389621,-0.439498 c 0.02992,0 0.06364,0.0159 0.07492,0.03533 0.0173,0.0298 0.06377,0.02847 0.297176,-0.0085 0.225354,-0.0357 0.28389,-0.05414 0.315618,-0.09944 0.02142,-0.03059 0.06499,-0.05561 0.09681,-0.05561 0.09103,0 0.188659,-0.123895 0.183445,-0.232802 -0.0056,-0.116416 -0.22678,-0.403837 -0.312912,-0.406575 -0.05719,-0.0018 -0.136474,-0.06351 -0.136474,-0.106192 0,-0.0131 0.02336,-0.04718 0.05192,-0.07573 0.04844,-0.04844 0.05442,-0.109857 0.08922,-0.916131 0.0329,-0.762272 0.03283,-0.866715 -6.02e-4,-0.885438 -0.02086,-0.01167 -0.03793,-0.04858 -0.03793,-0.08202 0,-0.04602 -0.06504,-0.114287 -0.267528,-0.280832 -0.355289,-0.292218 -0.361085,-0.292286 -0.719293,-0.0085 -0.21821,0.172901 -0.267281,0.224239 -0.26843,0.280832 -8.03e-4,0.03809 -0.01973,0.0795 -0.04211,0.09203 -0.03668,0.02053 -0.03796,0.08977 -0.01294,0.70013 0.03407,0.831142 0.05245,1.074863 0.08106,1.074863 0.01214,0 0.03494,0.02404 0.05067,0.05343 0.02281,0.04262 0.0196,0.06337 -0.0159,0.102584 -0.02447,0.02704 -0.06867,0.04925 -0.09822,0.04937 -0.08,3.01e-4 -0.305575,0.293137 -0.314658,0.408461 -0.0084,0.106323 0.09329,0.232482 0.187335,0.232482 0.03183,0 0.07551,0.02519 0.09708,0.05599 0.05287,0.07549 0.541338,0.160884 0.606866,0.106097 0.02227,-0.01862 0.06497,-0.03385 0.0949,-0.03385 z m -0.867765,-0.638629 c 0.08721,-0.109557 0.125847,-0.179412 0.116146,-0.209975 -0.008,-0.02519 -8.03e-4,-0.06775 0.01593,-0.09458 0.02531,-0.04052 5.02e-4,-0.143645 -0.146245,-0.608955 l -0.176711,-0.560174 -0.0068,0.805874 c -0.0037,0.44323 -5.02e-4,0.822334 0.0072,0.842455 0.01655,0.04314 0.01844,0.04141 0.190414,-0.174641 z m 1.924919,-0.649462 c 0,-0.452891 -0.0056,-0.817819 -0.01248,-0.810954 -0.0069,0.0069 -0.09142,0.261269 -0.187892,0.565341 -0.144475,0.455356 -0.169889,0.560404 -0.144107,0.595665 0.01722,0.02355 0.02562,0.06456 0.01866,0.09115 -0.01439,0.05503 0.264578,0.420083 0.302916,0.396391 0.01267,-0.0078 0.0229,-0.382026 0.0229,-0.83759 z m 2.371409,0.576751 c 0.0099,-0.08129 0.05663,-0.39586 0.103895,-0.699039 0.07495,-0.480801 0.08123,-0.556427 0.04915,-0.591879 -0.04398,-0.0486 -0.0463,-0.08615 -0.009,-0.145949 0.03731,-0.05984 -0.305275,-1.168903 -0.364597,-1.180327 -0.05349,-0.0103 -0.488736,0.516168 -0.469078,0.567393 0.0082,0.02126 0.0015,0.06351 -0.01473,0.09389 -0.02508,0.04686 0.022,0.212255 0.310436,1.090598 0.186998,0.569447 0.348095,1.030353 0.35799,1.024237 0.0099,-0.0061 0.02607,-0.07763 0.03596,-0.158923 z M 30.121497,70.21459 c 0.272588,-0.822417 0.33435,-1.03458 0.309788,-1.064175 -0.01687,-0.02033 -0.02431,-0.06133 -0.01652,-0.09112 0.01078,-0.04124 -0.03886,-0.11772 -0.208151,-0.320712 -0.122271,-0.146608 -0.237166,-0.266562 -0.255322,-0.266562 -0.04335,0 -0.05382,0.02734 -0.239665,0.626017 -0.128125,0.412737 -0.1529,0.519589 -0.129253,0.557454 0.03907,0.06256 0.03694,0.08749 -0.01162,0.136049 -0.03714,0.03714 -0.03734,0.06255 -0.0022,0.277528 0.02127,0.130156 0.07076,0.447265 0.109961,0.704688 0.0392,0.257423 0.07831,0.468041 0.0869,0.468041 0.0086,0 0.168828,-0.462245 0.356084,-1.027211 z m 0.183236,0.168328 c 0.356341,-0.62553 0.394616,-0.704557 0.397473,-0.820675 0.0025,-0.100439 -0.01313,-0.155086 -0.07145,-0.25031 -0.04104,-0.067 -0.0887,-0.121818 -0.105916,-0.121818 -0.02482,0 -0.299123,0.790679 -0.676179,1.949101 -0.02623,0.08059 0.0743,-0.08611 0.456076,-0.756298 z m 6.144701,0.685772 c -0.01819,-0.0529 -0.164288,-0.497214 -0.324665,-0.987374 -0.183865,-0.561944 -0.303861,-0.891201 -0.32479,-0.891201 -0.01826,0 -0.0666,0.05367 -0.107424,0.119258 -0.05898,0.09476 -0.07348,0.146274 -0.07057,0.250779 0.0033,0.12007 0.04021,0.195652 0.423535,0.868116 0.230933,0.405127 0.423728,0.736595 0.428433,0.736595 0.0047,0 -0.0063,-0.04328 -0.02451,-0.09617 z m -2.437659,-0.846321 c 0.144323,-0.448932 0.166945,-0.543143 0.144652,-0.602412 -0.01453,-0.03864 -0.02037,-0.09342 -0.01296,-0.121738 0.01293,-0.04946 -0.165735,-0.38794 -0.223681,-0.423752 -0.01512,-0.0093 -0.02526,0.02991 -0.02526,0.09786 0,0.103576 -0.03527,0.898422 -0.06139,1.383443 -0.0059,0.109316 -0.0066,0.198758 -0.0016,0.198758 0.005,0 0.08611,-0.239471 0.180208,-0.532157 z m -1.552906,-0.365456 c -0.01716,-0.416107 -0.03904,-0.764949 -0.04862,-0.775204 -0.0096,-0.01025 -0.07029,0.07198 -0.134925,0.182745 -0.08818,0.151107 -0.111506,0.212135 -0.09344,0.244426 0.01635,0.02921 0.01251,0.06113 -0.01195,0.09936 -0.03255,0.05087 -0.01972,0.108088 0.132596,0.591308 0.101601,0.322328 0.172391,0.510922 0.178087,0.474452 0.0052,-0.03329 -0.0046,-0.400983 -0.02176,-0.81709 z m -0.467032,-0.365384 c 0.01272,-0.06618 -0.221397,-0.429644 -0.276741,-0.429644 -0.02502,0 -0.06029,-0.01783 -0.07837,-0.03961 -0.02082,-0.02509 -0.05723,-0.03474 -0.09931,-0.02632 -0.03654,0.0073 -0.210699,0.02513 -0.387017,0.03961 -0.468098,0.03843 -0.532109,0.04944 -0.549392,0.09448 -0.02313,0.06028 0.132312,0.316535 0.192012,0.316535 0.02706,0 0.06372,0.02329 0.08147,0.05176 0.03094,0.04962 0.05453,0.05148 0.570507,0.04488 0.488703,-0.0062 0.539025,-0.011 0.546846,-0.05169 z m 3.454277,0.0063 c 0.02553,-0.02821 0.06502,-0.05129 0.08774,-0.05129 0.05236,0 0.212463,-0.264159 0.192163,-0.317061 -0.01679,-0.04376 -0.04607,-0.04864 -0.613306,-0.102254 -0.327669,-0.03097 -0.390693,-0.0311 -0.42518,-9.04e-4 -0.02227,0.01952 -0.05963,0.03549 -0.08303,0.03549 -0.04077,0 -0.0928,0.06927 -0.223044,0.296923 -0.107185,0.187344 -0.09935,0.190351 0.495658,0.190351 0.490004,0 0.525467,-0.0032 0.568993,-0.05129 z m -5.716916,-0.550208 c 0.11502,-0.366 0.138845,-0.469825 0.116151,-0.506162 -0.0157,-0.02514 -0.02855,-0.06278 -0.02855,-0.08363 0,-0.04777 0.08639,-0.09561 0.137347,-0.07606 0.05005,0.01921 0.452512,-0.362373 0.452512,-0.429037 0,-0.02653 0.01277,-0.06868 0.02837,-0.09367 0.02247,-0.03598 -0.01554,-0.199966 -0.182691,-0.788269 -0.116086,-0.408561 -0.218935,-0.757589 -0.228555,-0.775619 -0.0096,-0.01803 -0.04381,0.16085 -0.07598,0.397514 -0.03217,0.236662 -0.07441,0.545703 -0.09388,0.686756 -0.01947,0.141053 -0.05277,0.38341 -0.074,0.538567 -0.02124,0.155159 -0.07933,0.576397 -0.129087,0.936083 -0.04976,0.359686 -0.08957,0.665514 -0.08846,0.67962 0.0028,0.03572 0.0032,0.03462 0.166821,-0.486093 z m 2.518766,0.308048 c 0.154795,-0.267238 0.144496,-0.294996 -0.194819,-0.525059 -0.309418,-0.20979 -0.352359,-0.212443 -0.32961,-0.02036 0.0083,0.0703 0.03423,0.148906 0.05756,0.174688 0.02672,0.02953 0.03758,0.0722 0.02934,0.115303 -0.0098,0.05119 0.01688,0.115989 0.105835,0.25723 0.155845,0.247436 0.187421,0.247265 0.331692,-0.0018 z m 2.159229,-0.0018 c 0.07913,-0.13167 0.112764,-0.214379 0.10752,-0.264371 -0.0045,-0.04258 0.0089,-0.0865 0.03231,-0.105904 0.04544,-0.03771 0.05703,-0.295388 0.01447,-0.321692 -0.01401,-0.0087 -0.145319,0.06583 -0.291795,0.165538 -0.336986,0.229383 -0.347118,0.257756 -0.189338,0.530168 0.143505,0.247761 0.175913,0.247389 0.326829,-0.0037 z m 2.217098,-0.847548 c -0.206938,-1.497731 -0.211581,-1.531869 -0.258874,-1.903333 -0.02384,-0.187285 -0.05129,-0.331545 -0.061,-0.320576 -0.0097,0.01097 -0.11327,0.358001 -0.230146,0.771181 -0.18374,0.649555 -0.208242,0.7592 -0.181018,0.810066 0.01732,0.03236 0.02772,0.07521 0.02313,0.09523 -0.0107,0.04661 0.403137,0.443681 0.439196,0.421395 0.04282,-0.02646 0.1251,0.01019 0.141932,0.06322 0.0084,0.02661 0.0017,0.07024 -0.01499,0.09696 -0.02505,0.04012 -0.0045,0.13209 0.118143,0.527667 0.08167,0.263494 0.152234,0.475333 0.156816,0.470753 0.0046,-0.0046 -0.05535,-0.469239 -0.133189,-1.032574 z m -5.538009,0.604447 c 0.486878,-0.04373 0.511879,-0.04858 0.563821,-0.109242 0.06724,-0.07853 0.05561,-0.281022 -0.02079,-0.361699 -0.05349,-0.05649 -0.08184,-0.06018 -0.696913,-0.09048 -0.352634,-0.01738 -0.701741,-0.03828 -0.775794,-0.04645 -0.188946,-0.02085 -0.179419,0.01953 0.07694,0.326101 0.172508,0.206298 0.224752,0.253295 0.282911,0.254492 0.03923,8.03e-4 0.07808,0.01905 0.08633,0.04054 0.01058,0.02757 0.03865,0.03544 0.09537,0.02673 0.04421,-0.0068 0.218863,-0.02478 0.388128,-0.03999 z m 4.627852,0.01418 c 0.01687,-0.02032 0.06106,-0.04052 0.0982,-0.04488 0.04927,-0.0058 0.125054,-0.07584 0.28023,-0.259038 0.116982,-0.138107 0.212694,-0.269431 0.212694,-0.29183 0,-0.03427 -0.02338,-0.03829 -0.147465,-0.02533 -0.08111,0.0085 -0.430213,0.02915 -0.775794,0.04596 -0.604489,0.0294 -0.630455,0.03282 -0.684394,0.09005 -0.03118,0.03308 -0.06381,0.111132 -0.07351,0.175849 -0.01547,0.103161 -0.01,0.12386 0.04864,0.182448 0.0617,0.0617 0.09635,0.06912 0.522321,0.111821 0.250929,0.02515 0.463478,0.04712 0.47233,0.04881 0.0088,0.0017 0.02989,-0.01355 0.04676,-0.03387 z M 32.386501,68.86873 c 0.0075,-0.0075 -0.0074,-0.103811 -0.03302,-0.214017 -0.03449,-0.148134 -0.06706,-0.222221 -0.124927,-0.284164 -0.083,-0.08885 -0.01975,-0.06886 -1.316297,-0.41591 -0.22997,-0.06156 -0.309393,-0.07376 -0.332117,-0.05104 -0.01643,0.01643 -0.05725,0.02987 -0.09071,0.02987 -0.06371,0 -0.467425,0.345809 -0.467452,0.400399 -1.5e-5,0.03164 0.124741,0.04301 0.993083,0.09053 0.524293,0.02869 0.573748,0.02774 0.617525,-0.01188 0.02617,-0.02369 0.06647,-0.04307 0.08955,-0.04307 0.04362,0 0.100765,0.08122 0.08899,0.126481 -0.0059,0.02285 0.50832,0.386275 0.54677,0.386394 0.0082,2.5e-5 0.0211,-0.0061 0.0286,-0.0136 z m 0.401171,-0.207282 c 0.242514,-0.19686 0.27277,-0.230497 0.277781,-0.308811 0.0048,-0.07445 -0.05266,-0.176932 -0.375547,-0.670278 C 32.480263,67.362045 32.210848,66.94994 32.091207,66.766571 31.34057,65.61609 31.142094,65.31732 31.1339,65.325516 c -0.0051,0.0051 0.247047,0.652125 0.560249,1.437911 0.487847,1.223947 0.578774,1.433166 0.634457,1.459853 0.07812,0.03744 0.09525,0.100061 0.04195,0.153357 -0.0697,0.0697 0.04592,0.505734 0.134096,0.505734 0.006,0 0.13333,-0.09941 0.283018,-0.220923 z m 1.076619,0.198657 c 0.01863,-0.01182 0.05484,-0.118069 0.08046,-0.23612 0.04171,-0.192222 0.04247,-0.217643 0.0072,-0.243419 -0.05589,-0.04087 -0.02233,-0.158982 0.0482,-0.169626 0.04603,-0.0069 0.131988,-0.203012 0.565791,-1.290492 0.640023,-1.604444 0.664416,-1.667072 0.6383,-1.638839 -0.01177,0.01272 -0.459731,0.69595 -0.995471,1.518279 -0.85826,1.317378 -0.972201,1.503935 -0.958334,1.569084 0.01154,0.0542 0.08763,0.13243 0.285021,0.29302 0.148107,0.120494 0.275055,0.219196 0.282107,0.219337 0.0071,2.01e-4 0.02807,-0.0094 0.0467,-0.02122 z M 34.2455,68.709261 c 0.191322,-0.125632 0.26375,-0.18753 0.264079,-0.225686 10e-4,-0.108607 0.101077,-0.147058 0.185056,-0.07106 0.04378,0.03962 0.09323,0.04057 0.617526,0.01188 0.869205,-0.04757 0.993168,-0.05887 0.992441,-0.09053 -4.01e-4,-0.01569 -0.09173,-0.1122 -0.203049,-0.214465 -0.153489,-0.141007 -0.220256,-0.185934 -0.276321,-0.185934 -0.04066,0 -0.08617,-0.01224 -0.101135,-0.02721 -0.02799,-0.02799 -0.0624,-0.0199 -1.10668,0.260254 -0.258309,0.0693 -0.474697,0.125998 -0.480863,0.125998 -0.0062,0 -0.01121,0.0159 -0.01121,0.03534 0,0.01944 -0.02353,0.05117 -0.0523,0.07053 -0.03448,0.0232 -0.06506,0.09197 -0.08978,0.201886 -0.02062,0.09168 -0.04347,0.192666 -0.05078,0.224402 -0.0082,0.03561 -0.0013,0.0577 0.01805,0.0577 0.01724,0 0.149971,-0.0779 0.294964,-0.17311 z m -2.027546,-0.480075 c 0.008,-0.02072 -0.254961,-0.713144 -0.584253,-1.538712 -0.442707,-1.10991 -0.61113,-1.505066 -0.646371,-1.516516 -0.06327,-0.02056 -0.873472,0.768037 -0.877863,0.854453 -0.0016,0.03128 -0.01544,0.07199 -0.03078,0.09047 -0.02073,0.02498 0.02803,0.230857 0.190024,0.802277 0.182714,0.644517 0.228023,0.77627 0.280513,0.815696 0.03443,0.02586 0.06264,0.06048 0.06269,0.07694 6.5e-5,0.02263 1.450305,0.438881 1.571542,0.451065 0.01102,0.0011 0.02655,-0.01494 0.0345,-0.03567 z m 1.249754,-0.347011 c 0.134011,-0.204527 0.412704,-0.631534 0.619318,-0.948905 0.206613,-0.31737 0.552571,-0.848244 0.768792,-1.179719 0.287981,-0.441483 0.386077,-0.611257 0.366754,-0.63474 -0.03305,-0.04017 -1.969197,-0.04736 -1.969197,-0.0073 0,0.01361 -0.02185,0.03644 -0.04855,0.05073 -0.0371,0.01985 -0.06376,0.01402 -0.113041,-0.02474 -0.06164,-0.04849 -0.106889,-0.05073 -1.02584,-0.05073 -0.799616,0 -0.963664,0.006 -0.975106,0.03585 -0.01209,0.03152 0.20372,0.37233 1.158233,1.82905 0.122156,0.186425 0.365421,0.559193 0.540591,0.828373 0.273002,0.419513 0.326768,0.488318 0.376442,0.481718 0.04296,-0.0057 0.120964,-0.103866 0.301606,-0.379566 z m 0.901976,0.319368 c 0.474539,-0.123438 1.308677,-0.350798 1.325775,-0.361365 0.01097,-0.0068 0.01994,-0.02719 0.01994,-0.04536 0,-0.01817 0.02585,-0.04457 0.05745,-0.05867 0.04942,-0.02205 0.08826,-0.134593 0.277814,-0.805071 0.189646,-0.670794 0.215319,-0.784476 0.184193,-0.815603 -0.01989,-0.01989 -0.03093,-0.0562 -0.02453,-0.08069 0.0082,-0.03119 -0.113081,-0.169067 -0.40501,-0.460593 -0.33059,-0.330136 -0.42699,-0.412794 -0.466719,-0.400186 -0.03852,0.01223 -0.18927,0.36472 -0.653318,1.527595 -0.596422,1.494597 -0.627791,1.590255 -0.509153,1.5526 0.02221,-0.007 0.109308,-0.03074 0.193552,-0.05266 z"
         id="path302-9" /><text
         xml:space="preserve"
         style="font-size:132.292px;font-family:Consolas;-inkscape-font-specification:'Consolas, Normal';text-align:center;text-anchor:middle;fill:#ffffff;stroke-width:1.165"
         x="56.71521"
         y="72.053711"
         id="text343"><tspan
           sodipodi:role="line"
           id="tspan341"
           style="font-style:normal;font-variant:normal;font-weight:normal;font-stretch:normal;font-size:5.82083px;font-family:'High Tower Text';-inkscape-font-specification:'High Tower Text, Normal';font-variant-ligatures:normal;font-variant-caps:normal;font-variant-numeric:normal;font-variant-east-asian:normal;fill:#ffffff;stroke-width:1.165"
           x="56.71521"
           y="72.053711">RECOGNIZE</tspan></text></g></g></svg>
