<?xml version="1.0" encoding="UTF-8" standalone="no"?>
<!-- Created with Inkscape (http://www.inkscape.org/) -->

<svg
   width="111.125mm"
   height="111.125mm"
   viewBox="0 0 111.125 111.125"
   version="1.1"
   id="svg5"
   xml:space="preserve"
   sodipodi:docname="logoface.svg"
   inkscape:version="1.2.2 (732a01da63, 2022-12-09)"
   xmlns:inkscape="http://www.inkscape.org/namespaces/inkscape"
   xmlns:sodipodi="http://sodipodi.sourceforge.net/DTD/sodipodi-0.dtd"
   xmlns="http://www.w3.org/2000/svg"
   xmlns:svg="http://www.w3.org/2000/svg"><sodipodi:namedview
     id="namedview7"
     pagecolor="#ffffff"
     bordercolor="#000000"
     borderopacity="0.25"
     inkscape:showpageshadow="2"
     inkscape:pageopacity="0.0"
     inkscape:pagecheckerboard="0"
     inkscape:deskcolor="#d1d1d1"
     inkscape:document-units="mm"
     showgrid="false"
     inkscape:zoom="1.0859962"
     inkscape:cx="394.56861"
     inkscape:cy="131.67634"
     inkscape:window-width="1920"
     inkscape:window-height="1017"
     inkscape:window-x="-8"
     inkscape:window-y="1072"
     inkscape:window-maximized="1"
     inkscape:current-layer="layer1" /><defs
     id="defs2" /><g
     inkscape:label="Layer 1"
     inkscape:groupmode="layer"
     id="layer1"
     transform="translate(-11.279734,-62.035492)"><path
       style="fill:#ffffff;stroke:#ffffff;strokeWidth:1.22116;stroke-dasharray:none"
       d="m 65.915136,168.92936 c -0.288799,-0.41256 -1.062253,-0.60024 -4.398481,-1.06731 -3.181705,-0.44543 -4.151233,-0.50227 -4.53014,-0.26565 -1.002819,0.62627 -2.14962,0.1184 -1.973195,-0.87385 0.117537,-0.66105 -16.03031,-15.40774 -16.684403,-15.23669 -0.963287,0.25191 -1.689335,-1.17424 -0.966033,-1.89754 0.198904,-0.19891 -0.04682,-1.59803 -0.87247,-4.96781 -0.632145,-2.58002 -1.686244,-6.90346 -2.342442,-9.60766 -0.832056,-3.42892 -1.299572,-4.91673 -1.544982,-4.91673 -0.193542,0 -0.480036,-0.23944 -0.636652,-0.53208 -0.227055,-0.42425 -0.195305,-0.63092 0.156674,-1.01985 0.419687,-0.46375 0.388088,-0.83666 -0.641428,-7.56958 -0.905946,-5.92477 -1.162522,-7.13758 -1.570441,-7.4233 -0.643826,-0.45096 -0.645986,-1.59602 -0.0033,-1.76408 0.374352,-0.0979 0.523831,-0.45476 0.658641,-1.57242 0.09591,-0.7952 0.503021,-3.802 0.904687,-6.6818 0.401665,-2.87979 0.974428,-7.017507 1.272807,-9.194923 0.298379,-2.177406 0.871142,-6.315121 1.272807,-9.194922 1.073993,-7.700142 1.121295,-8.173258 0.81715,-8.173258 -0.42351,0 -0.631182,-1.008207 -0.291883,-1.417041 0.169284,-0.203978 0.61114,-0.370867 0.9819,-0.370867 0.95394,0 8.786634,-7.814265 8.830198,-8.809421 0.04907,-1.120834 1.171382,-1.536454 1.730658,-0.640912 0.309829,0.49612 0.595633,0.510832 9.923743,0.510832 9.28035,0 9.620338,-0.01728 10.06702,-0.510832 0.586929,-0.648549 1.059027,-0.648549 1.464053,0 0.309831,0.49612 0.595634,0.510832 9.92375,0.510832 9.280346,0 9.620331,-0.01728 10.067016,-0.510832 0.254263,-0.280955 0.599075,-0.510833 0.766244,-0.510833 0.462874,0 1.193631,0.918431 1.102454,1.385581 -0.04991,0.255566 1.482946,1.974954 4.005839,4.493416 3.26482,3.259086 4.226073,4.079737 4.780037,4.080818 0.934635,0.0019 1.432763,0.877818 0.859434,1.511346 -0.528243,0.583696 -0.528697,0.574979 0.364467,6.938599 1.102895,7.857986 1.658235,11.860745 2.548645,18.369927 0.43236,3.16076 0.90915,6.62725 1.05952,7.70331 0.21977,1.57279 0.36846,1.98134 0.75819,2.08325 0.66116,0.17291 0.63667,1.31636 -0.0383,1.78914 -0.44854,0.31417 -0.65075,1.1996 -1.41785,6.20828 -1.17336,7.66138 -1.25195,8.41448 -0.9007,8.63157 0.49564,0.30631 0.34133,1.4584 -0.21483,1.60384 -0.59845,0.15649 -0.45461,-0.28545 -2.019967,6.20616 -0.694408,2.8798 -1.688927,6.99955 -2.210031,9.15499 -0.830159,3.43386 -0.90563,3.99714 -0.609625,4.55024 0.439512,0.82123 0.03533,1.49577 -0.887713,1.48158 -0.531906,-0.008 -2.378276,1.54368 -8.779428,7.37898 -6.683931,6.09309 -8.128273,7.52866 -8.233573,8.18361 -0.100183,0.62311 -0.270036,0.81083 -0.788108,0.87105 -0.363222,0.0422 -0.78919,-0.0784 -0.946609,-0.26808 -0.453221,-0.5461 -8.472657,0.66796 -8.959991,1.35645 -0.451585,0.63799 -1.404823,0.63514 -1.853302,-0.006 z m 0.285196,-1.21636 c 0.490518,-0.42 0.513549,-0.74047 0.509335,-7.08776 l -0.0044,-6.64787 -0.641134,-0.60823 c -0.690359,-0.65494 -0.23083,-0.60694 -21.060274,-2.19985 -5.901114,-0.45129 -5.874534,-0.45062 -5.874534,-0.14658 0,0.13091 3.640213,3.55027 8.08936,7.59858 5.700221,5.18668 8.239865,7.34037 8.598954,7.29218 0.280277,-0.0376 0.78703,0.19226 1.126115,0.51084 0.502415,0.47201 1.286316,0.68002 4.235622,1.12393 4.588052,0.69055 4.413569,0.68483 5.020967,0.16476 z m 6.515989,-0.22592 c 2.697621,-0.35757 3.409622,-0.54 3.796156,-0.97267 0.262014,-0.29328 0.788697,-0.53255 1.172258,-0.53255 0.555943,0 2.3283,-1.4908 8.78301,-7.38778 4.447581,-4.06327 8.086511,-7.48263 8.086511,-7.59858 0,-0.27376 -0.03524,-0.27271 -5.874527,0.17345 -20.94748,1.60054 -20.661786,1.57072 -21.196601,2.21248 -0.463283,0.55592 -0.49721,1.0406 -0.505136,7.21662 -0.0076,5.9083 0.03873,6.67285 0.430456,7.1057 0.314678,0.34772 0.658162,0.44801 1.213219,0.35423 0.425847,-0.0719 2.268441,-0.32884 4.094654,-0.5709 z m -6.75072,-15.51829 c 0.587203,-0.20995 1.094323,-0.24449 1.424746,-0.097 0.392408,0.1751 1.709346,-0.2606 5.601348,-1.85318 2.798587,-1.14515 6.262394,-2.55066 7.697352,-3.12333 1.434958,-0.57268 2.558911,-1.12232 2.497669,-1.22142 -0.121382,-0.1964 -0.829271,-0.37431 -9.193319,-2.31061 -4.949816,-1.14588 -5.721533,-1.26488 -6.478912,-0.99903 -0.676074,0.23731 -0.990443,0.23187 -1.471251,-0.0255 -0.533555,-0.28555 -1.571137,-0.10401 -8.143571,1.42484 -4.142661,0.96364 -7.532111,1.82531 -7.532111,1.91483 0,0.0895 0.718354,0.45421 1.596341,0.81042 9.68775,3.93045 13.210048,5.41032 13.111611,5.50876 -0.122898,0.12289 -0.558683,-0.0472 -9.290906,-3.62643 -4.457612,-1.82713 -5.506617,-2.17213 -5.818246,-1.9135 -0.288753,0.23964 -0.531898,0.24638 -1.011142,0.028 -0.945042,-0.43059 -0.789266,-1.6671 0.234982,-1.86524 0.461548,-0.0893 1.043403,-1.33225 5.543618,-11.84247 l 0.765536,-1.7879 -0.741339,0.76625 c -0.407738,0.42143 -4.159789,4.65865 -8.337895,9.41604 -6.255366,7.12266 -7.535744,8.70647 -7.252115,8.97078 0.230387,0.21468 3.389097,0.55496 9.539361,1.02762 5.057208,0.38866 10.171883,0.78868 11.365946,0.88892 3.394826,0.285 4.906165,0.26169 5.892297,-0.0908 z m 7.133846,0.10765 c 1.615488,-0.12575 7.017507,-0.54017 12.004476,-0.92092 5.756436,-0.43949 9.187122,-0.80345 9.395589,-0.99675 0.261821,-0.24276 -1.25803,-2.11278 -7.498211,-9.22576 -7.647907,-8.71761 -8.992354,-10.20781 -8.739974,-9.68753 0.06815,0.14049 1.376275,3.17107 2.906957,6.73462 2.121917,4.94 2.914071,6.52902 3.334547,6.68889 0.713526,0.27127 0.927417,0.63703 0.732224,1.25205 -0.197345,0.62178 -1.061803,0.91508 -1.536329,0.52127 -0.283744,-0.23549 -1.740596,0.26484 -6.947789,2.38609 -3.623813,1.47625 -6.991039,2.86063 -7.482711,3.07643 l -0.893951,0.39236 0.893951,0.004 c 0.491672,0.002 2.215724,-0.0989 3.831221,-0.22469 z M 47.018168,140.06308 c 6.420376,-7.31012 8.154316,-9.43052 8.05038,-9.84463 -0.08407,-0.33498 0.05945,-0.70148 0.392828,-1.00319 0.509549,-0.46114 0.525296,-0.72371 0.525296,-8.75969 0,-8.27879 -2.56e-4,-8.28461 -0.574683,-8.76371 -0.520801,-0.43447 -1.072358,-0.48022 -5.882549,-0.48791 -4.487854,-0.007 -5.33058,0.0507 -5.454885,0.37462 -0.08086,0.21072 -0.393328,0.38537 -0.694375,0.38812 -0.449272,0.004 -1.376317,1.45726 -5.173362,8.10941 -3.665338,6.42139 -4.576529,8.20079 -4.387748,8.56852 0.16494,0.32128 0.120483,0.64384 -0.144468,1.04822 -0.347597,0.53049 -0.316486,0.85129 0.338941,3.49482 0.396919,1.60088 1.434069,5.84158 2.304778,9.42377 0.870709,3.58218 1.640225,6.60564 1.710035,6.71878 0.06981,0.11313 0.279936,0.17059 0.466946,0.1277 0.187009,-0.0429 4.022299,-4.27057 8.522866,-9.39483 z m 50.403022,2.16309 c 0.952439,-3.93221 2.002278,-8.26972 2.332996,-9.63891 0.520184,-2.15364 0.551594,-2.53068 0.232813,-2.79524 -0.242225,-0.20104 -0.317464,-0.56094 -0.219578,-1.05037 0.125621,-0.62809 -0.560017,-1.99686 -4.383884,-8.75185 -3.849038,-6.79945 -4.620678,-8.00887 -5.115485,-8.01771 -0.320486,-0.006 -0.648858,-0.1828 -0.729715,-0.39352 -0.124192,-0.32364 -0.975569,-0.38313 -5.483398,-0.38313 -4.995821,0 -5.368975,0.0326 -5.847208,0.51084 -0.489788,0.48979 -0.510823,0.85137 -0.510823,8.78052 0,7.03925 0.05696,8.31701 0.383117,8.58766 0.210716,0.17488 0.383127,0.62587 0.383127,1.0022 0,0.51321 0.837399,1.63851 3.350475,4.50232 1.842769,2.09997 5.544186,6.32189 8.225377,9.38207 2.960697,3.37918 5.027175,5.53463 5.262701,5.48928 0.283647,-0.0546 0.852902,-1.9949 2.119485,-7.22416 z m -39.135788,1.15946 c 5.968575,-1.36141 7.102092,-1.69343 7.544321,-2.20983 0.646816,-0.75527 1.646412,-0.80658 1.832739,-0.094 0.07388,0.28249 0.379189,0.57382 0.678478,0.64741 3.941631,0.96909 14.611072,3.37475 14.676648,3.30917 0.04769,-0.0477 -0.157902,-0.21772 -0.456957,-0.37777 -0.299054,-0.16005 -3.728263,-2.32761 -7.620462,-4.81681 -6.624964,-4.23689 -7.150097,-4.52355 -8.226089,-4.49047 -1.028953,0.0317 -1.911982,0.52383 -8.428678,4.69814 -7.001848,4.48506 -8.258447,5.34397 -7.407021,5.06285 0.210717,-0.0696 3.543877,-0.84746 7.407021,-1.72863 z m 0.08256,-3.71147 c 4.154316,-2.66908 7.461716,-4.94469 7.349779,-5.05692 -0.111938,-0.11222 -1.398993,-0.41267 -2.860124,-0.66767 -2.251162,-0.39288 -2.718139,-0.41047 -3.059833,-0.11522 -0.815679,0.70478 -1.891579,0.1455 -1.722571,-0.89544 0.111833,-0.68879 -1.213719,-2.05711 -1.835345,-1.89456 -0.260298,0.0681 -0.52825,0.25611 -0.595453,0.41786 -0.0672,0.16176 -1.339452,3.10139 -2.827227,6.53251 -1.487774,3.43112 -2.705043,6.39645 -2.705043,6.58961 0,0.43277 -0.810895,0.91506 8.255817,-4.91017 z m 22.384627,-1.8806 c -2.014088,-4.67999 -2.989918,-6.66579 -3.31773,-6.75153 -0.612899,-0.16027 -1.93719,1.21506 -1.826484,1.89688 0.168878,1.04014 -0.905658,1.59968 -1.722573,0.89699 -0.408737,-0.35158 -0.588533,-0.33523 -5.33636,0.48528 -0.465574,0.0804 -0.810384,0.24964 -0.766244,0.37594 0.134569,0.38508 15.654743,10.20023 15.741624,9.95519 0.0446,-0.12577 -1.202908,-3.21221 -2.772233,-6.85875 z m -13.839521,-4.37705 c 0.298033,0 0.633793,0.15832 0.746132,0.35183 0.172318,0.29682 0.635057,0.28358 2.959631,-0.0847 2.244351,-0.35555 2.827323,-0.53923 3.14331,-0.99036 0.213361,-0.30462 0.647245,-0.55385 0.964198,-0.55385 0.906604,0 1.878891,-1.23389 1.826975,-2.31852 -0.05551,-1.15941 -2.258553,-4.02189 -3.116359,-4.04916 -0.569564,-0.0181 -1.359169,-0.63251 -1.359169,-1.05759 0,-0.13044 0.232677,-0.46985 0.517068,-0.75424 0.482403,-0.4824 0.541965,-1.09409 0.888553,-9.12394 0.327668,-7.59162 0.326934,-8.63179 -0.0058,-8.81825 -0.207762,-0.11626 -0.37773,-0.48385 -0.37773,-0.81688 0,-0.45829 -0.647699,-1.1382 -2.664362,-2.79686 -3.538403,-2.91026 -3.596122,-2.910936 -7.16359,-0.0842 -2.173205,1.72196 -2.661912,2.23325 -2.673355,2.79687 -0.0077,0.37933 -0.196445,0.79179 -0.419424,0.91658 -0.365324,0.20444 -0.378072,0.89406 -0.128895,6.97274 0.339316,8.27751 0.522372,10.70478 0.807328,10.70478 0.120912,0 0.347984,0.23943 0.504602,0.53207 0.227173,0.42448 0.195157,0.63108 -0.158307,1.02166 -0.243686,0.26927 -0.68386,0.49052 -0.978163,0.49167 -0.796722,0.003 -3.043284,2.91941 -3.133734,4.06795 -0.0834,1.05889 0.929047,2.31533 1.865698,2.31533 0.316946,0 0.752011,0.2509 0.966811,0.55757 0.526575,0.75179 5.391294,1.60228 6.043896,1.05664 0.221779,-0.18543 0.647079,-0.33715 0.945112,-0.33715 z m -8.642238,-6.36023 c 0.868511,-1.0911 1.253337,-1.7868 1.156726,-2.09119 -0.07962,-0.25087 -0.0082,-0.67476 0.158641,-0.94198 0.252029,-0.40357 0.0054,-1.43059 -1.456494,-6.06471 l -1.759903,-5.57888 -0.06757,8.02586 c -0.03717,4.41422 -0.0046,8.18979 0.07223,8.39018 0.164871,0.42964 0.183626,0.41243 1.896381,-1.73928 z m 19.170661,-6.46813 c 0,-4.51043 -0.05589,-8.14482 -0.124318,-8.07645 -0.06835,0.0684 -0.910447,2.60203 -1.871265,5.63034 -1.438849,4.53499 -1.691953,5.58118 -1.435181,5.93235 0.171465,0.2345 0.255112,0.64298 0.185868,0.90775 -0.143315,0.54806 2.63499,4.1837 3.016794,3.94774 0.1262,-0.078 0.228102,-3.80467 0.228102,-8.34173 z m 23.617339,5.74398 c 0.0984,-0.8096 0.56402,-3.94245 1.03471,-6.96187 0.74647,-4.78839 0.809,-5.54157 0.48948,-5.89464 -0.43802,-0.48402 -0.46113,-0.85799 -0.0898,-1.45354 0.37158,-0.59592 -3.040297,-11.64134 -3.631098,-11.75512 -0.532703,-0.10258 -4.867417,5.14063 -4.671644,5.65079 0.08128,0.2117 0.01516,0.63248 -0.146733,0.93506 -0.249783,0.46672 0.219076,2.11389 3.091685,10.86148 1.862361,5.67124 3.46675,10.2615 3.5653,10.20059 0.0986,-0.0609 0.25969,-0.77314 0.35809,-1.58275 z m -64.5141,-8.76494 c 2.714762,-8.19062 3.329863,-10.3036 3.085246,-10.59834 -0.168042,-0.20248 -0.242067,-0.61083 -0.164499,-0.90745 0.107398,-0.41069 -0.386967,-1.1724 -2.073014,-3.19404 -1.217726,-1.4601 -2.361985,-2.65474 -2.5428,-2.65474 -0.431764,0 -0.536017,0.27232 -2.386884,6.23463 -1.276021,4.11053 -1.522759,5.17469 -1.287249,5.5518 0.389079,0.62302 0.367863,0.8713 -0.115772,1.35494 -0.369841,0.36984 -0.371847,0.62297 -0.02189,2.76395 0.211877,1.29625 0.704683,4.45441 1.095125,7.01813 0.390442,2.56373 0.779887,4.66132 0.865432,4.66132 0.08555,0 1.681385,-4.60359 3.546311,-10.2302 z m 1.824893,1.67641 c 3.548869,-6.22978 3.930055,-7.01683 3.958509,-8.17327 0.02461,-1.00029 -0.130747,-1.54453 -0.71162,-2.49289 -0.408708,-0.66726 -0.883386,-1.21321 -1.05484,-1.21321 -0.247211,0 -2.979029,7.87453 -6.734207,19.4115 -0.261242,0.80261 0.739921,-0.85759 4.542158,-7.53213 z m 61.196333,6.82974 c -0.181147,-0.52679 -1.63618,-4.95185 -3.233413,-9.83346 -1.831146,-5.59651 -3.026206,-8.87565 -3.234653,-8.87565 -0.181823,0 -0.663251,0.53447 -1.069845,1.18772 -0.587404,0.94375 -0.731781,1.45677 -0.702859,2.49756 0.03321,1.1958 0.400474,1.94853 4.218061,8.64574 2.299918,4.03474 4.219997,7.3359 4.266855,7.3359 0.04692,0 -0.06304,-0.43101 -0.244146,-0.95781 z m -24.277149,-8.42868 c 1.437343,-4.47101 1.662635,-5.40927 1.440615,-5.99954 -0.144744,-0.38483 -0.202838,-0.93042 -0.129096,-1.21242 0.128816,-0.49257 -1.650597,-3.86357 -2.227681,-4.22023 -0.150632,-0.0931 -0.25154,0.29786 -0.25154,0.97459 0,1.03153 -0.351251,8.94756 -0.611354,13.77799 -0.0586,1.0887 -0.06564,1.97947 -0.01564,1.97947 0.05,0 0.857633,-2.38494 1.794723,-5.29986 z m -15.465704,-3.63965 c -0.170951,-4.1441 -0.388832,-7.61828 -0.484176,-7.72042 -0.09535,-0.10212 -0.700032,0.71688 -1.343753,1.82 -0.878187,1.5049 -1.110515,2.11269 -0.930537,2.43429 0.162815,0.29093 0.124576,0.60882 -0.119033,0.98957 -0.324173,0.50667 -0.196401,1.07647 1.320549,5.88896 1.011871,3.21013 1.716881,5.08838 1.773614,4.72516 0.05179,-0.33156 -0.04571,-3.99347 -0.216664,-8.13756 z m -4.651268,-3.63894 c 0.12668,-0.65905 -2.204943,-4.27891 -2.756122,-4.27891 -0.249216,0 -0.600441,-0.17752 -0.780506,-0.39448 -0.207351,-0.24984 -0.569993,-0.34594 -0.989077,-0.2621 -0.36393,0.0728 -2.098399,0.25031 -3.854374,0.39447 -4.661892,0.38271 -5.299388,0.49233 -5.471516,0.94089 -0.230384,0.60038 1.317718,3.15244 1.912294,3.15244 0.269456,0 0.634564,0.23197 0.811352,0.51549 0.308143,0.49418 0.543058,0.51267 5.681799,0.44698 4.867084,-0.0622 5.368261,-0.10959 5.44615,-0.51478 z m 34.401846,0.0631 c 0.254263,-0.28096 0.647506,-0.51082 0.873861,-0.51082 0.521499,0 2.115961,-2.63081 1.913789,-3.15768 -0.167218,-0.43577 -0.458791,-0.48438 -6.108035,-1.01837 -3.263324,-0.30847 -3.890992,-0.30975 -4.234452,-0.009 -0.221779,0.19442 -0.593881,0.35349 -0.826897,0.35349 -0.405986,0 -0.924193,0.68984 -2.221348,2.95712 -1.06747,1.8658 -0.98948,1.89575 4.936365,1.89575 4.880047,0 5.233238,-0.0319 5.666717,-0.51083 z m -56.935933,-5.47964 c 1.145501,-3.64507 1.382781,-4.67908 1.156778,-5.040972 -0.156378,-0.250401 -0.284324,-0.625196 -0.284324,-0.832881 0,-0.475751 0.860417,-0.952237 1.367869,-0.757517 0.498486,0.191293 4.506664,-3.608956 4.506664,-4.272873 0,-0.264215 0.127155,-0.684006 0.282565,-0.932862 0.223782,-0.358327 -0.154727,-1.9915 -1.81946,-7.850523 -1.156114,-4.068944 -2.180411,-7.544992 -2.276216,-7.724556 -0.0958,-0.179564 -0.436318,1.601944 -0.756696,3.958924 -0.320378,2.356969 -0.741109,5.434773 -0.93496,6.839545 -0.193852,1.404781 -0.525499,3.818456 -0.736994,5.363704 -0.211496,1.545259 -0.79002,5.740451 -1.28561,9.322641 -0.495592,3.58218 -0.892053,6.62799 -0.881026,6.76847 0.02793,0.35577 0.03169,0.34477 1.66141,-4.8411 z m 25.084906,3.06792 c 1.541641,-2.66148 1.439071,-2.93793 -1.940239,-5.22917 -3.081567,-2.08935 -3.509223,-2.11577 -3.282653,-0.20273 0.08291,0.7001 0.340879,1.48298 0.57325,1.73975 0.266157,0.2941 0.37429,0.71902 0.292222,1.14833 -0.09746,0.50981 0.16806,1.15515 1.054025,2.5618 1.552089,2.46427 1.866574,2.46256 3.303395,-0.018 z m 21.504196,-0.0184 c 0.788041,-1.31133 1.123045,-2.13504 1.07082,-2.63292 -0.0445,-0.42406 0.08901,-0.86148 0.321808,-1.05472 0.452564,-0.37558 0.568,-2.94183 0.144126,-3.2038 -0.139541,-0.0862 -1.447257,0.65565 -2.906049,1.64863 -3.356113,2.28447 -3.457021,2.56704 -1.88565,5.28005 1.429186,2.4675 1.751949,2.4638 3.254945,-0.0373 z m 22.08053,-8.440902 c -2.060924,-14.91621 -2.107164,-15.256195 -2.578163,-18.955682 -0.237475,-1.865213 -0.510841,-3.301928 -0.607482,-3.192679 -0.09665,0.109248 -1.128075,3.565399 -2.29207,7.680342 -1.829901,6.469055 -2.073921,7.561026 -1.802794,8.06762 0.172459,0.322252 0.276099,0.749051 0.230303,0.948462 -0.106603,0.464225 4.014933,4.418708 4.374051,4.196756 0.426409,-0.26354 1.245891,0.101496 1.413525,0.629647 0.0841,0.264987 0.0169,0.699538 -0.149282,0.965674 -0.249513,0.399552 -0.04441,1.315522 1.176612,5.255152 0.81335,2.62419 1.51613,4.73394 1.56176,4.68832 0.0457,-0.0457 -0.55128,-4.67324 -1.32646,-10.283612 z m -55.15416,6.019812 c 4.848919,-0.43556 5.097912,-0.4838 5.615216,-1.08797 0.669684,-0.78213 0.5538,-2.79875 -0.207003,-3.60223 -0.532751,-0.56263 -0.815045,-0.59929 -6.9407,-0.901123 -3.511949,-0.173058 -6.98878,-0.381235 -7.726289,-0.462623 -1.881753,-0.207665 -1.786873,0.194478 0.766244,3.247706 1.718047,2.05457 2.238358,2.52262 2.817576,2.53454 0.390723,0.008 0.777602,0.18974 0.859731,0.40377 0.105366,0.27458 0.384969,0.35294 0.949788,0.26618 0.440255,-0.0677 2.179702,-0.24684 3.865437,-0.39825 z m 46.08973,0.14122 c 0.167961,-0.20239 0.608053,-0.40352 0.977983,-0.44698 0.490714,-0.0576 1.245441,-0.7553 2.790874,-2.57981 1.165037,-1.37544 2.118259,-2.68332 2.118259,-2.906401 0,-0.341288 -0.23288,-0.381292 -1.46863,-0.252235 -0.807753,0.08437 -4.284583,0.290347 -7.726293,0.457767 -6.020227,0.292839 -6.278833,0.326869 -6.816019,0.896829 -0.310543,0.32949 -0.635497,1.10678 -0.732148,1.75131 -0.154069,1.02741 -0.09912,1.23355 0.484372,1.81704 0.614491,0.6145 0.959554,0.68837 5.201903,1.11365 2.499059,0.25052 4.615871,0.46929 4.704036,0.48614 0.08814,0.0169 0.297703,-0.13494 0.465663,-0.33731 z m -33.140575,-1.55581 c 0.07473,-0.0747 -0.07324,-1.03387 -0.328808,-2.13144 -0.343525,-1.47529 -0.667901,-2.213138 -1.244182,-2.830043 -0.826573,-0.884845 -0.196652,-0.68581 -13.10927,-4.142136 -2.290326,-0.613053 -3.081308,-0.734599 -3.307618,-0.508293 -0.163592,0.163597 -0.570121,0.297442 -0.903399,0.297442 -0.634454,0 -4.65518,3.443979 -4.655442,3.987652 -1.53e-4,0.315118 1.242319,0.428382 9.890315,0.901614 5.221545,0.285734 5.71407,0.276264 6.15006,-0.118303 0.260669,-0.235902 0.661991,-0.428913 0.891824,-0.428913 0.434394,0 1.003539,0.808922 0.886272,1.25965 -0.0592,0.22759 5.062456,3.84699 5.445395,3.84818 0.08195,2.5e-4 0.210129,-0.0607 0.284853,-0.13541 z m 3.995337,-2.06436 c 2.41525,-1.96057 2.716585,-2.295567 2.766481,-3.075518 0.04743,-0.741464 -0.524412,-1.762095 -3.740154,-6.675427 -2.087881,-3.190073 -4.771031,-7.29431 -5.962555,-9.120523 -7.475756,-11.457877 -9.45241,-14.433383 -9.534023,-14.351763 -0.05045,0.05049 2.46039,6.494646 5.579634,14.320447 4.858567,12.189542 5.764123,14.273193 6.318684,14.538982 0.777987,0.372884 0.948592,0.996527 0.41781,1.527313 -0.694151,0.694151 0.457291,5.036709 1.335496,5.036709 0.05947,0 1.327859,-0.9901 2.818627,-2.20022 z m 10.722273,1.97846 c 0.185578,-0.11766 0.546164,-1.17587 0.801305,-2.35156 0.415446,-1.914377 0.422956,-2.167559 0.07192,-2.424264 -0.556619,-0.407009 -0.222329,-1.583331 0.480086,-1.689336 0.458375,-0.06921 1.314483,-2.02184 5.634822,-12.852281 6.374123,-15.97898 6.617052,-16.602709 6.356969,-16.321523 -0.117213,0.126721 -4.57856,6.931099 -9.914106,15.120845 -8.547584,13.120039 -9.682345,14.977992 -9.544245,15.62683 0.114894,0.539793 0.872728,1.318899 2.83859,2.918249 1.475014,1.20002 2.739318,2.18301 2.809557,2.18442 0.07028,0.002 0.279545,-0.0937 0.465123,-0.21138 z m 3.796542,-1.50228 c 1.90541,-1.2512 2.626736,-1.86765 2.630018,-2.24765 0.0097,-1.081642 1.006634,-1.464586 1.84301,-0.707677 0.435989,0.394567 0.928518,0.404037 6.150056,0.118303 8.656588,-0.473705 9.891169,-0.586322 9.883929,-0.901614 -0.0039,-0.15628 -0.913575,-1.117427 -2.022207,-2.135896 -1.528626,-1.404318 -2.193576,-1.851756 -2.751942,-1.851756 -0.404953,0 -0.858202,-0.121923 -1.007222,-0.270953 -0.278792,-0.278792 -0.62149,-0.198195 -11.021647,2.591925 -2.572551,0.690155 -4.727609,1.254835 -4.789025,1.254835 -0.0614,0 -0.111661,0.158384 -0.111661,0.351965 0,0.193581 -0.234377,0.509654 -0.520824,0.702386 -0.343402,0.231055 -0.647998,0.915982 -0.894132,2.010622 -0.20532,0.9131 -0.432891,1.9188 -0.505697,2.23487 -0.08167,0.35468 -0.01294,0.57468 0.179728,0.57468 0.171668,0 1.493593,-0.77582 2.937616,-1.72404 z M 57.423783,97.794027 c 0.0792,-0.206391 -2.539214,-7.102351 -5.818698,-15.32435 -4.409013,-11.053821 -6.086377,-14.989258 -6.43734,-15.103294 -0.630136,-0.20474 -8.699095,7.649036 -8.742826,8.509671 -0.01583,0.311488 -0.153755,0.716934 -0.306506,0.900987 -0.206459,0.248769 0.279189,2.299155 1.89249,7.990044 1.819678,6.418877 2.270922,7.731033 2.79368,8.123678 0.342904,0.257554 0.623847,0.602357 0.624318,0.766244 6.39e-4,0.225398 14.443878,4.370904 15.651297,4.492248 0.109769,0.01101 0.26438,-0.148818 0.343581,-0.355209 z m 12.446552,-3.455959 c 1.33464,-2.036929 4.110193,-6.289578 6.167906,-9.450334 2.057713,-3.160755 5.503168,-8.44784 7.656566,-11.749064 2.868053,-4.396823 3.845012,-6.087637 3.65258,-6.321511 -0.329125,-0.400011 -19.611644,-0.47163 -19.611644,-0.07288 0,0.135535 -0.217591,0.362874 -0.483534,0.505204 -0.369472,0.197732 -0.635031,0.139609 -1.125798,-0.246423 -0.613937,-0.482934 -1.06453,-0.505214 -10.216549,-0.505214 -7.963541,0 -9.597333,0.06004 -9.71128,0.357004 -0.12046,0.313911 2.028887,3.708107 11.535083,18.215879 1.216565,1.856651 3.639299,5.569121 5.383851,8.249936 2.718872,4.178018 3.254351,4.863259 3.749061,4.797529 0.427883,-0.05686 1.204704,-1.034426 3.003758,-3.78017 z m 8.982962,3.180652 c 4.726026,-1.22934 13.03338,-3.493665 13.203667,-3.598908 0.109209,-0.06748 0.198562,-0.270779 0.198562,-0.451733 0,-0.180964 0.257496,-0.443915 0.572209,-0.584344 0.49221,-0.219626 0.878976,-1.340441 2.766807,-8.017866 1.888719,-6.680572 2.144401,-7.812759 1.834409,-8.12276 -0.198118,-0.198118 -0.308042,-0.559718 -0.244271,-0.803564 0.08128,-0.310639 -1.126183,-1.683776 -4.033564,-4.587142 -3.292419,-3.287891 -4.252495,-4.1111 -4.648151,-3.985528 -0.38359,0.12175 -1.884984,3.632318 -6.50653,15.213624 -5.939891,14.885001 -6.252306,15.837672 -5.070761,15.462664 0.22119,-0.07018 1.088621,-0.306198 1.927623,-0.524443 z"
       id="path302-9" /></g></svg>
