<?xml version="1.0" encoding="UTF-8" standalone="no"?>
<!-- Created with Inkscape (http://www.inkscape.org/) -->

<svg
   width="48.118164mm"
   height="13.270508mm"
   viewBox="0 0 48.118164 13.270508"
   version="1.1"
   id="svg5"
   xml:space="preserve"
   inkscape:version="1.2.2 (732a01da63, 2022-12-09)"
   sodipodi:docname="test.svg"
   xmlns:inkscape="http://www.inkscape.org/namespaces/inkscape"
   xmlns:sodipodi="http://sodipodi.sourceforge.net/DTD/sodipodi-0.dtd"
   xmlns="http://www.w3.org/2000/svg"
   xmlns:svg="http://www.w3.org/2000/svg"><sodipodi:namedview
     id="namedview7"
     pagecolor="#ffffff"
     bordercolor="#000000"
     borderopacity="0.25"
     inkscape:showpageshadow="2"
     inkscape:pageopacity="0.0"
     inkscape:pagecheckerboard="0"
     inkscape:deskcolor="#d1d1d1"
     inkscape:document-units="mm"
     showgrid="false"
     inkscape:zoom="2.1719924"
     inkscape:cx="307.32152"
     inkscape:cy="921.27394"
     inkscape:window-width="1920"
     inkscape:window-height="1017"
     inkscape:window-x="-8"
     inkscape:window-y="1072"
     inkscape:window-maximized="1"
     inkscape:current-layer="g159" /><defs
     id="defs2" /><g
     inkscape:label="Layer 1"
     inkscape:groupmode="layer"
     id="layer1"
     transform="translate(-60.021745,-251.00549)"><g
       id="g5142"
       inkscape:export-filename="..\Documents\openai.svg"
       inkscape:export-xdpi="96"
       inkscape:export-ydpi="96"
       style="fill:#ffffff;stroke:#ffffff"><g
         id="g5136"
         style="fill:#ffffff;stroke:#ffffff"><path
           d="m 72.235395,256.4408 c 0.300144,-0.90085 0.196788,-1.88768 -0.283192,-2.70708 -0.721832,-1.2568 -2.172938,-1.90339 -3.590142,-1.59911 -0.630466,-0.71026 -1.53627,-1.11417 -2.485897,-1.10838 -1.448624,-0.003 -2.733948,0.92937 -3.179615,2.30771 -0.930609,0.19059 -1.733885,0.7731 -2.203944,1.5987 -0.727206,1.25349 -0.561425,2.83358 0.410113,3.90847 -0.300143,0.90085 -0.196788,1.88768 0.283193,2.70708 0.721832,1.2568 2.172937,1.90339 3.590142,1.59911 0.630052,0.71026 1.53627,1.11417 2.485896,1.10797 1.449452,0.004 2.735189,-0.92979 3.180856,-2.30937 0.930609,-0.19059 1.733885,-0.7731 2.203944,-1.5987 0.726379,-1.25349 0.560184,-2.83234 -0.41094,-3.90723 z m -4.972619,6.95 c -0.580029,8.3e-4 -1.141867,-0.20216 -1.58712,-0.57382 0.02026,-0.0107 0.0554,-0.0302 0.07814,-0.0442 l 2.634314,-1.52139 c 0.134775,-0.0765 0.217459,-0.21994 0.216632,-0.37497 v -3.71375 l 1.113341,0.64287 c 0.01199,0.006 0.01984,0.0174 0.0215,0.0306 v 3.07543 c -0.0017,1.3676 -1.109207,2.47639 -2.476801,2.47928 z m -5.326507,-2.27505 c -0.290635,-0.50189 -0.39523,-1.09019 -0.295596,-1.66112 0.01943,0.0116 0.05374,0.0327 0.07814,0.0467 l 2.634314,1.52138 c 0.133535,0.0781 0.298903,0.0781 0.432851,0 l 3.215997,-1.85708 v 1.28574 c 8.26e-4,0.0132 -0.0054,0.026 -0.01571,0.0343 l -2.662841,1.53751 c -1.186102,0.68297 -2.700874,0.27699 -3.386739,-0.90746 z m -0.693306,-5.75026 c 0.289394,-0.50272 0.746224,-0.8872 1.290285,-1.08688 0,0.0227 -0.0012,0.0628 -0.0012,0.091 v 3.04319 c -8.27e-4,0.15462 0.08186,0.29807 0.216218,0.37456 l 3.215997,1.85667 -1.113341,0.64286 c -0.01116,0.007 -0.02522,0.009 -0.03762,0.003 l -2.663254,-1.53875 c -1.183622,-0.68545 -1.589601,-2.19981 -0.907457,-3.3855 z m 9.147338,2.1287 -3.215997,-1.85708 1.113341,-0.64246 c 0.01116,-0.007 0.02522,-0.009 0.03762,-0.003 l 2.663254,1.53751 c 1.185689,0.68504 1.592081,2.20188 0.907044,3.38757 -0.289808,0.50189 -0.746224,0.88637 -1.289871,1.08647 v -3.13414 c 0.0012,-0.15462 -0.08103,-0.29766 -0.214979,-0.37456 z m 1.107966,-1.66774 c -0.01943,-0.012 -0.05374,-0.0327 -0.07814,-0.0467 l -2.634315,-1.52139 c -0.133534,-0.0781 -0.298902,-0.0781 -0.432851,0 l -3.215996,1.85708 v -1.28573 c -8.27e-4,-0.0132 0.0054,-0.026 0.01571,-0.0343 l 2.66284,-1.53627 c 1.186103,-0.68421 2.702529,-0.27699 3.386326,0.90953 0.28898,0.50106 0.393576,1.08771 0.295595,1.65781 z m -6.966545,2.29159 -1.113755,-0.64287 c -0.01199,-0.006 -0.01984,-0.0174 -0.0215,-0.0306 v -3.07543 c 8.27e-4,-1.36925 1.111688,-2.47887 2.480936,-2.47804 0.579201,0 1.139799,0.2034 1.585053,0.57382 -0.02026,0.0108 -0.05499,0.0302 -0.07814,0.0442 l -2.634315,1.52139 c -0.134775,0.0765 -0.217459,0.21952 -0.216632,0.37455 l -0.0017,3.7121 z m 0.604833,-1.30393 1.432502,-0.82725 1.432501,0.82684 v 1.6541 l -1.432501,0.82684 -1.432502,-0.82684 z"
           id="path144"
           style="fill:#ffffff;stroke:#ffffff;stroke-width:0.041342" /><g
           aria-label="OpenAI"
           transform="scale(0.94480219,1.0584226)"
           id="text452-5"
           style="font-weight:bold;font-size:9.04369px;font-family:'Century Gothic';-inkscape-font-specification:'Century Gothic, Bold';text-align:center;text-anchor:middle;fill:#ffffff;fill-rule:evenodd;stroke:#ffffff;stroke-width:0.132292;stroke-linecap:round"><path
             d="m 83.108336,246.49737 q -0.995504,0 -1.793786,-0.43201 -0.798282,-0.4414 -1.258468,-1.21151 -0.450794,-0.7701 -0.450794,-1.71865 0,-0.94855 0.450794,-1.71865 0.460186,-0.77011 1.258468,-1.20212 0.798282,-0.44141 1.793786,-0.44141 0.986113,0 1.784394,0.44141 0.798282,0.43201 1.249077,1.20212 0.450794,0.76071 0.450794,1.71865 0,0.95794 -0.450794,1.72804 -0.450795,0.76072 -1.249077,1.20212 -0.798281,0.43201 -1.784394,0.43201 z m 0,-0.83584 q 0.723149,0 1.296034,-0.32871 0.582276,-0.3287 0.91098,-0.90159 0.338096,-0.58227 0.338096,-1.29603 0,-0.71376 -0.338096,-1.28664 -0.328704,-0.58228 -0.91098,-0.91098 -0.572885,-0.32871 -1.296034,-0.32871 -0.723149,0 -1.314817,0.32871 -0.582276,0.3287 -0.920372,0.91098 -0.328704,0.57288 -0.328704,1.28664 0,0.71376 0.328704,1.29603 0.338096,0.57289 0.920372,0.90159 0.591668,0.32871 1.314817,0.32871 z"
             style="font-weight:500;font-size:9.39155px;font-family:Montserrat;-inkscape-font-specification:'Montserrat, Medium';fill:#ffffff;stroke:#ffffff"
             id="path5759" /><path
             d="m 90.537054,241.39776 q 0.723149,0 1.296034,0.31931 0.572884,0.31932 0.892197,0.8922 0.328704,0.57289 0.328704,1.32421 0,0.75132 -0.328704,1.3336 -0.319313,0.57289 -0.892197,0.8922 -0.572885,0.31931 -1.296034,0.31931 -0.535319,0 -0.986113,-0.20661 -0.441403,-0.20662 -0.751324,-0.60106 v 2.57328 h -0.901589 v -6.79948 h 0.864023 v 0.78889 q 0.300529,-0.41323 0.760715,-0.61984 0.460186,-0.21601 1.014288,-0.21601 z m -0.07513,4.29194 q 0.478969,0 0.854631,-0.21601 0.385054,-0.22539 0.60106,-0.61984 0.225397,-0.40383 0.225397,-0.92037 0,-0.51653 -0.225397,-0.91098 -0.216006,-0.40384 -0.60106,-0.61984 -0.375662,-0.21601 -0.854631,-0.21601 -0.469577,0 -0.854631,0.2254 -0.375662,0.216 -0.601059,0.61045 -0.216006,0.39445 -0.216006,0.91098 0,0.51654 0.216006,0.92037 0.216006,0.39445 0.601059,0.61984 0.385054,0.21601 0.854631,0.21601 z"
             style="font-weight:500;font-size:9.39155px;font-family:Montserrat;-inkscape-font-specification:'Montserrat, Medium';fill:#ffffff;stroke:#ffffff"
             id="path5761" /><path
             d="m 98.801611,243.96166 q 0,0.1033 -0.01878,0.27235 h -4.038367 q 0.08452,0.65741 0.572885,1.06125 0.497752,0.39444 1.230293,0.39444 0.892197,0 1.436907,-0.60106 l 0.497752,0.58228 q -0.338096,0.39444 -0.845239,0.60106 -0.497753,0.20661 -1.117595,0.20661 -0.78889,0 -1.399341,-0.31931 -0.610451,-0.32871 -0.948546,-0.91098 -0.328705,-0.58228 -0.328705,-1.31482 0,-0.72315 0.319313,-1.30543 0.328704,-0.58227 0.892197,-0.90158 0.572885,-0.32871 1.286643,-0.32871 0.713757,0 1.267859,0.32871 0.563493,0.31931 0.873414,0.90158 0.319313,0.58228 0.319313,1.33361 z m -2.460586,-1.80318 q -0.648017,0 -1.08942,0.39444 -0.432011,0.39445 -0.507144,1.03307 h 3.193127 q -0.07513,-0.62923 -0.516535,-1.02368 -0.432011,-0.40383 -1.080028,-0.40383 z"
             style="font-weight:500;font-size:9.39155px;font-family:Montserrat;-inkscape-font-specification:'Montserrat, Medium';fill:#ffffff;stroke:#ffffff"
             id="path5763" /><path
             d="m 102.70849,241.39776 q 0.94855,0 1.50265,0.5541 0.56349,0.54471 0.56349,1.60596 v 2.86442 h -0.90159 v -2.76111 q 0,-0.72315 -0.34748,-1.08942 -0.34749,-0.36627 -0.99551,-0.36627 -0.73254,0 -1.15516,0.43201 -0.42262,0.42262 -0.42262,1.2209 v 2.56389 h -0.90159 v -4.97752 h 0.86402 v 0.75132 q 0.27236,-0.38505 0.73255,-0.59166 0.46957,-0.20662 1.06124,-0.20662 z"
             style="font-weight:500;font-size:9.39155px;font-family:Montserrat;-inkscape-font-specification:'Montserrat, Medium';fill:#ffffff;stroke:#ffffff"
             id="path5765" /><path
             d="m 110.76644,244.77872 h -3.49366 l -0.72315,1.64352 h -0.96733 l 2.97712,-6.57408 h 0.92977 l 2.98651,6.57408 h -0.98611 z m -0.32871,-0.75132 -1.41812,-3.22131 -1.41812,3.22131 z"
             style="font-weight:500;font-size:9.39155px;font-family:Montserrat;-inkscape-font-specification:'Montserrat, Medium';fill:#ffffff;stroke:#ffffff"
             id="path5767" /><path
             d="m 113.45242,239.84816 h 0.93916 v 6.57408 h -0.93916 z"
             style="font-weight:500;font-size:9.39155px;font-family:Montserrat;-inkscape-font-specification:'Montserrat, Medium';fill:#ffffff;stroke:#ffffff"
             id="path5769" /></g></g></g></g></svg>
