<?xml version="1.0" encoding="UTF-8" standalone="no"?>
<!-- Created with Inkscape (http://www.inkscape.org/) -->

<svg
   width="48.021255mm"
   height="13.229168mm"
   viewBox="0 0 48.021256 13.229168"
   version="1.1"
   id="svg5"
   xml:space="preserve"
   inkscape:version="1.2.2 (732a01da63, 2022-12-09)"
   sodipodi:docname="openai.svg"
   xmlns:inkscape="http://www.inkscape.org/namespaces/inkscape"
   xmlns:sodipodi="http://sodipodi.sourceforge.net/DTD/sodipodi-0.dtd"
   xmlns="http://www.w3.org/2000/svg"
   xmlns:svg="http://www.w3.org/2000/svg"><sodipodi:namedview
     id="namedview7"
     pagecolor="#ffffff"
     bordercolor="#000000"
     borderopacity="0.25"
     inkscape:showpageshadow="2"
     inkscape:pageopacity="0.0"
     inkscape:pagecheckerboard="0"
     inkscape:deskcolor="#d1d1d1"
     inkscape:document-units="mm"
     showgrid="false"
     inkscape:zoom="4.3439847"
     inkscape:cx="89.894423"
     inkscape:cy="-2.7624407"
     inkscape:window-width="1920"
     inkscape:window-height="1017"
     inkscape:window-x="-8"
     inkscape:window-y="1072"
     inkscape:window-maximized="1"
     inkscape:current-layer="layer1" /><defs
     id="defs2" /><g
     inkscape:label="Layer 1"
     inkscape:groupmode="layer"
     id="layer1"
     transform="translate(44.787703,-106.16757)"><g
       id="g159"
       transform="matrix(0.04134203,0,0,0.04134203,-44.875753,106.16763)"
       style="fill:#ffffff"><path
         d="m 367.44,153.84 c 0,52.32 33.6,88.8 80.16,88.8 46.56,0 80.16,-36.48 80.16,-88.8 0,-52.32 -33.6,-88.8 -80.16,-88.8 -46.56,0 -80.16,36.48 -80.16,88.8 z m 129.6,0 c 0,37.44 -20.4,61.68 -49.44,61.68 -29.04,0 -49.44,-24.24 -49.44,-61.68 0,-37.44 20.4,-61.68 49.44,-61.68 29.04,0 49.44,24.24 49.44,61.68 z"
         id="path132"
         style="fill:#ffffff" /><path
         d="m 614.27,242.64 c 35.28,0 55.44,-29.76 55.44,-65.52 0,-35.76 -20.16,-65.52 -55.44,-65.52 -16.32,0 -28.32,6.48 -36.24,15.84 V 114 h -28.8 v 169.2 h 28.8 v -56.4 c 7.92,9.36 19.92,15.84 36.24,15.84 z m -36.96,-69.12 c 0,-23.76 13.44,-36.72 31.2,-36.72 20.88,0 32.16,16.32 32.16,40.32 0,24 -11.28,40.32 -32.16,40.32 -17.76,0 -31.2,-13.2 -31.2,-36.48 z"
         id="path134"
         style="fill:#ffffff" /><path
         d="m 747.65,242.64 c 25.2,0 45.12,-13.2 54,-35.28 L 776.93,198 c -3.84,12.96 -15.12,20.16 -29.28,20.16 -18.48,0 -31.44,-13.2 -33.6,-34.8 h 88.32 v -9.6 c 0,-34.56 -19.44,-62.16 -55.92,-62.16 -36.48,0 -60,28.56 -60,65.52 0,38.88 25.2,65.52 61.2,65.52 z m -1.44,-106.8 c 18.24,0 26.88,12 27.12,25.92 h -57.84 c 4.32,-17.04 15.84,-25.92 30.72,-25.92 z"
         id="path136"
         style="fill:#ffffff" /><path
         d="m 823.98,240 h 28.8 v -73.92 c 0,-18 13.2,-27.6 26.16,-27.6 15.84,0 22.08,11.28 22.08,26.88 V 240 h 28.8 v -83.04 c 0,-27.12 -15.84,-45.36 -42.24,-45.36 -16.32,0 -27.6,7.44 -34.8,15.84 V 114 h -28.8 z"
         id="path138"
         style="fill:#ffffff" /><path
         d="M 1014.17,67.68 948.89,240 h 30.48 l 14.64,-39.36 h 74.4 l 14.88,39.36 h 30.96 L 1048.97,67.68 Z m 16.8,34.08 27.36,72 h -54.24 z"
         id="path140"
         style="fill:#ffffff" /><path
         d="m 1163.69,68.18 h -30.72 V 240.5 h 30.72 z"
         id="path142"
         style="fill:#ffffff" /><path
         d="m 297.06,130.97 c 7.26,-21.79 4.76,-45.66 -6.85,-65.48 C 272.75,35.09 237.65,19.45 203.37,26.81 188.12,9.63 166.21,-0.14 143.24,0 108.2,-0.08 77.11,22.48 66.33,55.82 43.82,60.43 24.39,74.52 13.02,94.49 c -17.59,30.32 -13.58,68.54 9.92,94.54 -7.26,21.79 -4.76,45.66 6.85,65.48 17.46,30.4 52.56,46.04 86.84,38.68 15.24,17.18 37.16,26.95 60.13,26.8 35.06,0.09 66.16,-22.49 76.94,-55.86 22.51,-4.61 41.94,-18.7 53.31,-38.67 17.57,-30.32 13.55,-68.51 -9.94,-94.51 z M 176.78,299.08 c -14.03,0.02 -27.62,-4.89 -38.39,-13.88 0.49,-0.26 1.34,-0.73 1.89,-1.07 L 204,247.33 c 3.26,-1.85 5.26,-5.32 5.24,-9.07 v -89.83 l 26.93,15.55 c 0.29,0.14 0.48,0.42 0.52,0.74 v 74.39 c -0.04,33.08 -26.83,59.9 -59.91,59.97 z M 47.94,244.05 c -7.03,-12.14 -9.56,-26.37 -7.15,-40.18 0.47,0.28 1.3,0.79 1.89,1.13 l 63.72,36.8 c 3.23,1.89 7.23,1.89 10.47,0 l 77.79,-44.92 v 31.1 c 0.02,0.32 -0.13,0.63 -0.38,0.83 L 129.87,266 c -28.69,16.52 -65.33,6.7 -81.92,-21.95 z M 31.17,104.96 c 7,-12.16 18.05,-21.46 31.21,-26.29 0,0.55 -0.03,1.52 -0.03,2.2 v 73.61 c -0.02,3.74 1.98,7.21 5.23,9.06 l 77.79,44.91 -26.93,15.55 c -0.27,0.18 -0.61,0.21 -0.91,0.08 L 53.11,186.86 C 24.48,170.28 14.66,133.65 31.16,104.97 Z m 221.26,51.49 -77.79,-44.92 26.93,-15.54 c 0.27,-0.18 0.61,-0.21 0.91,-0.08 l 64.42,37.19 c 28.68,16.57 38.51,53.26 21.94,81.94 -7.01,12.14 -18.05,21.44 -31.2,26.28 v -75.81 c 0.03,-3.74 -1.96,-7.2 -5.2,-9.06 z m 26.8,-40.34 c -0.47,-0.29 -1.3,-0.79 -1.89,-1.13 l -63.72,-36.8 c -3.23,-1.89 -7.23,-1.89 -10.47,0 L 125.36,123.1 V 92 c -0.02,-0.32 0.13,-0.63 0.38,-0.83 l 64.41,-37.16 c 28.69,-16.55 65.37,-6.7 81.91,22 6.99,12.12 9.52,26.31 7.15,40.1 z M 110.72,171.54 83.78,155.99 c -0.29,-0.14 -0.48,-0.42 -0.52,-0.74 V 80.86 c 0.02,-33.12 26.89,-59.96 60.01,-59.94 14.01,0 27.57,4.92 38.34,13.88 -0.49,0.26 -1.33,0.73 -1.89,1.07 L 116,72.67 c -3.26,1.85 -5.26,5.31 -5.24,9.06 l -0.04,89.79 z M 125.35,140 160,119.99 l 34.65,20 V 180 L 160,200 125.35,180 Z"
         id="path144"
         style="fill:#ffffff" /></g></g></svg>
