<?xml version="1.0" encoding="UTF-8" standalone="no"?>
<!-- Created with Inkscape (http://www.inkscape.org/) -->

<svg
   width="47.542358mm"
   height="13.777618mm"
   viewBox="0 0 47.542358 13.777618"
   version="1.1"
   id="svg5"
   xml:space="preserve"
   inkscape:version="1.2.2 (732a01da63, 2022-12-09)"
   sodipodi:docname="test.svg"
   xmlns:inkscape="http://www.inkscape.org/namespaces/inkscape"
   xmlns:sodipodi="http://sodipodi.sourceforge.net/DTD/sodipodi-0.dtd"
   xmlns="http://www.w3.org/2000/svg"
   xmlns:svg="http://www.w3.org/2000/svg"><sodipodi:namedview
     id="namedview7"
     pagecolor="#ffffff"
     bordercolor="#000000"
     borderopacity="0.25"
     inkscape:showpageshadow="2"
     inkscape:pageopacity="0.0"
     inkscape:pagecheckerboard="0"
     inkscape:deskcolor="#d1d1d1"
     inkscape:document-units="mm"
     showgrid="false"
     inkscape:zoom="2.1719924"
     inkscape:cx="307.32152"
     inkscape:cy="921.27394"
     inkscape:window-width="1920"
     inkscape:window-height="1017"
     inkscape:window-x="-8"
     inkscape:window-y="1072"
     inkscape:window-maximized="1"
     inkscape:current-layer="g159" /><defs
     id="defs2" /><g
     inkscape:label="Layer 1"
     inkscape:groupmode="layer"
     id="layer1"
     transform="translate(-102.37747,-276.24807)"><g
       id="g5131"
       style="fill:#ffffff;stroke:#ffffff"
       inkscape:export-filename="..\Documents\pytorch.svg"
       inkscape:export-xdpi="96"
       inkscape:export-ydpi="96"><g
         transform="matrix(0.45735756,0,0,0.45735756,93.264546,276.27073)"
         fill="#ee4c2c"
         id="g4708"
         style="fill:#ffffff;stroke:#ffffff;stroke-width:0.703809"><path
           d="m 40.8,9.3 -2.1,2.1 c 3.5,3.5 3.5,9.2 0,12.7 -3.5,3.5 -9.2,3.5 -12.7,0 -3.5,-3.5 -3.5,-9.2 0,-12.7 L 31.6,5.8 32.3,5 V 0.8 l -8.5,8.5 a 11.89,11.89 0 0 0 0,16.9 11.89,11.89 0 0 0 16.9,0 c 4.8,-4.7 4.8,-12.3 0.1,-16.9 z"
           id="path4704"
           style="fill:#ffffff;stroke:#ffffff;stroke-width:0.703809" /><path
           id="circle4706"
           d="m 38.199998,7.0999999 a 1.6,1.6 0 0 1 -1.6,1.6 1.6,1.6 0 0 1 -1.6,-1.6 1.6,1.6 0 0 1 1.6,-1.6 1.6,1.6 0 0 1 1.6,1.6 z"
           style="fill:#ffffff;stroke:#ffffff" /></g><g
         aria-label="PyTorch"
         transform="scale(0.94480219,1.0584226)"
         id="text452-5-7"
         style="font-weight:bold;font-size:9.04369px;font-family:'Century Gothic';-inkscape-font-specification:'Century Gothic, Bold';text-align:center;text-anchor:middle;fill:#ffffff;fill-rule:evenodd;stroke:#ffffff;stroke-width:0.132292;stroke-linecap:round"><path
           d="m 125.00006,263.58738 q 1.27725,0 2.00979,0.61045 0.73254,0.61045 0.73254,1.68109 0,1.07064 -0.73254,1.68109 -0.73254,0.61045 -2.00979,0.61045 h -1.62474 v 1.99101 h -0.93916 v -6.57409 z m -0.0282,3.76602 q 0.8922,0 1.36178,-0.37567 0.46957,-0.38505 0.46957,-1.09881 0,-0.71376 -0.46957,-1.08942 -0.46958,-0.38505 -1.36178,-0.38505 h -1.59656 v 2.94895 z"
           style="font-weight:500;font-size:9.39155px;font-family:Montserrat;-inkscape-font-specification:'Montserrat, Medium';fill:#ffffff;stroke:#ffffff"
           id="path5773" /><path
           d="m 133.42428,265.18395 -2.41363,5.47527 q -0.31931,0.76072 -0.75132,1.07064 -0.42262,0.30992 -1.02368,0.30992 -0.36627,0 -0.71376,-0.12209 -0.3381,-0.1127 -0.56349,-0.3381 l 0.38505,-0.67619 q 0.38505,0.36627 0.8922,0.36627 0.3287,0 0.54471,-0.17844 0.22539,-0.16905 0.40383,-0.59167 l 0.15966,-0.34748 -2.19762,-4.96813 h 0.93915 l 1.73744,3.98201 1.71865,-3.98201 z"
           style="font-weight:500;font-size:9.39155px;font-family:Montserrat;-inkscape-font-specification:'Montserrat, Medium';fill:#ffffff;stroke:#ffffff"
           id="path5775" /><path
           d="m 135.33075,264.40445 h -2.25397 v -0.81707 h 5.43771 v 0.81707 h -2.25397 v 5.75702 h -0.92977 z"
           style="font-weight:500;font-size:9.39155px;font-family:Montserrat;-inkscape-font-specification:'Montserrat, Medium';fill:#ffffff;stroke:#ffffff"
           id="path5777" /><path
           d="m 141.02203,270.21782 q -0.74193,0 -1.3336,-0.32871 -0.59167,-0.3287 -0.92976,-0.90159 -0.32871,-0.58227 -0.32871,-1.31481 0,-0.73254 0.32871,-1.30543 0.33809,-0.58227 0.92976,-0.90159 0.59167,-0.3287 1.3336,-0.3287 0.74193,0 1.32421,0.3287 0.59167,0.31932 0.92037,0.90159 0.3381,0.57289 0.3381,1.30543 0,0.73254 -0.3381,1.31481 -0.3287,0.57289 -0.92037,0.90159 -0.58228,0.32871 -1.32421,0.32871 z m 0,-0.78889 q 0.47897,0 0.85463,-0.21601 0.38505,-0.2254 0.60106,-0.61984 0.21601,-0.40384 0.21601,-0.92037 0,-0.51654 -0.21601,-0.91098 -0.21601,-0.40384 -0.60106,-0.61984 -0.37566,-0.21601 -0.85463,-0.21601 -0.47897,0 -0.86402,0.21601 -0.37567,0.216 -0.60106,0.61984 -0.21601,0.39444 -0.21601,0.91098 0,0.51653 0.21601,0.92037 0.22539,0.39444 0.60106,0.61984 0.38505,0.21601 0.86402,0.21601 z"
           style="font-weight:500;font-size:9.39155px;font-family:Montserrat;-inkscape-font-specification:'Montserrat, Medium';fill:#ffffff;stroke:#ffffff"
           id="path5779" /><path
           d="m 145.71781,266.01979 q 0.23479,-0.43201 0.69497,-0.6574 0.46019,-0.2254 1.1176,-0.2254 v 0.87341 q -0.0751,-0.009 -0.20662,-0.009 -0.73254,0 -1.15516,0.4414 -0.41323,0.43202 -0.41323,1.23969 v 2.47937 h -0.90159 v -4.97752 h 0.86403 z"
           style="font-weight:500;font-size:9.39155px;font-family:Montserrat;-inkscape-font-specification:'Montserrat, Medium';fill:#ffffff;stroke:#ffffff"
           id="path5781" /><path
           d="m 150.76108,270.21782 q -0.76072,0 -1.36178,-0.32871 -0.59167,-0.3287 -0.92976,-0.90159 -0.3381,-0.58227 -0.3381,-1.31481 0,-0.73254 0.3381,-1.30543 0.33809,-0.58227 0.92976,-0.90159 0.60106,-0.3287 1.36178,-0.3287 0.67619,0 1.20211,0.27235 0.53532,0.27236 0.82646,0.78889 l -0.68558,0.44141 q -0.23479,-0.35688 -0.58228,-0.53532 -0.34749,-0.17844 -0.77011,-0.17844 -0.48836,0 -0.8828,0.21601 -0.38505,0.216 -0.61045,0.61984 -0.21601,0.39444 -0.21601,0.91098 0,0.52592 0.21601,0.92976 0.2254,0.39445 0.61045,0.61045 0.39444,0.21601 0.8828,0.21601 0.42262,0 0.77011,-0.17844 0.34749,-0.17844 0.58228,-0.53532 l 0.68558,0.43201 q -0.29114,0.51654 -0.82646,0.79828 -0.52592,0.27236 -1.20211,0.27236 z"
           style="font-weight:500;font-size:9.39155px;font-family:Montserrat;-inkscape-font-specification:'Montserrat, Medium';fill:#ffffff;stroke:#ffffff"
           id="path5783" /><path
           d="m 156.54626,265.13699 q 0.94855,0 1.50265,0.5541 0.56349,0.54471 0.56349,1.60596 v 2.86442 h -0.90159 v -2.76112 q 0,-0.72315 -0.34748,-1.08942 -0.34749,-0.36627 -0.99551,-0.36627 -0.73254,0 -1.15516,0.43201 -0.42262,0.42262 -0.42262,1.22091 v 2.56389 h -0.90159 v -6.96853 h 0.90159 v 2.69537 q 0.28175,-0.35688 0.73254,-0.5541 0.46019,-0.19722 1.02368,-0.19722 z"
           style="font-weight:500;font-size:9.39155px;font-family:Montserrat;-inkscape-font-specification:'Montserrat, Medium';fill:#ffffff;stroke:#ffffff"
           id="path5785" /></g></g></g></svg>
