<?xml version="1.0" encoding="UTF-8" standalone="no"?>
<!-- Created with Inkscape (http://www.inkscape.org/) -->

<svg
   width="66.119232mm"
   height="13.500519mm"
   viewBox="0 0 66.119232 13.500519"
   version="1.1"
   id="svg5"
   xml:space="preserve"
   inkscape:version="1.2.2 (732a01da63, 2022-12-09)"
   sodipodi:docname="test.svg"
   xmlns:inkscape="http://www.inkscape.org/namespaces/inkscape"
   xmlns:sodipodi="http://sodipodi.sourceforge.net/DTD/sodipodi-0.dtd"
   xmlns="http://www.w3.org/2000/svg"
   xmlns:svg="http://www.w3.org/2000/svg"><sodipodi:namedview
     id="namedview7"
     pagecolor="#ffffff"
     bordercolor="#000000"
     borderopacity="0.25"
     inkscape:showpageshadow="2"
     inkscape:pageopacity="0.0"
     inkscape:pagecheckerboard="0"
     inkscape:deskcolor="#d1d1d1"
     inkscape:document-units="mm"
     showgrid="false"
     inkscape:zoom="2.1719924"
     inkscape:cx="307.32152"
     inkscape:cy="921.27394"
     inkscape:window-width="1920"
     inkscape:window-height="1017"
     inkscape:window-x="-8"
     inkscape:window-y="1072"
     inkscape:window-maximized="1"
     inkscape:current-layer="g159" /><defs
     id="defs2" /><g
     inkscape:label="Layer 1"
     inkscape:groupmode="layer"
     id="layer1"
     transform="translate(-29.700728,-269.13122)"><g
       id="g5124"
       inkscape:export-filename="..\Documents\tensorflow.svg"
       inkscape:export-xdpi="96"
       inkscape:export-ydpi="96"
       style="fill:#000000;stroke:#ffffff"><g
         id="g5803"><g
           id="g2875"
           transform="matrix(0.4078399,0,0,0.40951577,20.978057,161.92598)"
           style="fill:#ffffff;stroke:#ffffff;stroke-width:2.44692"><path
             style="fill:#ffffff;fill-opacity:1;stroke:#ffffff;stroke-width:0.323708;stroke-dasharray:none"
             d="m 39.031575,266.97194 v 5.00021 l 8.659933,5.00021 v -5.00021 z m -17.320389,5.00021 v 5.00021 l 4.329967,2.4996 v -4.9997 z m 12.989903,2.50011 -4.329967,2.5001 v 14.99961 l 4.329967,2.5001 v -9.99991 l 4.330486,2.50011 v -5.00021 l -4.330486,-2.5001 z"
             id="path4508" /><path
             style="fill:#ffffff;fill-opacity:1;stroke:#ffffff;stroke-width:0.323708;stroke-dasharray:none"
             d="m 39.031575,266.97194 -12.990422,7.50032 v 4.9997 l 8.659936,-4.9997 v 4.9997 l 4.330486,-2.4996 z m 12.990423,2.50011 -4.33049,2.5001 v 5.00021 l 4.33049,-2.5001 z m -8.660456,9.99991 -4.329967,2.5001 v 5.00021 l 4.329967,-2.50011 z m -4.329967,7.50031 -4.330486,-2.50011 v 9.99991 l 4.330486,-2.5001 z"
             id="path4491" /><path
             style="fill:#ffffff;fill-opacity:1;stroke:#ffffff;stroke-width:0.323708;stroke-dasharray:none"
             d="m 39.031575,261.97225 -17.320389,9.9999 4.329967,2.50011 12.990422,-7.50032 8.659933,5.00021 4.33049,-2.5001 z m 0,15.00011 -4.330486,2.4996 4.330486,2.5001 4.329967,-2.5001 z"
             id="path4506" /></g><g
           aria-label="TensorFlow"
           transform="scale(0.94480219,1.0584226)"
           id="text452"
           style="font-weight:bold;font-size:9.04369px;font-family:'Century Gothic';-inkscape-font-specification:'Century Gothic, Bold';text-align:center;text-anchor:middle;fill-rule:evenodd;stroke-width:0.132292;stroke-linecap:round"><path
             d="m 49.274724,258.35251 h -2.253972 v -0.81707 h 5.437708 v 0.81707 h -2.253972 v 5.75702 h -0.929764 z"
             style="font-weight:500;font-size:9.39155px;font-family:Montserrat;-inkscape-font-specification:'Montserrat, Medium';fill:#ffffff;stroke:#ffffff"
             id="path5738" /><path
             d="m 57.33267,261.64894 q 0,0.10331 -0.01878,0.27236 h -4.038366 q 0.08452,0.6574 0.572884,1.06124 0.497752,0.39445 1.230293,0.39445 0.892198,0 1.436907,-0.60106 l 0.497753,0.58227 q -0.338096,0.39445 -0.84524,0.60106 -0.497752,0.20662 -1.117594,0.20662 -0.788891,0 -1.399341,-0.31932 -0.610451,-0.3287 -0.948547,-0.91098 -0.328704,-0.58227 -0.328704,-1.31481 0,-0.72315 0.319313,-1.30543 0.328704,-0.58227 0.892197,-0.90159 0.572884,-0.3287 1.286642,-0.3287 0.713758,0 1.267859,0.3287 0.563493,0.31932 0.873415,0.90159 0.319312,0.58228 0.319312,1.3336 z m -2.460586,-1.80318 q -0.648017,0 -1.08942,0.39445 -0.432011,0.39444 -0.507143,1.03307 h 3.193127 q -0.07513,-0.62923 -0.516536,-1.02368 -0.432011,-0.40384 -1.080028,-0.40384 z"
             style="font-weight:500;font-size:9.39155px;font-family:Montserrat;-inkscape-font-specification:'Montserrat, Medium';fill:#ffffff;stroke:#ffffff"
             id="path5740" /><path
             d="m 61.239551,259.08505 q 0.948546,0 1.502648,0.5541 0.563493,0.54471 0.563493,1.60595 v 2.86443 h -0.901589 v -2.76112 q 0,-0.72315 -0.347487,-1.08942 -0.347488,-0.36627 -0.995505,-0.36627 -0.73254,0 -1.15516,0.43201 -0.42262,0.42262 -0.42262,1.2209 v 2.5639 h -0.901589 v -4.97752 h 0.864023 v 0.75132 q 0.272355,-0.38505 0.732541,-0.59167 0.469577,-0.20661 1.061245,-0.20661 z"
             style="font-weight:500;font-size:9.39155px;font-family:Montserrat;-inkscape-font-specification:'Montserrat, Medium';fill:#ffffff;stroke:#ffffff"
             id="path5742" /><path
             d="m 66.404901,264.16588 q -0.610451,0 -1.173944,-0.15966 -0.563493,-0.16905 -0.882805,-0.42262 l 0.375662,-0.71376 q 0.328704,0.23479 0.798281,0.37566 0.469578,0.14088 0.948547,0.14088 1.183335,0 1.183335,-0.67619 0,-0.2254 -0.159656,-0.35688 -0.159656,-0.13148 -0.403837,-0.18783 -0.234789,-0.0657 -0.676191,-0.14088 -0.60106,-0.0939 -0.986113,-0.216 -0.375662,-0.12209 -0.648017,-0.41323 -0.272355,-0.29114 -0.272355,-0.81707 0,-0.67619 0.563493,-1.08002 0.563493,-0.41323 1.51204,-0.41323 0.497752,0 0.995504,0.12209 0.497752,0.12209 0.817065,0.3287 l -0.385054,0.71376 q -0.610451,-0.39444 -1.436907,-0.39444 -0.572885,0 -0.873414,0.18783 -0.30053,0.18783 -0.30053,0.49775 0,0.24418 0.169048,0.38505 0.169048,0.14088 0.413228,0.20662 0.253572,0.0657 0.704367,0.15026 0.601059,0.10331 0.967329,0.2254 0.375662,0.1127 0.638626,0.39444 0.262963,0.28175 0.262963,0.78889 0,0.6762 -0.582276,1.08003 -0.572885,0.39445 -1.568389,0.39445 z"
             style="font-weight:500;font-size:9.39155px;font-family:Montserrat;-inkscape-font-specification:'Montserrat, Medium';fill:#ffffff;stroke:#ffffff"
             id="path5744" /><path
             d="m 71.814429,264.16588 q -0.741932,0 -1.3336,-0.32871 -0.591667,-0.3287 -0.929763,-0.90159 -0.328704,-0.58227 -0.328704,-1.31481 0,-0.73254 0.328704,-1.30543 0.338096,-0.58227 0.929763,-0.90159 0.591668,-0.3287 1.3336,-0.3287 0.741933,0 1.324209,0.3287 0.591668,0.31932 0.920372,0.90159 0.338096,0.57289 0.338096,1.30543 0,0.73254 -0.338096,1.31481 -0.328704,0.57289 -0.920372,0.90159 -0.582276,0.32871 -1.324209,0.32871 z m 0,-0.78889 q 0.478969,0 0.854631,-0.21601 0.385054,-0.2254 0.60106,-0.61984 0.216005,-0.40384 0.216005,-0.92037 0,-0.51654 -0.216005,-0.91098 -0.216006,-0.40384 -0.60106,-0.61985 -0.375662,-0.216 -0.854631,-0.216 -0.478969,0 -0.864022,0.216 -0.375662,0.21601 -0.601059,0.61985 -0.216006,0.39444 -0.216006,0.91098 0,0.51653 0.216006,0.92037 0.225397,0.39444 0.601059,0.61984 0.385053,0.21601 0.864022,0.21601 z"
             style="font-weight:500;font-size:9.39155px;font-family:Montserrat;-inkscape-font-specification:'Montserrat, Medium';fill:#ffffff;stroke:#ffffff"
             id="path5746" /><path
             d="m 76.510205,259.96785 q 0.234788,-0.43201 0.694974,-0.6574 0.460186,-0.2254 1.117595,-0.2254 v 0.87341 q -0.07513,-0.009 -0.206614,-0.009 -0.732541,0 -1.155161,0.4414 -0.413228,0.43202 -0.413228,1.23969 v 2.47937 h -0.901589 v -4.97752 h 0.864023 z"
             style="font-weight:500;font-size:9.39155px;font-family:Montserrat;-inkscape-font-specification:'Montserrat, Medium';fill:#ffffff;stroke:#ffffff"
             id="path5748" /><path
             d="m 80.454663,258.35251 v 2.29154 h 3.296434 v 0.80767 h -3.296434 v 2.65781 h -0.939155 v -6.57409 h 4.639426 v 0.81707 z"
             style="font-weight:500;font-size:9.39155px;font-family:Montserrat;-inkscape-font-specification:'Montserrat, Medium';fill:#ffffff;stroke:#ffffff"
             id="path5750" /><path
             d="m 85.347663,257.141 h 0.901589 v 6.96853 h -0.901589 z"
             style="font-weight:500;font-size:9.39155px;font-family:Montserrat;-inkscape-font-specification:'Montserrat, Medium';fill:#ffffff;stroke:#ffffff"
             id="path5752" /><path
             d="m 90.09978,264.16588 q -0.741932,0 -1.3336,-0.32871 -0.591668,-0.3287 -0.929763,-0.90159 -0.328705,-0.58227 -0.328705,-1.31481 0,-0.73254 0.328705,-1.30543 0.338095,-0.58227 0.929763,-0.90159 0.591668,-0.3287 1.3336,-0.3287 0.741933,0 1.324209,0.3287 0.591667,0.31932 0.920372,0.90159 0.338095,0.57289 0.338095,1.30543 0,0.73254 -0.338095,1.31481 -0.328705,0.57289 -0.920372,0.90159 -0.582276,0.32871 -1.324209,0.32871 z m 0,-0.78889 q 0.478969,0 0.854631,-0.21601 0.385054,-0.2254 0.601059,-0.61984 0.216006,-0.40384 0.216006,-0.92037 0,-0.51654 -0.216006,-0.91098 -0.216005,-0.40384 -0.601059,-0.61985 -0.375662,-0.216 -0.854631,-0.216 -0.478969,0 -0.864022,0.216 -0.375662,0.21601 -0.60106,0.61985 -0.216005,0.39444 -0.216005,0.91098 0,0.51653 0.216005,0.92037 0.225398,0.39444 0.60106,0.61984 0.385053,0.21601 0.864022,0.21601 z"
             style="font-weight:500;font-size:9.39155px;font-family:Montserrat;-inkscape-font-specification:'Montserrat, Medium';fill:#ffffff;stroke:#ffffff"
             id="path5754" /><path
             d="m 101.32269,259.13201 -1.859526,4.97752 h -0.864023 l -1.436907,-3.77541 -1.45569,3.77541 h -0.864023 l -1.850135,-4.97752 h 0.854631 l 1.446298,3.96323 1.502648,-3.96323 h 0.760716 l 1.474473,3.98201 1.483868,-3.98201 z"
             style="font-weight:500;font-size:9.39155px;font-family:Montserrat;-inkscape-font-specification:'Montserrat, Medium';fill:#ffffff;stroke:#ffffff"
             id="path5756" /></g></g></g></g></svg>
