<?xml version="1.0" encoding="UTF-8" standalone="no"?>
<!-- Created with Inkscape (http://www.inkscape.org/) -->

<svg
   width="11.454489mm"
   height="15.874998mm"
   viewBox="0 0 11.454489 15.874998"
   version="1.1"
   id="svg5"
   xml:space="preserve"
   sodipodi:docname="logorecognize-black.svg"
   inkscape:version="1.2.2 (732a01da63, 2022-12-09)"
   inkscape:export-filename="logorecognize-black.png"
   inkscape:export-xdpi="96"
   inkscape:export-ydpi="96"
   xmlns:inkscape="http://www.inkscape.org/namespaces/inkscape"
   xmlns:sodipodi="http://sodipodi.sourceforge.net/DTD/sodipodi-0.dtd"
   xmlns="http://www.w3.org/2000/svg"
   xmlns:svg="http://www.w3.org/2000/svg"><sodipodi:namedview
     id="namedview7"
     pagecolor="#ffffff"
     bordercolor="#000000"
     borderopacity="0.25"
     inkscape:showpageshadow="2"
     inkscape:pageopacity="0.0"
     inkscape:pagecheckerboard="0"
     inkscape:deskcolor="#d1d1d1"
     inkscape:document-units="mm"
     showgrid="false"
     inkscape:zoom="3.0716611"
     inkscape:cx="-61.204669"
     inkscape:cy="-9.7667025"
     inkscape:window-width="1920"
     inkscape:window-height="1017"
     inkscape:window-x="-8"
     inkscape:window-y="1072"
     inkscape:window-maximized="1"
     inkscape:current-layer="layer1" /><defs
     id="defs2" /><g
     inkscape:label="Layer 1"
     inkscape:groupmode="layer"
     id="layer1"
     transform="translate(-29.345517,-64.897212)"><path
       style="fill:#000000;stroke:#000000;stroke-width:0.183924;stroke-dasharray:none"
       d="m 34.933098,80.609171 c -0.0435,-0.06215 -0.15999,-0.09041 -0.662475,-0.160752 -0.47921,-0.06709 -0.625235,-0.07564 -0.682306,-0.04001 -0.151038,0.09432 -0.323763,0.01784 -0.29719,-0.13161 0.0177,-0.09957 -2.414397,-2.32063 -2.512912,-2.294868 -0.14508,0.03793 -0.254439,-0.176857 -0.1455,-0.285796 0.02995,-0.02996 -0.007,-0.240686 -0.1314,-0.748225 -0.0952,-0.388588 -0.253973,-1.039761 -0.352807,-1.447052 -0.125325,-0.516446 -0.195733,-0.740531 -0.232696,-0.740531 -0.02914,0 -0.0723,-0.03606 -0.09589,-0.08015 -0.0342,-0.0639 -0.02942,-0.09503 0.0236,-0.153604 0.06321,-0.06986 0.05845,-0.126015 -0.09661,-1.140089 -0.13644,-0.892357 -0.175092,-1.075024 -0.236532,-1.118057 -0.09696,-0.06792 -0.09729,-0.240383 -4.52e-4,-0.265695 0.05638,-0.0147 0.0789,-0.06849 0.09919,-0.236829 0.0144,-0.119775 0.07577,-0.572638 0.13626,-1.006376 0.06049,-0.433739 0.14676,-1.05694 0.191703,-1.384889 0.04494,-0.32795 0.131205,-0.951149 0.191702,-1.384889 0.16176,-1.159753 0.168885,-1.231012 0.123075,-1.231012 -0.06378,0 -0.09507,-0.151849 -0.04397,-0.213426 0.0255,-0.03072 0.09204,-0.05586 0.147885,-0.05586 0.14367,0 1.323394,-1.176941 1.329956,-1.326827 0.0073,-0.168813 0.176427,-0.231411 0.260663,-0.09652 0.04666,0.07471 0.08971,0.07694 1.494659,0.07694 1.397754,0 1.448963,-0.0025 1.516239,-0.07694 0.08839,-0.09768 0.159504,-0.09768 0.220506,0 0.04667,0.07471 0.08971,0.07694 1.494661,0.07694 1.397756,0 1.448962,-0.0025 1.51624,-0.07694 0.03829,-0.04232 0.09022,-0.07693 0.11541,-0.07693 0.06972,0 0.179778,0.13833 0.166047,0.208689 -0.0075,0.03849 0.223351,0.297456 0.603336,0.676773 0.491729,0.490867 0.636509,0.614468 0.719943,0.61463 0.140775,2.87e-4 0.215793,0.13221 0.12945,0.227631 -0.07956,0.08791 -0.07963,0.0866 0.05489,1.045054 0.166113,1.183527 0.249755,1.7864 0.383864,2.766778 0.06511,0.476055 0.136935,0.998159 0.159579,1.160229 0.0331,0.236886 0.0555,0.298419 0.114195,0.313769 0.09958,0.02604 0.09589,0.198262 -0.0057,0.26947 -0.06756,0.04733 -0.09801,0.180677 -0.213549,0.935057 -0.176726,1.153915 -0.188562,1.267342 -0.13566,1.300039 0.07465,0.04614 0.0514,0.219657 -0.03236,0.241561 -0.09013,0.02357 -0.06847,-0.04299 -0.304236,0.934739 -0.104595,0.433739 -0.254378,1.054234 -0.332864,1.378874 -0.12504,0.517189 -0.136395,0.602027 -0.09182,0.685333 0.0662,0.12369 0.0053,0.225283 -0.13371,0.223147 -0.08011,-0.0012 -0.358202,0.2325 -1.322309,1.111381 -1.006697,0.917707 -1.224236,1.133925 -1.240095,1.23257 -0.01509,0.09386 -0.04068,0.12213 -0.118695,0.13119 -0.05471,0.0063 -0.11886,-0.01185 -0.142576,-0.04038 -0.06826,-0.08225 -1.276103,0.100605 -1.349504,0.204301 -0.06801,0.09609 -0.211585,0.09565 -0.279133,-9.03e-4 z m 0.04296,-0.183201 c 0.07388,-0.06326 0.07735,-0.111525 0.07671,-1.067521 l -6.02e-4,-1.001265 -0.09657,-0.09161 c -0.10398,-0.09864 -0.03477,-0.09141 -3.171982,-0.331329 -0.888794,-0.06797 -0.88479,-0.06788 -0.88479,-0.02208 0,0.01971 0.548269,0.534721 1.218374,1.144455 0.858536,0.78119 1.241045,1.105567 1.295129,1.098308 0.04221,-0.0057 0.118545,0.02896 0.169608,0.07694 0.07567,0.07108 0.193738,0.10242 0.637946,0.16928 0.691027,0.10401 0.664747,0.10314 0.756231,0.02481 z m 0.981402,-0.03402 c 0.406301,-0.05385 0.513537,-0.08133 0.571755,-0.146505 0.03946,-0.04418 0.118786,-0.08021 0.17656,-0.08021 0.08373,0 0.350676,-0.224536 1.322849,-1.112707 0.66987,-0.611987 1.217945,-1.126992 1.217945,-1.144455 0,-0.04124 -0.0053,-0.04107 -0.884788,0.02613 -3.154995,0.241063 -3.111966,0.236572 -3.192516,0.333231 -0.06978,0.08373 -0.0749,0.156729 -0.07608,1.086927 -0.0012,0.889876 0.0059,1.005028 0.06483,1.070222 0.0474,0.05236 0.09914,0.06747 0.182729,0.05335 0.06414,-0.0108 0.341661,-0.04953 0.616715,-0.08598 z m -1.016757,-2.33728 c 0.08844,-0.03162 0.164821,-0.03683 0.214587,-0.01455 0.0591,0.02637 0.257453,-0.03925 0.843645,-0.279117 0.421508,-0.172476 0.943208,-0.384166 1.159333,-0.470419 0.216124,-0.08625 0.38541,-0.169038 0.376185,-0.183963 -0.01828,-0.02958 -0.124905,-0.05639 -1.384648,-0.348012 -0.745513,-0.172585 -0.861746,-0.190509 -0.975818,-0.150468 -0.10182,0.03574 -0.149175,0.03492 -0.221592,-0.0039 -0.08036,-0.04301 -0.236634,-0.01566 -1.22654,0.214601 -0.623944,0.14514 -1.134444,0.274918 -1.134444,0.288402 0,0.0135 0.108195,0.06842 0.240432,0.122055 1.459115,0.591983 1.989625,0.814872 1.974799,0.829698 -0.01851,0.01851 -0.08415,-0.0071 -1.399345,-0.546192 -0.671382,-0.275193 -0.829377,-0.327155 -0.876312,-0.288201 -0.04349,0.03609 -0.08011,0.03711 -0.152294,0.0042 -0.142335,-0.06484 -0.118875,-0.25109 0.0354,-0.280932 0.06951,-0.0135 0.157151,-0.200657 0.83495,-1.783648 l 0.115305,-0.269283 -0.11166,0.11541 c -0.06141,0.06348 -0.626525,0.70166 -1.255808,1.418192 -0.942149,1.072775 -1.134992,1.31132 -1.092273,1.351129 0.03469,0.03234 0.510447,0.08358 1.436766,0.154774 0.761689,0.05855 1.532033,0.118785 1.711876,0.13389 0.51131,0.04293 0.738939,0.03942 0.887465,-0.01365 z m 1.074461,0.01622 c 0.243315,-0.01895 1.056938,-0.08136 1.808048,-0.138705 0.867003,-0.0662 1.383713,-0.121005 1.415113,-0.150125 0.03943,-0.03657 -0.189479,-0.318216 -1.12934,-1.389533 -1.151887,-1.312998 -1.354379,-1.537445 -1.316368,-1.459084 0.0102,0.02117 0.207288,0.47761 0.437831,1.014332 0.319591,0.744037 0.438901,0.983366 0.502231,1.007444 0.107461,0.04086 0.139681,0.09594 0.110281,0.188577 -0.02972,0.09365 -0.159923,0.13782 -0.231395,0.07851 -0.04274,-0.03548 -0.262158,0.03988 -1.046437,0.359381 -0.545799,0.222345 -1.05295,0.430853 -1.127005,0.463355 l -0.134641,0.0591 0.134641,6.01e-4 c 0.07406,3.02e-4 0.333721,-0.01485 0.577038,-0.03384 z m -3.928223,-1.809396 c 0.967001,-1.101009 1.228157,-1.420373 1.212505,-1.482743 -0.0126,-0.05046 0.009,-0.10566 0.05916,-0.151095 0.07674,-0.06945 0.07912,-0.109005 0.07912,-1.319336 0,-1.246907 -3.9e-5,-1.247783 -0.08655,-1.319942 -0.07843,-0.06544 -0.161513,-0.07233 -0.885997,-0.07348 -0.675937,-0.0011 -0.802863,0.0076 -0.821586,0.05643 -0.01215,0.03174 -0.05924,0.05805 -0.10458,0.05846 -0.06766,6.03e-4 -0.207294,0.219485 -0.779183,1.221395 -0.552054,0.967154 -0.689292,1.235158 -0.66086,1.290544 0.02484,0.04839 0.01815,0.09698 -0.02176,0.157876 -0.05235,0.0799 -0.04767,0.12822 0.05104,0.526372 0.05978,0.241116 0.215992,0.879826 0.347134,1.419356 0.131145,0.539529 0.247041,0.994905 0.257554,1.011945 0.0105,0.01704 0.04217,0.02569 0.07034,0.01923 0.02817,-0.0065 0.605816,-0.643211 1.283668,-1.414999 z m 7.591427,0.325793 c 0.143445,-0.592247 0.301572,-1.245539 0.351381,-1.451759 0.07834,-0.324369 0.08308,-0.381158 0.03507,-0.421004 -0.03648,-0.03028 -0.04782,-0.08448 -0.03307,-0.1582 0.01891,-0.09461 -0.08435,-0.300756 -0.660278,-1.318156 -0.57972,-1.024097 -0.69594,-1.206252 -0.770466,-1.207584 -0.04827,-9.03e-4 -0.09772,-0.02752 -0.109905,-0.05926 -0.01871,-0.04875 -0.14694,-0.05771 -0.82588,-0.05771 -0.752442,0 -0.808645,0.005 -0.880674,0.07694 -0.07377,0.07377 -0.07693,0.128235 -0.07693,1.322472 0,1.060214 0.0085,1.252663 0.0577,1.293427 0.03174,0.02634 0.05771,0.09426 0.05771,0.150946 0,0.07729 0.12612,0.246783 0.504629,0.678115 0.277548,0.316285 0.835035,0.952169 1.238862,1.413075 0.445923,0.508953 0.757166,0.833596 0.792638,0.826766 0.04272,-0.0082 0.12846,-0.300462 0.319227,-1.088064 z m -5.894419,0.174632 c 0.898953,-0.205047 1.069679,-0.255054 1.136285,-0.332832 0.09743,-0.11376 0.247972,-0.121485 0.276037,-0.0141 0.0111,0.04254 0.0571,0.08643 0.102195,0.09752 0.593668,0.145965 2.200641,0.508285 2.210517,0.498408 0.0072,-0.0072 -0.02379,-0.03279 -0.06882,-0.05689 -0.04505,-0.0241 -0.56153,-0.350573 -1.147751,-0.725482 -0.997817,-0.638137 -1.076909,-0.681312 -1.238969,-0.67633 -0.154976,0.0048 -0.287972,0.0789 -1.269482,0.707608 -1.05458,0.675515 -1.243843,0.80488 -1.115605,0.762538 0.03174,-0.0105 0.533761,-0.127635 1.115605,-0.260357 z m 0.01245,-0.559001 c 0.625701,-0.402002 1.123844,-0.744741 1.106984,-0.761645 -0.01686,-0.0169 -0.210708,-0.06216 -0.430776,-0.10056 -0.339059,-0.05918 -0.409391,-0.06182 -0.460856,-0.01736 -0.12285,0.106155 -0.2849,0.02192 -0.259445,-0.134865 0.01685,-0.10374 -0.182803,-0.309831 -0.276429,-0.285348 -0.03921,0.0102 -0.07956,0.03858 -0.08968,0.06294 -0.01005,0.02436 -0.201741,0.467115 -0.425821,0.983891 -0.224081,0.516777 -0.40742,0.963398 -0.40742,0.99249 0,0.06519 -0.12213,0.13782 1.243446,-0.739542 z m 3.371451,-0.283245 c -0.303351,-0.704874 -0.450326,-1.003966 -0.499698,-1.016879 -0.09231,-0.02414 -0.29177,0.183006 -0.275098,0.285698 0.02544,0.15666 -0.13641,0.240934 -0.259443,0.135105 -0.06156,-0.05295 -0.08864,-0.05049 -0.803733,0.07309 -0.07012,0.01215 -0.122055,0.0376 -0.11541,0.05662 0.02027,0.05801 2.357831,1.536303 2.370916,1.499396 0.0068,-0.01895 -0.181176,-0.483806 -0.417537,-1.033027 z m -2.084433,-0.659247 c 0.04488,0 0.09546,0.02385 0.11238,0.053 0.02595,0.0447 0.09566,0.0427 0.445765,-0.01275 0.338031,-0.05355 0.425835,-0.08121 0.473427,-0.14916 0.03213,-0.04588 0.09748,-0.08342 0.145215,-0.08342 0.136545,0 0.282988,-0.185843 0.275167,-0.349204 -0.0084,-0.174624 -0.34017,-0.605755 -0.469368,-0.609862 -0.08579,-0.0027 -0.204711,-0.09526 -0.204711,-0.159288 0,-0.01965 0.03504,-0.07077 0.07788,-0.113595 0.07266,-0.07266 0.08163,-0.164786 0.13383,-1.374198 0.04935,-1.143408 0.04924,-1.300073 -9.03e-4,-1.328157 -0.03129,-0.0175 -0.0569,-0.07287 -0.0569,-0.12303 0,-0.06903 -0.09756,-0.171431 -0.401292,-0.421248 -0.532934,-0.438327 -0.541628,-0.438429 -1.07894,-0.01275 -0.327315,0.259351 -0.400921,0.336358 -0.402645,0.421248 -0.0012,0.05714 -0.02959,0.11925 -0.06316,0.138045 -0.05502,0.03079 -0.05694,0.134655 -0.01941,1.050195 0.0511,1.246714 0.07868,1.612295 0.12159,1.612295 0.01821,0 0.05241,0.03606 0.076,0.08015 0.03422,0.06393 0.0294,0.09506 -0.02385,0.153876 -0.03671,0.04056 -0.103005,0.07388 -0.14733,0.07406 -0.12,4.51e-4 -0.458363,0.439705 -0.471987,0.612691 -0.0126,0.159485 0.139935,0.348724 0.281002,0.348724 0.04774,0 0.113265,0.03778 0.14562,0.08398 0.07931,0.113235 0.812008,0.241326 0.9103,0.159145 0.03341,-0.02793 0.09745,-0.05078 0.14235,-0.05078 z m -1.301648,-0.957944 c 0.130815,-0.164336 0.188771,-0.269118 0.174219,-0.314963 -0.012,-0.03778 -0.0012,-0.101625 0.0239,-0.14187 0.03796,-0.06078 7.53e-4,-0.215468 -0.219367,-0.913433 l -0.265067,-0.840261 -0.0102,1.208811 c -0.0056,0.664846 -7.53e-4,1.233502 0.0108,1.263683 0.02482,0.06471 0.02766,0.06212 0.285621,-0.261961 z m 2.88738,-0.974194 c 0,-0.679336 -0.0084,-1.226729 -0.01872,-1.216431 -0.01035,0.01035 -0.13713,0.391903 -0.281838,0.848012 -0.216713,0.683034 -0.254834,0.840606 -0.216161,0.893498 0.02583,0.03533 0.03843,0.09684 0.02799,0.136725 -0.02158,0.08254 0.396868,0.630124 0.454375,0.594586 0.019,-0.0117 0.03435,-0.573039 0.03435,-1.256385 z m 3.557115,0.865127 c 0.01485,-0.121935 0.08494,-0.59379 0.155843,-1.048559 0.112425,-0.721202 0.121845,-0.834641 0.07373,-0.887819 -0.06597,-0.0729 -0.06945,-0.129225 -0.0135,-0.218923 0.05597,-0.08976 -0.457913,-1.753355 -0.546896,-1.770491 -0.08023,-0.01545 -0.733104,0.774252 -0.703617,0.851089 0.0123,0.03189 0.0022,0.09526 -0.0221,0.140835 -0.03762,0.07029 0.033,0.318383 0.465654,1.635898 0.280497,0.854171 0.522142,1.54553 0.536985,1.536356 0.01485,-0.0092 0.03911,-0.116445 0.05394,-0.238384 z m -9.716768,-1.320128 c 0.408882,-1.233626 0.501525,-1.55187 0.464682,-1.596263 -0.0253,-0.0305 -0.03646,-0.09199 -0.02478,-0.13668 0.01617,-0.06186 -0.05829,-0.17658 -0.312227,-0.481068 -0.183406,-0.219912 -0.355749,-0.399843 -0.382983,-0.399843 -0.06502,0 -0.08073,0.04101 -0.359498,0.939025 -0.192187,0.619106 -0.22935,0.779384 -0.193879,0.836182 0.05861,0.09384 0.05541,0.131235 -0.01743,0.204073 -0.05571,0.05571 -0.05601,0.09382 -0.0033,0.416293 0.0319,0.195234 0.10614,0.670897 0.164941,1.057032 0.0588,0.386135 0.117465,0.702062 0.13035,0.702062 0.0129,0 0.253242,-0.693368 0.534127,-1.540817 z m 0.274854,0.252492 c 0.534511,-0.938295 0.591924,-1.056836 0.596209,-1.231013 0.0037,-0.150658 -0.0197,-0.232629 -0.107175,-0.375465 -0.06156,-0.1005 -0.13305,-0.182727 -0.158874,-0.182727 -0.03723,0 -0.448684,1.186019 -1.014269,2.923653 -0.03935,0.120885 0.11145,-0.129165 0.684115,-1.134448 z m 9.217055,1.028659 c -0.02728,-0.07935 -0.246432,-0.745822 -0.486998,-1.481062 -0.275797,-0.842916 -0.455792,-1.336802 -0.487185,-1.336802 -0.02739,0 -0.0999,0.08051 -0.161136,0.178887 -0.08847,0.14214 -0.11022,0.219411 -0.105855,0.376169 0.005,0.180105 0.06032,0.293478 0.635303,1.302174 0.346399,0.607691 0.635592,1.104893 0.642649,1.104893 0.0071,0 -0.0094,-0.06492 -0.03676,-0.144255 z m -3.65649,-1.269482 c 0.216484,-0.673399 0.250418,-0.814715 0.216978,-0.903619 -0.02179,-0.05796 -0.03055,-0.14013 -0.01944,-0.182607 0.01939,-0.07419 -0.248603,-0.58191 -0.335522,-0.635628 -0.02268,-0.01395 -0.03789,0.04487 -0.03789,0.14679 0,0.155364 -0.05291,1.347634 -0.09208,2.075165 -0.0089,0.163974 -0.0099,0.298137 -0.0024,0.298137 0.0075,0 0.129165,-0.359206 0.270312,-0.798235 z m -2.32936,-0.548185 c -0.02574,-0.62416 -0.05856,-1.147424 -0.07293,-1.162806 -0.0144,-0.01537 -0.105435,0.10797 -0.202388,0.274118 -0.13227,0.22666 -0.167259,0.318202 -0.14016,0.366639 0.02453,0.04381 0.01877,0.0917 -0.01792,0.14904 -0.04883,0.07631 -0.02958,0.162132 0.198894,0.886962 0.152402,0.483492 0.258587,0.766383 0.267131,0.711678 0.0078,-0.04994 -0.0069,-0.601474 -0.03264,-1.225635 z M 33.315007,71.78869 c 0.01908,-0.09927 -0.332096,-0.644466 -0.415112,-0.644466 -0.03753,0 -0.09043,-0.02674 -0.117555,-0.05941 -0.03123,-0.03764 -0.08584,-0.05211 -0.148965,-0.03948 -0.05481,0.01095 -0.316049,0.03769 -0.580526,0.05942 -0.702147,0.05765 -0.798164,0.07416 -0.824088,0.14172 -0.03469,0.09042 0.198468,0.474803 0.288018,0.474803 0.04059,0 0.09558,0.03494 0.122205,0.07764 0.04641,0.07443 0.08179,0.07722 0.855761,0.06732 0.733055,-0.0093 0.808538,-0.0165 0.820269,-0.07753 z m 5.181417,0.0095 c 0.0383,-0.04232 0.09753,-0.07694 0.13161,-0.07694 0.07854,0 0.318695,-0.396238 0.288245,-0.475592 -0.02519,-0.06564 -0.06911,-0.07296 -0.919959,-0.153381 -0.491504,-0.04645 -0.58604,-0.04665 -0.637771,-0.0014 -0.0334,0.02928 -0.08944,0.05324 -0.124545,0.05324 -0.06115,0 -0.1392,0.103905 -0.334566,0.445385 -0.160777,0.281016 -0.149025,0.285527 0.743487,0.285527 0.735007,0 0.788201,-0.0048 0.85349,-0.07693 z m -8.575377,-0.825312 c 0.17253,-0.549 0.208267,-0.704738 0.174226,-0.759243 -0.02355,-0.03771 -0.04283,-0.09417 -0.04283,-0.125445 0,-0.07166 0.129585,-0.143416 0.206021,-0.114091 0.07507,0.02882 0.678768,-0.543559 0.678768,-0.643555 0,-0.03979 0.01916,-0.10302 0.04256,-0.140505 0.03371,-0.05397 -0.02331,-0.299949 -0.274036,-1.182404 -0.174129,-0.612842 -0.328403,-1.136384 -0.342833,-1.163429 -0.0144,-0.02705 -0.06571,0.241275 -0.11397,0.596271 -0.04826,0.354993 -0.111615,0.818555 -0.14082,1.030134 -0.0292,0.21158 -0.07916,0.575116 -0.111,0.807851 -0.03186,0.232739 -0.118995,0.864596 -0.193631,1.404125 -0.07464,0.539529 -0.134355,0.998272 -0.13269,1.019431 0.0042,0.05358 0.0048,0.05193 0.250232,-0.72914 z m 3.77815,0.462072 c 0.232193,-0.400857 0.216744,-0.442494 -0.292228,-0.787589 -0.464127,-0.314685 -0.528539,-0.318664 -0.494415,-0.03054 0.01245,0.10545 0.05134,0.223359 0.08634,0.262032 0.04008,0.04429 0.05637,0.1083 0.04401,0.172955 -0.0147,0.07678 0.02532,0.173983 0.158752,0.385845 0.233768,0.371154 0.281132,0.370898 0.497538,-0.0027 z m 3.238845,-0.0027 c 0.118695,-0.197505 0.169146,-0.321569 0.16128,-0.396557 -0.0068,-0.06387 0.01335,-0.12975 0.04847,-0.158856 0.06816,-0.05656 0.08554,-0.443082 0.0217,-0.482538 -0.02101,-0.01305 -0.217978,0.09874 -0.437692,0.248307 -0.50548,0.344075 -0.520678,0.386634 -0.284008,0.795253 0.215258,0.371641 0.26387,0.371083 0.490244,-0.0055 z m 3.325648,-1.271322 c -0.310407,-2.246598 -0.317371,-2.297805 -0.388311,-2.855001 -0.03576,-0.280928 -0.07693,-0.497318 -0.0915,-0.480864 -0.01455,0.01646 -0.169905,0.537001 -0.345219,1.156772 -0.27561,0.974333 -0.312363,1.1388 -0.271527,1.215099 0.02598,0.04854 0.04158,0.112815 0.03469,0.142845 -0.01605,0.06991 0.604706,0.665522 0.658794,0.632093 0.06423,-0.03969 0.18765,0.01528 0.212898,0.09483 0.0126,0.03991 0.0025,0.10536 -0.02249,0.14544 -0.03757,0.06018 -0.0067,0.198135 0.177215,0.791501 0.122505,0.395241 0.228351,0.713 0.235224,0.70613 0.0069,-0.0069 -0.08302,-0.703859 -0.199784,-1.548862 z m -8.307016,0.90667 c 0.730317,-0.0656 0.767818,-0.07287 0.845731,-0.163863 0.100861,-0.117795 0.08342,-0.421533 -0.03119,-0.542548 -0.08024,-0.08473 -0.12276,-0.09027 -1.045369,-0.13572 -0.528952,-0.02607 -1.052612,-0.05742 -1.163692,-0.06967 -0.283419,-0.03128 -0.269129,0.02929 0.11541,0.489151 0.258762,0.309447 0.337128,0.379943 0.424367,0.381738 0.05885,0.0012 0.11712,0.02858 0.129495,0.06081 0.01587,0.04135 0.05797,0.05316 0.143055,0.0401 0.06631,-0.0102 0.328295,-0.03717 0.582192,-0.05999 z m 6.94178,0.02127 c 0.0253,-0.03048 0.09159,-0.06078 0.1473,-0.06732 0.07391,-0.0087 0.187582,-0.11376 0.420346,-0.388557 0.175473,-0.20716 0.319041,-0.404146 0.319041,-0.437745 0,-0.05141 -0.03507,-0.05743 -0.221198,-0.03799 -0.121665,0.01275 -0.64532,0.04372 -1.163691,0.06894 -0.906734,0.0441 -0.945683,0.04923 -1.026592,0.135075 -0.04677,0.04962 -0.09571,0.166698 -0.110265,0.263774 -0.02321,0.154741 -0.015,0.18579 0.07296,0.273672 0.09255,0.09255 0.144525,0.10368 0.783482,0.167731 0.376394,0.03772 0.695217,0.07068 0.708495,0.07321 0.0132,0.0025 0.04483,-0.02032 0.07014,-0.0508 z m -4.991451,-0.234327 c 0.01125,-0.01125 -0.0111,-0.155716 -0.04953,-0.321025 -0.05174,-0.222201 -0.10059,-0.333332 -0.187391,-0.426246 -0.1245,-0.133276 -0.02963,-0.103291 -1.974446,-0.623866 -0.344955,-0.09234 -0.46409,-0.11064 -0.498176,-0.07656 -0.02464,0.02464 -0.08587,0.0448 -0.136065,0.0448 -0.09557,0 -0.701137,0.518714 -0.701178,0.600599 -2.2e-5,0.04746 0.187112,0.06452 1.489625,0.135795 0.78644,0.04303 0.860622,0.04161 0.926288,-0.01782 0.03925,-0.03554 0.09971,-0.06461 0.134325,-0.06461 0.06543,0 0.151148,0.12183 0.133485,0.189722 -0.0089,0.03428 0.76248,0.579412 0.820155,0.579591 0.0123,3.7e-5 0.03165,-0.0092 0.0429,-0.0204 z m 0.601757,-0.310923 c 0.363771,-0.29529 0.409155,-0.345745 0.416671,-0.463216 0.0072,-0.111676 -0.07899,-0.265399 -0.56332,-1.005418 -0.314465,-0.480471 -0.718588,-1.098629 -0.898049,-1.373682 -1.125956,-1.725723 -1.42367,-2.173878 -1.435961,-2.161584 -0.0076,0.0076 0.37057,0.978188 0.840374,2.156868 0.73177,1.835921 0.868161,2.149749 0.951685,2.18978 0.11718,0.05616 0.142875,0.150091 0.06292,0.230036 -0.10455,0.10455 0.06888,0.758601 0.201145,0.758601 0.009,0 0.199995,-0.149115 0.424527,-0.331385 z m 1.614929,0.297986 c 0.02795,-0.01773 0.08226,-0.177104 0.12069,-0.35418 0.06256,-0.288333 0.0637,-0.326465 0.0108,-0.365129 -0.08384,-0.06131 -0.03349,-0.238473 0.0723,-0.254439 0.06905,-0.01035 0.197982,-0.304518 0.848687,-1.935739 0.960035,-2.406667 0.996624,-2.500609 0.95745,-2.458259 -0.01766,0.01908 -0.689597,1.043925 -1.493207,2.277419 -1.28739,1.976068 -1.458302,2.255903 -1.437502,2.353627 0.01731,0.0813 0.131446,0.198645 0.427532,0.43953 0.222161,0.180741 0.412583,0.328794 0.423161,0.329006 0.01065,3.01e-4 0.0421,-0.0141 0.07005,-0.03183 z m 0.571814,-0.226266 c 0.286983,-0.188448 0.395625,-0.281295 0.396118,-0.338529 0.0015,-0.162911 0.151616,-0.220587 0.277584,-0.10659 0.06567,0.05943 0.139845,0.06086 0.92629,0.01782 1.303808,-0.07135 1.489752,-0.08831 1.488662,-0.135795 -6.02e-4,-0.02354 -0.137595,-0.168301 -0.304574,-0.321698 -0.230233,-0.211511 -0.330384,-0.278901 -0.414482,-0.278901 -0.06099,0 -0.129255,-0.01836 -0.151702,-0.04081 -0.04198,-0.04198 -0.0936,-0.02985 -1.660021,0.390381 -0.387463,0.10395 -0.712046,0.188997 -0.721295,0.188997 -0.0093,0 -0.01682,0.02385 -0.01682,0.05301 0,0.02916 -0.03529,0.07676 -0.07845,0.105795 -0.05172,0.0348 -0.09759,0.137955 -0.13467,0.302829 -0.03093,0.13752 -0.06521,0.288999 -0.07617,0.336603 -0.0123,0.05342 -0.002,0.08655 0.02708,0.08655 0.02586,0 0.224957,-0.11685 0.442447,-0.259665 z m -3.041321,-0.720113 c 0.012,-0.03108 -0.382441,-1.069716 -0.87638,-2.308069 -0.66406,-1.664866 -0.916695,-2.2576 -0.969556,-2.274775 -0.09491,-0.03084 -1.310209,1.152056 -1.316795,1.28168 -0.0024,0.04692 -0.02316,0.107985 -0.04617,0.135705 -0.0311,0.03747 0.04204,0.346286 0.285036,1.203416 0.274071,0.966776 0.342034,1.164406 0.420769,1.223545 0.05165,0.03879 0.09396,0.09072 0.09404,0.11541 9.8e-5,0.03395 2.175459,0.658321 2.357314,0.676597 0.01653,0.0016 0.03983,-0.02241 0.05175,-0.05351 z m 1.874632,-0.520517 c 0.201017,-0.30679 0.619056,-0.947301 0.928977,-1.423358 0.30992,-0.476055 0.828857,-1.272366 1.153189,-1.769579 0.431972,-0.662225 0.579116,-0.916886 0.550131,-0.95211 -0.04957,-0.06026 -2.953797,-0.07104 -2.953797,-0.01095 0,0.02041 -0.03277,0.05466 -0.07282,0.0761 -0.05565,0.02977 -0.09564,0.02103 -0.169561,-0.03711 -0.09246,-0.07273 -0.160334,-0.07609 -1.538761,-0.07609 -1.199424,0 -1.445496,0.009 -1.462659,0.05378 -0.01814,0.04728 0.30558,0.558495 1.73735,2.743576 0.183234,0.279637 0.548132,0.83879 0.810887,1.24256 0.409503,0.629269 0.490152,0.732477 0.564663,0.722577 0.06444,-0.0085 0.181446,-0.155799 0.452409,-0.569349 z m 1.352965,0.479052 c 0.711808,-0.185157 1.963016,-0.526197 1.988663,-0.542047 0.01646,-0.0102 0.02991,-0.04078 0.02991,-0.06804 0,-0.02725 0.03878,-0.06686 0.08618,-0.088 0.07413,-0.03308 0.13239,-0.20189 0.416721,-1.207607 0.284469,-1.006192 0.322979,-1.176715 0.27629,-1.223405 -0.02983,-0.02983 -0.0464,-0.0843 -0.03679,-0.121035 0.0123,-0.04678 -0.169622,-0.253601 -0.607516,-0.69089 -0.495885,-0.495204 -0.640485,-0.619191 -0.700078,-0.600279 -0.05778,0.01834 -0.283905,0.54708 -0.979978,2.291393 -0.894633,2.241896 -0.941687,2.385383 -0.763729,2.328901 0.03332,-0.0105 0.163962,-0.04611 0.290328,-0.07899 z"
       id="path302-9" /></g></svg>
