<?xml version="1.0" encoding="UTF-8" standalone="no"?>
<!-- Created with Inkscape (http://www.inkscape.org/) -->

<svg
   width="280"
   height="280"
   viewBox="0 0 74.083334 74.083334"
   version="1.1"
   id="svg5"
   xml:space="preserve"
   inkscape:version="1.2.2 (732a01da63, 2022-12-09)"
   sodipodi:docname="buy-me-a-coffee1.svg"
   xmlns:inkscape="http://www.inkscape.org/namespaces/inkscape"
   xmlns:sodipodi="http://sodipodi.sourceforge.net/DTD/sodipodi-0.dtd"
   xmlns="http://www.w3.org/2000/svg"
   xmlns:svg="http://www.w3.org/2000/svg"><sodipodi:namedview
     id="namedview7"
     pagecolor="#ffffff"
     bordercolor="#000000"
     borderopacity="0.25"
     inkscape:showpageshadow="2"
     inkscape:pageopacity="0.0"
     inkscape:pagecheckerboard="0"
     inkscape:deskcolor="#d1d1d1"
     inkscape:document-units="mm"
     showgrid="false"
     inkscape:zoom="1.0859962"
     inkscape:cx="31.768067"
     inkscape:cy="34.990914"
     inkscape:window-width="1920"
     inkscape:window-height="1017"
     inkscape:window-x="-8"
     inkscape:window-y="1072"
     inkscape:window-maximized="1"
     inkscape:current-layer="layer1" /><defs
     id="defs2"><filter
       id="filter0_dd_217_156"
       x="26.152901"
       y="24.1143"
       width="203.317"
       height="181.196"
       filterUnits="userSpaceOnUse"
       color-interpolation-filters="sRGB"><feFlood
         flood-opacity="0"
         result="BackgroundImageFix"
         id="feFlood209" /><feColorMatrix
         in="SourceAlpha"
         type="matrix"
         values="0 0 0 0 0 0 0 0 0 0 0 0 0 0 0 0 0 0 127 0"
         result="hardAlpha"
         id="feColorMatrix211" /><feOffset
         dy="0.246095"
         id="feOffset213" /><feGaussianBlur
         stdDeviation="0.246095"
         id="feGaussianBlur215" /><feColorMatrix
         type="matrix"
         values="0 0 0 0 0 0 0 0 0 0 0 0 0 0 0 0 0 0 0.24 0"
         id="feColorMatrix217" /><feBlend
         mode="normal"
         in2="BackgroundImageFix"
         result="effect1_dropShadow_217_156"
         id="feBlend219" /><feColorMatrix
         in="SourceAlpha"
         type="matrix"
         values="0 0 0 0 0 0 0 0 0 0 0 0 0 0 0 0 0 0 127 0"
         result="hardAlpha"
         id="feColorMatrix221" /><feOffset
         dy="1.29524"
         id="feOffset223" /><feGaussianBlur
         stdDeviation="2.59048"
         id="feGaussianBlur225" /><feColorMatrix
         type="matrix"
         values="0 0 0 0 0 0 0 0 0 0 0 0 0 0 0 0 0 0 0.22 0"
         id="feColorMatrix227" /><feBlend
         mode="normal"
         in2="effect1_dropShadow_217_156"
         result="effect2_dropShadow_217_156"
         id="feBlend229" /><feBlend
         mode="normal"
         in="SourceGraphic"
         in2="effect2_dropShadow_217_156"
         result="shape"
         id="feBlend231" /></filter><filter
       id="filter1_dd_217_156"
       x="26.152901"
       y="53.2798"
       width="203.317"
       height="181.194"
       filterUnits="userSpaceOnUse"
       color-interpolation-filters="sRGB"><feFlood
         flood-opacity="0"
         result="BackgroundImageFix"
         id="feFlood234" /><feColorMatrix
         in="SourceAlpha"
         type="matrix"
         values="0 0 0 0 0 0 0 0 0 0 0 0 0 0 0 0 0 0 127 0"
         result="hardAlpha"
         id="feColorMatrix236" /><feOffset
         dy="0.246095"
         id="feOffset238" /><feGaussianBlur
         stdDeviation="0.246095"
         id="feGaussianBlur240" /><feColorMatrix
         type="matrix"
         values="0 0 0 0 0 0 0 0 0 0 0 0 0 0 0 0 0 0 0.24 0"
         id="feColorMatrix242" /><feBlend
         mode="normal"
         in2="BackgroundImageFix"
         result="effect1_dropShadow_217_156"
         id="feBlend244" /><feColorMatrix
         in="SourceAlpha"
         type="matrix"
         values="0 0 0 0 0 0 0 0 0 0 0 0 0 0 0 0 0 0 127 0"
         result="hardAlpha"
         id="feColorMatrix246" /><feOffset
         dy="1.29524"
         id="feOffset248" /><feGaussianBlur
         stdDeviation="2.59048"
         id="feGaussianBlur250" /><feColorMatrix
         type="matrix"
         values="0 0 0 0 0 0 0 0 0 0 0 0 0 0 0 0 0 0 0.22 0"
         id="feColorMatrix252" /><feBlend
         mode="normal"
         in2="effect1_dropShadow_217_156"
         result="effect2_dropShadow_217_156"
         id="feBlend254" /><feBlend
         mode="normal"
         in="SourceGraphic"
         in2="effect2_dropShadow_217_156"
         result="shape"
         id="feBlend256" /></filter><filter
       id="filter2_dd_217_156"
       x="158.62199"
       y="13.8319"
       width="84.920799"
       height="228.33501"
       filterUnits="userSpaceOnUse"
       color-interpolation-filters="sRGB"><feFlood
         flood-opacity="0"
         result="BackgroundImageFix"
         id="feFlood259" /><feColorMatrix
         in="SourceAlpha"
         type="matrix"
         values="0 0 0 0 0 0 0 0 0 0 0 0 0 0 0 0 0 0 127 0"
         result="hardAlpha"
         id="feColorMatrix261" /><feOffset
         id="feOffset263" /><feGaussianBlur
         stdDeviation="0.129524"
         id="feGaussianBlur265" /><feColorMatrix
         type="matrix"
         values="0 0 0 0 0 0 0 0 0 0 0 0 0 0 0 0 0 0 0.24 0"
         id="feColorMatrix267" /><feBlend
         mode="normal"
         in2="BackgroundImageFix"
         result="effect1_dropShadow_217_156"
         id="feBlend269" /><feColorMatrix
         in="SourceAlpha"
         type="matrix"
         values="0 0 0 0 0 0 0 0 0 0 0 0 0 0 0 0 0 0 127 0"
         result="hardAlpha"
         id="feColorMatrix271" /><feOffset
         id="feOffset273" /><feGaussianBlur
         stdDeviation="7.77143"
         id="feGaussianBlur275" /><feColorMatrix
         type="matrix"
         values="0 0 0 0 0 0 0 0 0 0 0 0 0 0 0 0 0 0 0.3 0"
         id="feColorMatrix277" /><feBlend
         mode="normal"
         in2="effect1_dropShadow_217_156"
         result="effect2_dropShadow_217_156"
         id="feBlend279" /><feBlend
         mode="normal"
         in="SourceGraphic"
         in2="effect2_dropShadow_217_156"
         result="shape"
         id="feBlend281" /></filter><linearGradient
       id="paint0_linear_217_156"
       x1="190.49899"
       y1="28"
       x2="41.9893"
       y2="177.47099"
       gradientUnits="userSpaceOnUse"
       gradientTransform="translate(619.86007)"><stop
         stop-color="#7252AA"
         id="stop284" /><stop
         offset="1"
         stop-color="#7252AA"
         id="stop286" /></linearGradient><linearGradient
       id="paint1_linear_217_156"
       x1="46.750099"
       y1="64.4571"
       x2="186.332"
       y2="220.705"
       gradientUnits="userSpaceOnUse"
       gradientTransform="translate(619.86007)"><stop
         stop-color="#AE7FE2"
         id="stop289" /><stop
         offset="1"
         stop-color="#9A70D4"
         id="stop291" /></linearGradient><linearGradient
       id="paint2_linear_217_156"
       x1="200.49001"
       y1="25.3528"
       x2="200.49001"
       y2="226.45599"
       gradientUnits="userSpaceOnUse"
       gradientTransform="translate(619.86007)"><stop
         stop-color="#D59DFF"
         id="stop294" /><stop
         offset="1"
         stop-color="#C18EF1"
         id="stop296" /></linearGradient></defs><g
     inkscape:label="Layer 1"
     inkscape:groupmode="layer"
     id="layer1"
     transform="translate(-3.1917173,-161.06519)"><g
       id="g1680"
       transform="translate(24.127349,8.5349)"><rect
         width="67.73333"
         height="67.73333"
         fill="#ffdd00"
         id="rect1513"
         x="-17.76063"
         y="155.70529"
         style="stroke-width:0.225777"
         rx="15.875"
         ry="15.875" /><path
         d="m 30.884776,175.11592 -0.03703,-0.0219 -0.08602,-0.0262 c 0.03454,0.0292 0.07789,0.0461 0.123048,0.048 z"
         fill="#0d0c22"
         id="path1515"
         style="stroke-width:0.225777" /><path
         d="m 31.426416,178.9839 -0.04154,0.0118 z"
         fill="#0d0c22"
         id="path1517"
         style="stroke-width:0.225777" /><path
         d="m 30.901032,175.10993 c -0.0055,-6.5e-4 -0.01062,-0.002 -0.01558,-0.003 -2.25e-4,0.003 -2.25e-4,0.007 0,0.0103 0.0056,-7.5e-4 0.01107,-0.003 0.01558,-0.007 z"
         fill="#0d0c22"
         id="path1519"
         style="stroke-width:0.225777" /><path
         d="m 30.885227,175.11644 h 0.0056 v -0.003 z"
         fill="#0d0c22"
         id="path1521"
         style="stroke-width:0.225777" /><path
         d="m 31.392775,178.97712 0.06276,-0.0359 0.02325,-0.0131 0.02122,-0.0226 c -0.03974,0.0172 -0.07608,0.0413 -0.107245,0.0716 z"
         fill="#0d0c22"
         id="path1523"
         style="stroke-width:0.225777" /><path
         d="m 30.993374,175.20049 -0.06141,-0.0583 -0.04154,-0.0226 c 0.02235,0.0394 0.05938,0.0684 0.102954,0.0809 z"
         fill="#0d0c22"
         id="path1525"
         style="stroke-width:0.225777" /><path
         d="m 15.599169,212.73587 c -0.04899,0.0212 -0.09167,0.0544 -0.12463,0.0962 l 0.03861,-0.0246 c 0.02619,-0.0241 0.06344,-0.0526 0.08602,-0.0716 z"
         fill="#0d0c22"
         id="path1527"
         style="stroke-width:0.225777" /><path
         d="m 24.538162,210.97728 c 0,-0.0556 -0.02709,-0.0451 -0.02032,0.1515 0,-0.016 0.0066,-0.0321 0.0093,-0.0474 0.0038,-0.035 0.0066,-0.0693 0.01106,-0.10408 z"
         fill="#0d0c22"
         id="path1529"
         style="stroke-width:0.225777" /><path
         d="m 23.611119,212.73587 c -0.04877,0.0212 -0.09167,0.0544 -0.12463,0.0962 l 0.03861,-0.0246 c 0.02642,-0.0241 0.06345,-0.0526 0.08602,-0.0716 z"
         fill="#0d0c22"
         id="path1531"
         style="stroke-width:0.225777" /><path
         d="m 9.3033555,213.15423 c -0.037257,-0.0323 -0.082637,-0.0535 -0.131177,-0.0612 0.039288,0.0189 0.078797,0.038 0.1049865,0.0524 z"
         fill="#0d0c22"
         id="path1533"
         style="stroke-width:0.225777" /><path
         d="m 7.8863741,211.79753 c -0.00563,-0.0573 -0.023253,-0.11289 -0.051703,-0.16323 0.020096,0.0524 0.036804,0.10589 0.050347,0.1603 z"
         fill="#0d0c22"
         id="path1535"
         style="stroke-width:0.225777" /><path
         d="m 17.664358,187.73933 c -2.323479,0.90289 -4.960113,1.92679 -8.3774847,1.92679 -1.4296243,-0.003 -2.8522504,-0.18063 -4.2294946,-0.52922 l 2.3636677,22.02823 c 0.083541,0.92073 0.5457041,1.77936 1.2943837,2.40499 0.7486789,0.62585 1.7292319,0.9731 2.7468129,0.9731 0,0 3.351445,0.15781 4.469496,0.15781 1.203622,0 4.812454,-0.15781 4.812454,-0.15781 1.01758,-2.2e-4 1.997907,-0.34747 2.74636,-0.97333 0.748453,-0.62563 1.210395,-1.48403 1.294158,-2.40476 l 2.531421,-24.34223 c -1.131373,-0.35064 -2.273131,-0.58364 -3.560064,-0.58364 -2.226169,-8.5e-4 -4.019522,0.69518 -6.09171,1.50007 z"
         fill="#ffffff"
         id="path1537"
         style="stroke-width:0.225777" /><path
         d="m 0.72580927,178.86717 0.0335531,0.0314 0.0218795,0.0131 c -0.0168448,-0.0167 -0.0354219,-0.0316 -0.055424,-0.0445 z"
         fill="#0d0c22"
         id="path1539"
         style="stroke-width:0.225777" /><path
         d="m 34.629751,176.99258 -0.298027,-1.50271 c -0.26732,-1.34827 -0.873985,-2.62227 -2.258003,-3.10957 -0.443653,-0.15587 -0.946912,-0.22288 -1.287159,-0.54557 -0.340022,-0.32268 -0.440718,-0.82383 -0.519289,-1.28856 -0.145626,-0.85296 -0.282673,-1.70665 -0.431913,-2.55815 -0.128919,-0.73206 -0.230971,-1.55441 -0.566702,-2.22601 -0.437105,-0.90178 -1.343829,-1.42913 -2.245586,-1.77804 -0.462167,-0.1725 -0.933816,-0.31842 -1.412465,-0.43704 -2.253037,-0.59439 -4.621672,-0.81292 -6.939506,-0.93745 -2.782034,-0.15353 -5.571518,-0.10727 -8.346778,0.13838 -2.0658674,0.18793 -4.241462,0.4152 -6.2046219,1.12977 -0.7174767,0.26149 -1.456809,0.57543 -2.0024004,1.12974 -0.6693863,0.68106 -0.8879164,1.73433 -0.3991527,2.58366 0.3474492,0.60312 0.9360069,1.02924 1.5602373,1.31114 0.8131157,0.36322 1.662266,0.63958 2.5333171,0.82454 2.4257561,0.53611 4.9379856,0.74663 7.4158966,0.83622 2.746587,0.11086 5.497689,0.021 8.23118,-0.26877 0.675753,-0.0743 1.350603,-0.16342 2.024098,-0.26735 0.793383,-0.12162 1.302512,-1.15889 1.068606,-1.88147 -0.279738,-0.86387 -1.031353,-1.19895 -1.881406,-1.06856 -0.125307,0.0197 -0.249936,0.0379 -0.375243,0.0561 l -0.09031,0.0131 c -0.287867,0.0364 -0.575959,0.0704 -0.863826,0.10198 -0.594924,0.0641 -1.191204,0.11652 -1.789063,0.15732 -1.338636,0.0932 -2.681111,0.13621 -4.022908,0.1384 -1.318316,0 -2.637537,-0.0371 -3.953144,-0.12383 -0.600116,-0.0393 -1.198879,-0.0893 -1.7960614,-0.15006 -0.2718362,-0.0284 -0.5427695,-0.0583 -0.8137028,-0.0918 l -0.2578381,-0.0328 -0.056218,-0.008 -0.2673203,-0.0387 c -0.5461564,-0.0823 -1.0925389,-0.17701 -1.6330513,-0.29137 -0.054409,-0.0121 -0.10318,-0.0424 -0.138176,-0.086 -0.034995,-0.0436 -0.054187,-0.0978 -0.054187,-0.15362 0,-0.0559 0.019191,-0.11007 0.054187,-0.15364 0.034995,-0.0436 0.083763,-0.0739 0.138176,-0.086 h 0.010163 c 0.4684885,-0.0998 0.9403639,-0.18503 1.4138197,-0.25933 0.1578189,-0.0247 0.3163153,-0.0491 0.475037,-0.0729 h 0.00427 c 0.2964463,-0.0196 0.5944729,-0.0729 0.8893389,-0.10781 2.5668673,-0.26697 5.1486363,-0.358 7.7276953,-0.27243 1.252164,0.0364 2.50365,0.11001 3.749944,0.23673 0.267998,0.0276 0.534641,0.0568 0.801285,0.0896 0.101826,0.0124 0.204554,0.027 0.307283,0.0393 l 0.206813,0.0299 c 0.603278,0.0898 1.20317,0.19886 1.799901,0.32705 0.88437,0.1923 2.020033,0.25496 2.413338,1.22372 0.125307,0.3074 0.181977,0.64903 0.251291,0.97171 l 0.08805,0.41154 c 0.0022,0.008 0.0041,0.0149 0.0052,0.0226 0.208167,0.9712 0.416786,1.9424 0.625629,2.91363 0.01535,0.0718 0.01558,0.14588 0.0011,0.21777 -0.01468,0.0718 -0.04402,0.14 -0.08602,0.20006 -0.04222,0.0601 -0.09618,0.11083 -0.158722,0.1491 -0.06254,0.0382 -0.132306,0.0632 -0.205007,0.0733 h -0.0059 l -0.127563,0.0175 -0.125985,0.0167 c -0.399175,0.052 -0.798802,0.10052 -1.198879,0.14569 -0.788191,0.0898 -1.57751,0.16753 -2.368184,0.2331 -1.570736,0.13061 -3.144858,0.21632 -4.722142,0.25712 -0.803769,0.0213 -1.607087,0.0313 -2.410404,0.0299 -3.196787,-0.003 -6.3910911,-0.18832 -9.5668811,-0.55649 -0.3436339,-0.0408 -0.687494,-0.0845 -1.0313532,-0.12895 0.2666436,0.0342 -0.1937178,-0.0262 -0.286964,-0.0393 -0.2185524,-0.0305 -0.4370603,-0.0624 -0.6555683,-0.0954 -0.7335065,-0.11 -1.462656,-0.24548 -2.1946948,-0.3642 -0.8850039,-0.1457 -1.73142269,-0.0729 -2.5319398,0.3642 -0.65710422,0.35957 -1.1889459,0.91097 -1.5245645,1.58065 -0.3452595,0.71382 -0.4479658,1.49104 -0.6023748,2.25805 -0.154432,0.76701 -0.3947955,1.59229 -0.3037619,2.37981 0.1959526,1.69921 1.3839727,3.08028 3.09281703,3.38915 1.60760577,0.29148 3.22392577,0.52742 4.84471637,0.72836 6.366482,0.77984 12.798214,0.87308 19.184564,0.27838 0.520192,-0.0485 1.039481,-0.10159 1.558092,-0.15895 0.162109,-0.0176 0.326024,8.6e-4 0.479778,0.0546 0.153981,0.0538 0.293737,0.14133 0.409335,0.25603 0.115825,0.11492 0.204329,0.25423 0.259193,0.40753 0.05486,0.15353 0.07473,0.31722 0.05803,0.47932 l -0.161657,1.57187 c -0.325797,3.17646 -0.651821,6.35249 -0.977618,9.52828 -0.339795,3.33518 -0.682075,6.67014 -1.026385,10.00466 -0.09708,0.93923 -0.19417,1.87824 -0.291254,2.81681 -0.09325,0.92433 -0.106342,1.87778 -0.281996,2.79128 -0.276804,1.4364 -1.249229,2.31851 -2.668017,2.64115 -1.300027,0.29599 -2.628053,0.4511 -3.961045,0.4633 -1.477941,0.009 -2.955205,-0.0576 -4.433146,-0.0494 -1.577736,0.009 -3.5101674,-0.13705 -4.7280131,-1.3111 -1.0701867,-1.03157 -1.218071,-2.64634 -1.3636975,-4.04277 -0.1941692,-1.84867 -0.3867571,-3.69711 -0.5775394,-5.54533 L 5.7599571,192.64619 5.0672706,185.99658 c -0.011511,-0.10995 -0.023253,-0.21855 -0.034091,-0.32918 -0.083089,-0.79316 -0.6447309,-1.56961 -1.529757,-1.52964 -0.7575296,0.0335 -1.6185105,0.67733 -1.5296444,1.52964 l 0.5135318,4.92986 1.0620134,10.1977 c 0.3025195,2.89673 0.6043162,5.79369 0.9053909,8.69132 0.058274,0.55496 0.1129114,1.1115 0.174098,1.66669 0.3327957,3.03309 2.6492757,4.6675 5.5177837,5.12786 1.67527,0.26958 3.391407,0.32489 5.091514,0.35267 2.179433,0.0347 4.38054,0.11876 6.5243,-0.27613 3.176468,-0.58273 5.560004,-2.70391 5.900025,-5.99417 0.09708,-0.94985 0.194169,-1.89992 0.291479,-2.85022 0.322862,-3.14283 0.645272,-6.28588 0.967232,-9.42915 l 1.053254,-10.27064 0.482938,-4.70679 c 0.02416,-0.23345 0.122597,-0.45291 0.281094,-0.62585 0.158495,-0.17318 0.368469,-0.29058 0.598762,-0.33505 0.908304,-0.17702 1.776645,-0.47911 2.422821,-1.17044 1.028418,-1.10067 1.233198,-2.53571 0.869696,-3.98222 z m -34.16884712,1.01539 c 0.0138411,-0.007 -0.011648,0.11216 -0.0225792,0.16753 -0.002133,-0.0838 0.002219,-0.15807 0.0225792,-0.16753 z m 0.0881442,0.68174 c 0.007253,-0.005 0.0291499,0.0242 0.0517291,0.0591 -0.0342528,-0.0321 -0.0560811,-0.0562 -0.0524459,-0.0591 z m 0.0866756,0.11447 c 0.0313344,0.0531 0.0480939,0.0867 0,0 z m 0.17409707,0.14133 h 0.004352 c 0,0.005 0.008021,0.0102 0.0109312,0.0151 -0.004779,-0.005 -0.0101803,-0.0106 -0.0160085,-0.0151 z M 31.295013,178.73419 c -0.326248,0.31022 -0.817992,0.45449 -1.303866,0.52673 -5.448469,0.80852 -10.976187,1.21785 -16.484487,1.03723 -3.9420796,-0.13479 -7.8428429,-0.57257 -11.7455466,-1.12393 -0.3824,-0.0539 -0.7968828,-0.12394 -1.05982381,-0.40571 -0.49531136,-0.53183 -0.25203542,-1.60258 -0.12309419,-2.24503 0.11799211,-0.58855 0.34379178,-1.37304 1.0437939,-1.4568 1.0926063,-0.12821 2.3615002,0.33288 3.4423885,0.49675 1.3013828,0.19862 2.6077329,0.35766 3.9188249,0.47711 5.5956763,0.5099 11.2852763,0.43049 16.8561173,-0.31539 1.015322,-0.13645 2.027032,-0.29499 3.035356,-0.47565 0.897918,-0.16097 1.893824,-0.46326 2.436368,0.46691 0.372308,0.63372 0.421753,1.48159 0.36418,2.19759 -0.01761,0.31198 -0.153981,0.60547 -0.380887,0.82019 z"
         fill="#0d0c22"
         id="path1541"
         style="stroke-width:0.225777" /></g></g></svg>
