<?xml version="1.0" encoding="UTF-8" standalone="no"?>
<!-- Created with Inkscape (http://www.inkscape.org/) -->

<svg
   width="280"
   height="280"
   viewBox="0 0 74.083334 74.083334"
   version="1.1"
   id="svg5"
   xml:space="preserve"
   inkscape:version="1.2.2 (732a01da63, 2022-12-09)"
   sodipodi:docname="recognize-web1.svg"
   xmlns:inkscape="http://www.inkscape.org/namespaces/inkscape"
   xmlns:sodipodi="http://sodipodi.sourceforge.net/DTD/sodipodi-0.dtd"
   xmlns="http://www.w3.org/2000/svg"
   xmlns:svg="http://www.w3.org/2000/svg"><sodipodi:namedview
     id="namedview7"
     pagecolor="#ffffff"
     bordercolor="#000000"
     borderopacity="0.25"
     inkscape:showpageshadow="2"
     inkscape:pageopacity="0.0"
     inkscape:pagecheckerboard="0"
     inkscape:deskcolor="#d1d1d1"
     inkscape:document-units="mm"
     showgrid="false"
     inkscape:zoom="0.19197882"
     inkscape:cx="-1252.7424"
     inkscape:cy="182.31178"
     inkscape:window-width="1920"
     inkscape:window-height="1017"
     inkscape:window-x="-8"
     inkscape:window-y="1072"
     inkscape:window-maximized="1"
     inkscape:current-layer="layer1" /><defs
     id="defs2"><filter
       id="filter0_dd_217_156"
       x="26.152901"
       y="24.1143"
       width="203.317"
       height="181.196"
       filterUnits="userSpaceOnUse"
       color-interpolation-filters="sRGB"><feFlood
         flood-opacity="0"
         result="BackgroundImageFix"
         id="feFlood209" /><feColorMatrix
         in="SourceAlpha"
         type="matrix"
         values="0 0 0 0 0 0 0 0 0 0 0 0 0 0 0 0 0 0 127 0"
         result="hardAlpha"
         id="feColorMatrix211" /><feOffset
         dy="0.246095"
         id="feOffset213" /><feGaussianBlur
         stdDeviation="0.246095"
         id="feGaussianBlur215" /><feColorMatrix
         type="matrix"
         values="0 0 0 0 0 0 0 0 0 0 0 0 0 0 0 0 0 0 0.24 0"
         id="feColorMatrix217" /><feBlend
         mode="normal"
         in2="BackgroundImageFix"
         result="effect1_dropShadow_217_156"
         id="feBlend219" /><feColorMatrix
         in="SourceAlpha"
         type="matrix"
         values="0 0 0 0 0 0 0 0 0 0 0 0 0 0 0 0 0 0 127 0"
         result="hardAlpha"
         id="feColorMatrix221" /><feOffset
         dy="1.29524"
         id="feOffset223" /><feGaussianBlur
         stdDeviation="2.59048"
         id="feGaussianBlur225" /><feColorMatrix
         type="matrix"
         values="0 0 0 0 0 0 0 0 0 0 0 0 0 0 0 0 0 0 0.22 0"
         id="feColorMatrix227" /><feBlend
         mode="normal"
         in2="effect1_dropShadow_217_156"
         result="effect2_dropShadow_217_156"
         id="feBlend229" /><feBlend
         mode="normal"
         in="SourceGraphic"
         in2="effect2_dropShadow_217_156"
         result="shape"
         id="feBlend231" /></filter><filter
       id="filter1_dd_217_156"
       x="26.152901"
       y="53.2798"
       width="203.317"
       height="181.194"
       filterUnits="userSpaceOnUse"
       color-interpolation-filters="sRGB"><feFlood
         flood-opacity="0"
         result="BackgroundImageFix"
         id="feFlood234" /><feColorMatrix
         in="SourceAlpha"
         type="matrix"
         values="0 0 0 0 0 0 0 0 0 0 0 0 0 0 0 0 0 0 127 0"
         result="hardAlpha"
         id="feColorMatrix236" /><feOffset
         dy="0.246095"
         id="feOffset238" /><feGaussianBlur
         stdDeviation="0.246095"
         id="feGaussianBlur240" /><feColorMatrix
         type="matrix"
         values="0 0 0 0 0 0 0 0 0 0 0 0 0 0 0 0 0 0 0.24 0"
         id="feColorMatrix242" /><feBlend
         mode="normal"
         in2="BackgroundImageFix"
         result="effect1_dropShadow_217_156"
         id="feBlend244" /><feColorMatrix
         in="SourceAlpha"
         type="matrix"
         values="0 0 0 0 0 0 0 0 0 0 0 0 0 0 0 0 0 0 127 0"
         result="hardAlpha"
         id="feColorMatrix246" /><feOffset
         dy="1.29524"
         id="feOffset248" /><feGaussianBlur
         stdDeviation="2.59048"
         id="feGaussianBlur250" /><feColorMatrix
         type="matrix"
         values="0 0 0 0 0 0 0 0 0 0 0 0 0 0 0 0 0 0 0.22 0"
         id="feColorMatrix252" /><feBlend
         mode="normal"
         in2="effect1_dropShadow_217_156"
         result="effect2_dropShadow_217_156"
         id="feBlend254" /><feBlend
         mode="normal"
         in="SourceGraphic"
         in2="effect2_dropShadow_217_156"
         result="shape"
         id="feBlend256" /></filter><filter
       id="filter2_dd_217_156"
       x="158.62199"
       y="13.8319"
       width="84.920799"
       height="228.33501"
       filterUnits="userSpaceOnUse"
       color-interpolation-filters="sRGB"><feFlood
         flood-opacity="0"
         result="BackgroundImageFix"
         id="feFlood259" /><feColorMatrix
         in="SourceAlpha"
         type="matrix"
         values="0 0 0 0 0 0 0 0 0 0 0 0 0 0 0 0 0 0 127 0"
         result="hardAlpha"
         id="feColorMatrix261" /><feOffset
         id="feOffset263" /><feGaussianBlur
         stdDeviation="0.129524"
         id="feGaussianBlur265" /><feColorMatrix
         type="matrix"
         values="0 0 0 0 0 0 0 0 0 0 0 0 0 0 0 0 0 0 0.24 0"
         id="feColorMatrix267" /><feBlend
         mode="normal"
         in2="BackgroundImageFix"
         result="effect1_dropShadow_217_156"
         id="feBlend269" /><feColorMatrix
         in="SourceAlpha"
         type="matrix"
         values="0 0 0 0 0 0 0 0 0 0 0 0 0 0 0 0 0 0 127 0"
         result="hardAlpha"
         id="feColorMatrix271" /><feOffset
         id="feOffset273" /><feGaussianBlur
         stdDeviation="7.77143"
         id="feGaussianBlur275" /><feColorMatrix
         type="matrix"
         values="0 0 0 0 0 0 0 0 0 0 0 0 0 0 0 0 0 0 0.3 0"
         id="feColorMatrix277" /><feBlend
         mode="normal"
         in2="effect1_dropShadow_217_156"
         result="effect2_dropShadow_217_156"
         id="feBlend279" /><feBlend
         mode="normal"
         in="SourceGraphic"
         in2="effect2_dropShadow_217_156"
         result="shape"
         id="feBlend281" /></filter><linearGradient
       id="paint0_linear_217_156"
       x1="190.49899"
       y1="28"
       x2="41.9893"
       y2="177.47099"
       gradientUnits="userSpaceOnUse"
       gradientTransform="translate(619.86007)"><stop
         stop-color="#7252AA"
         id="stop284" /><stop
         offset="1"
         stop-color="#7252AA"
         id="stop286" /></linearGradient><linearGradient
       id="paint1_linear_217_156"
       x1="46.750099"
       y1="64.4571"
       x2="186.332"
       y2="220.705"
       gradientUnits="userSpaceOnUse"
       gradientTransform="translate(619.86007)"><stop
         stop-color="#AE7FE2"
         id="stop289" /><stop
         offset="1"
         stop-color="#9A70D4"
         id="stop291" /></linearGradient><linearGradient
       id="paint2_linear_217_156"
       x1="200.49001"
       y1="25.3528"
       x2="200.49001"
       y2="226.45599"
       gradientUnits="userSpaceOnUse"
       gradientTransform="translate(619.86007)"><stop
         stop-color="#D59DFF"
         id="stop294" /><stop
         offset="1"
         stop-color="#C18EF1"
         id="stop296" /></linearGradient></defs><g
     inkscape:label="Layer 1"
     inkscape:groupmode="layer"
     id="layer1"
     transform="translate(-99.887194,-160.12529)"><g
       id="g2244"
       transform="translate(4.1495295,7.5603778)"><rect
         width="67.73333"
         height="67.73333"
         fill="#2396ed"
         rx="15.875"
         id="rect481-1"
         x="98.912666"
         y="155.73991"
         ry="15.875"
         style="fill:#000000;stroke-width:0.264583" /><path
         style="fill:#ffffff;stroke:#ffffff;stroke-width:1;stroke-dasharray:none"
         d="m 132.31422,215.45971 c -0.145,-0.20735 -0.5333,-0.30135 -2.20826,-0.53585 -1.59737,-0.22367 -2.0841,-0.252 -2.27434,-0.13334 -0.50346,0.31434 -1.07923,0.0593 -0.99064,-0.43869 0.0589,-0.33201 -8.048,-7.73544 -8.37637,-7.64957 -0.48365,0.12633 -0.84815,-0.58954 -0.48503,-0.95267 0.0997,-0.1 -0.0233,-0.80227 -0.43802,-2.49408 -0.31732,-1.29529 -0.84656,-3.46586 -1.17598,-4.82353 -0.41779,-1.72147 -0.65248,-2.46844 -0.77568,-2.46844 -0.097,0 -0.241,-0.12034 -0.31967,-0.26734 -0.11401,-0.21299 -0.098,-0.31666 0.0786,-0.51199 0.21067,-0.233 0.19467,-0.42006 -0.322,-3.80031 -0.4548,-2.97454 -0.58364,-3.5834 -0.78843,-3.72686 -0.32333,-0.22634 -0.32433,-0.80128 -0.002,-0.88564 0.188,-0.0491 0.26299,-0.22833 0.33065,-0.78943 0.048,-0.39927 0.25267,-1.90881 0.45422,-3.35462 0.20165,-1.44578 0.4892,-3.52313 0.63899,-4.61629 0.14966,-1.09314 0.43736,-3.17048 0.63901,-4.61629 0.5392,-3.86586 0.56296,-4.10337 0.41026,-4.10337 -0.21267,0 -0.317,-0.50618 -0.14666,-0.71142 0.085,-0.10232 0.30665,-0.18632 0.49292,-0.18632 0.4789,0 4.41135,-3.92314 4.43322,-4.42277 0.0233,-0.5627 0.58809,-0.77137 0.86886,-0.32167 0.15566,0.24899 0.29901,0.25633 4.9822,0.25633 4.65917,0 4.82987,-0.007 5.05414,-0.25633 0.29467,-0.32567 0.53167,-0.32567 0.73503,0 0.15568,0.24899 0.29901,0.25633 4.98221,0.25633 4.65918,0 4.82987,-0.007 5.05414,-0.25633 0.12767,-0.141 0.30067,-0.25633 0.38471,-0.25633 0.23233,0 0.59926,0.46109 0.55346,0.69563 -0.0233,0.12833 0.7445,0.99153 2.01113,2.2559 1.63911,1.63622 2.12171,2.04824 2.3998,2.04876 0.46928,8.8e-4 0.71934,0.44071 0.43151,0.75878 -0.26533,0.29299 -0.26533,0.28865 0.18299,3.48353 0.55374,3.94506 0.83254,5.95465 1.27958,9.2226 0.217,1.58683 0.45643,3.3272 0.53192,3.86744 0.11035,0.78959 0.185,0.9947 0.38065,1.04587 0.33199,0.0865 0.31967,0.66089 -0.02,0.89824 -0.22535,0.15766 -0.32667,0.60226 -0.71185,3.11686 -0.58907,3.84641 -0.62853,4.22447 -0.4522,4.33346 0.24901,0.15368 0.17135,0.73222 -0.108,0.80521 -0.30033,0.0786 -0.22832,-0.14333 -1.01409,3.11581 -0.34867,1.44579 -0.84794,3.5141 -1.10957,4.59623 -0.4168,1.72398 -0.45463,2.00678 -0.30601,2.28447 0.22068,0.41231 0.0166,0.75095 -0.44569,0.74381 -0.267,-0.004 -1.194,0.77499 -4.40771,3.70461 -3.35563,3.05902 -4.08077,3.77976 -4.13364,4.10856 -0.0503,0.313 -0.13568,0.4071 -0.39567,0.4373 -0.18233,0.02 -0.3962,-0.0393 -0.47523,-0.13467 -0.22767,-0.274 -4.25371,0.33537 -4.49837,0.68104 -0.22667,0.32033 -0.70527,0.31867 -0.93044,-0.003 z m 0.14334,-0.61068 c 0.24633,-0.21099 0.258,-0.37177 0.25567,-3.55841 l -0.002,-3.33756 -0.322,-0.30535 c -0.3466,-0.32866 -0.116,-0.30466 -10.57331,-1.10443 -2.96262,-0.22666 -2.94931,-0.22632 -2.94931,-0.0738 0,0.0658 1.82759,1.78239 4.06128,3.81487 2.86177,2.60396 4.13681,3.6852 4.31711,3.661 0.14065,-0.02 0.39513,0.0967 0.56536,0.25634 0.25234,0.23699 0.64577,0.3414 2.12646,0.56426 2.30345,0.3467 2.21584,0.3438 2.52078,0.0826 z m 3.27133,-0.11334 c 1.35435,-0.17966 1.71179,-0.27099 1.90583,-0.48837 0.13168,-0.14732 0.39597,-0.26732 0.58858,-0.26732 0.279,0 1.1689,-0.74844 4.40946,-3.70905 2.2329,-2.03993 4.05986,-3.75663 4.05986,-3.81484 0,-0.13732 -0.0166,-0.137 -2.9493,0.087 -10.51666,0.80353 -10.37326,0.78856 -10.64173,1.11077 -0.23266,0.27898 -0.24966,0.52243 -0.25366,3.62309 -0.004,2.96624 0.02,3.35011 0.216,3.56742 0.15801,0.17465 0.33034,0.22499 0.60909,0.17765 0.21367,-0.036 1.13892,-0.165 2.05574,-0.28666 z m -3.3892,-7.79094 c 0.29466,-0.10533 0.54941,-0.12267 0.71531,-0.0487 0.197,0.088 0.85816,-0.13067 2.81217,-0.93039 1.405,-0.57493 3.144,-1.28057 3.86443,-1.56807 0.72041,-0.28766 1.2847,-0.56347 1.25394,-0.61321 -0.061,-0.0987 -0.41634,-0.18799 -4.61547,-1.16002 -2.48508,-0.5753 -2.8725,-0.63504 -3.25275,-0.50157 -0.33939,0.119 -0.49724,0.11633 -0.73865,-0.0134 -0.26799,-0.14333 -0.78877,-0.0523 -4.08847,0.71534 -2.07981,0.4838 -3.78146,0.9164 -3.78146,0.96133 0,0.045 0.36064,0.228 0.80141,0.40686 4.86374,1.97328 6.63211,2.71624 6.58268,2.76565 -0.0618,0.0618 -0.28033,-0.0233 -4.66447,-1.82063 -2.23798,-0.91731 -2.7646,-1.0905 -2.92105,-0.96068 -0.14499,0.12033 -0.26699,0.12368 -0.50765,0.0134 -0.47445,-0.216 -0.39624,-0.83698 0.11799,-0.93642 0.23168,-0.045 0.52384,-0.66888 2.78318,-5.94553 l 0.38437,-0.89759 -0.3722,0.3847 c -0.20468,0.21166 -2.08844,2.33886 -4.18605,4.72731 -3.14051,3.5759 -3.7833,4.37105 -3.64094,4.50376 0.11567,0.10767 1.70149,0.27867 4.78924,0.51591 2.53899,0.19532 5.10677,0.39596 5.70627,0.4463 1.70437,0.14299 2.46314,0.13132 2.95821,-0.0455 z m 3.58154,0.0541 c 0.81106,-0.0633 3.52313,-0.27134 6.02684,-0.46237 2.88999,-0.22067 4.61237,-0.40332 4.71703,-0.5004 0.13134,-0.12201 -0.63157,-1.06074 -3.76446,-4.6318 -3.83961,-4.37664 -4.51458,-5.12481 -4.38789,-4.86361 0.0341,0.0706 0.69095,1.59205 1.45945,3.3811 1.06529,2.48014 1.463,3.27789 1.6741,3.35818 0.3582,0.13633 0.4656,0.31967 0.36759,0.62856 -0.099,0.31234 -0.53305,0.4594 -0.77133,0.26167 -0.14233,-0.11834 -0.87383,0.133 -3.4881,1.19793 -1.81934,0.74117 -3.50984,1.43621 -3.75671,1.54453 l -0.4488,0.19701 0.4488,0.002 c 0.24701,8.7e-4 1.11241,-0.0498 1.92348,-0.11268 z m -13.09408,-6.03134 c 3.22334,-3.67004 4.09387,-4.73457 4.04169,-4.94247 -0.042,-0.16833 0.0301,-0.3522 0.19734,-0.50367 0.25568,-0.23166 0.26368,-0.36333 0.26368,-4.39777 0,-4.15637 -1.4e-4,-4.15931 -0.28834,-4.39984 -0.26134,-0.218 -0.5384,-0.241 -2.95335,-0.245 -2.25313,-0.004 -2.6762,0.0266 -2.73863,0.188 -0.0404,0.10566 -0.19732,0.19333 -0.3486,0.195 -0.22567,0.002 -0.69097,0.73163 -2.59728,4.07133 -1.84016,3.22384 -2.29762,4.11721 -2.20286,4.30182 0.0826,0.16133 0.0603,0.32333 -0.0727,0.52625 -0.17468,0.26635 -0.159,0.4274 0.16999,1.75458 0.19933,0.80373 0.71998,2.93276 1.15712,4.73119 0.43716,1.79845 0.82349,3.31634 0.85853,3.37315 0.035,0.0567 0.14067,0.0858 0.23433,0.064 0.0941,-0.02 2.01937,-2.14404 4.2789,-4.71667 z m 25.30478,1.08596 c 0.47814,-1.97413 1.00525,-4.15176 1.17127,-4.83917 0.261,-1.08123 0.27701,-1.27054 0.11701,-1.40336 -0.12168,-0.10101 -0.15934,-0.28168 -0.11033,-0.52735 0.0629,-0.31531 -0.28134,-1.0025 -2.20094,-4.39381 -1.93241,-3.41369 -2.31981,-4.02089 -2.56821,-4.02532 -0.161,-0.003 -0.32566,-0.0917 -0.36637,-0.19767 -0.0624,-0.16266 -0.48979,-0.19232 -2.75294,-0.19232 -2.50812,0 -2.69546,0.0166 -2.93557,0.25632 -0.24599,0.246 -0.25633,0.42747 -0.25633,4.40824 0,3.53407 0.0266,4.17558 0.19234,4.31144 0.10567,0.0877 0.19233,0.31433 0.19233,0.50317 0,0.25767 0.4204,0.8226 1.68211,2.26036 0.92513,1.05431 2.78343,3.17391 4.12954,4.71028 1.4864,1.69651 2.52387,2.77863 2.64212,2.75588 0.14236,-0.0266 0.42818,-1.00155 1.06408,-3.62688 z m -19.64809,0.58214 c 2.99651,-0.68351 3.56562,-0.8502 3.78761,-1.10948 0.32467,-0.37918 0.82661,-0.40493 0.92013,-0.047 0.037,0.14167 0.19034,0.288 0.34067,0.325 1.97888,0.48657 7.33549,1.6943 7.36838,1.66138 0.0233,-0.0233 -0.0794,-0.10934 -0.22933,-0.18968 -0.15033,-0.0803 -1.87177,-1.16856 -3.82584,-2.41827 -3.32604,-2.12714 -3.58971,-2.27104 -4.1299,-2.25443 -0.51658,0.0166 -0.9599,0.26299 -4.2316,2.3587 -3.51527,2.25171 -4.14615,2.68293 -3.71869,2.5418 0.10567,-0.035 1.77921,-0.42548 3.71869,-0.86787 z m 0.0418,-1.86336 c 2.08567,-1.34001 3.74615,-2.48247 3.68994,-2.53881 -0.0563,-0.0563 -0.70236,-0.20734 -1.43589,-0.3352 -1.13021,-0.19735 -1.36464,-0.206 -1.53621,-0.058 -0.40949,0.35387 -0.94967,0.073 -0.8648,-0.44956 0.0563,-0.34578 -0.60937,-1.03278 -0.92142,-0.95115 -0.13068,0.0341 -0.26535,0.12867 -0.29902,0.20967 -0.0337,0.0815 -0.67246,1.55704 -1.4194,3.27963 -0.74696,1.72261 -1.35805,3.21134 -1.35805,3.30832 0,0.21732 -0.40711,0.4594 4.14479,-2.46515 z m 11.2382,-0.94415 c -1.01118,-2.34957 -1.50111,-3.34657 -1.66568,-3.3896 -0.30766,-0.0803 -0.97256,0.61004 -0.917,0.95232 0.0847,0.52222 -0.45469,0.80312 -0.8648,0.45034 -0.20533,-0.17634 -0.29534,-0.16833 -2.6791,0.24368 -0.23367,0.0403 -0.40687,0.12533 -0.38471,0.18866 0.0677,0.19334 7.85946,5.12104 7.90304,4.99801 0.0233,-0.0633 -0.60389,-1.6127 -1.39175,-3.44344 z m -6.94811,-2.1975 c 0.14965,0 0.31833,0.0797 0.37459,0.17667 0.0866,0.149 0.31901,0.14234 1.48586,-0.0426 1.12679,-0.17867 1.41949,-0.27068 1.5781,-0.4972 0.10701,-0.15301 0.32502,-0.27801 0.48405,-0.27801 0.45518,0 0.9433,-0.61945 0.91723,-1.16398 -0.0266,-0.58208 -1.1339,-2.01922 -1.56457,-2.03288 -0.286,-0.01 -0.68237,-0.31767 -0.68237,-0.53098 0,-0.0658 0.11668,-0.236 0.25968,-0.37866 0.24232,-0.24232 0.272,-0.54926 0.44609,-4.58063 0.16466,-3.81137 0.16401,-4.33361 -0.003,-4.42721 -0.10435,-0.0582 -0.18968,-0.243 -0.18968,-0.4101 0,-0.23 -0.32534,-0.57144 -1.33762,-1.40417 -1.77647,-1.4611 -1.80546,-1.46144 -3.59648,-0.0426 -1.09107,0.86451 -1.33641,1.1212 -1.34218,1.40418 -0.004,0.19033 -0.0987,0.3975 -0.21065,0.46014 -0.18334,0.10266 -0.18968,0.44886 -0.0646,3.50067 0.17033,4.1557 0.26233,5.37429 0.4053,5.37429 0.0607,0 0.17467,0.12033 0.25333,0.26735 0.114,0.213 0.098,0.317 -0.0797,0.51293 -0.12233,0.13533 -0.34333,0.24633 -0.49109,0.247 -0.40002,0.002 -1.52787,1.4657 -1.57327,2.0423 -0.042,0.53164 0.46643,1.16243 0.93666,1.16243 0.159,0 0.37753,0.12601 0.48539,0.28001 0.26434,0.37742 2.70672,0.8044 3.03435,0.53047 0.11132,-0.093 0.32467,-0.16934 0.47449,-0.16934 z m -4.33885,-3.19313 c 0.43604,-0.5478 0.62924,-0.89708 0.58074,-1.04987 -0.04,-0.12601 -0.004,-0.33877 0.0796,-0.4729 0.12665,-0.20267 0.003,-0.71823 -0.73123,-3.04481 l -0.88358,-2.80087 -0.0341,4.02938 c -0.02,2.21617 -0.003,4.1117 0.036,4.2123 0.0826,0.21567 0.0923,0.207 0.95208,-0.87321 z m 9.62462,-3.2473 c 0,-2.26447 -0.0265,-4.08911 -0.0623,-4.0548 -0.0342,0.0346 -0.4571,1.30636 -0.93946,2.82673 -0.72237,2.27676 -0.84944,2.802 -0.72054,2.9783 0.0861,0.11767 0.12801,0.32267 0.0934,0.45577 -0.072,0.275 1.3229,2.1004 1.51461,1.98196 0.0633,-0.0389 0.11432,-1.91013 0.11432,-4.18796 z m 11.85704,2.88373 c 0.0494,-0.40644 0.28301,-1.9793 0.51949,-3.49521 0.37475,-2.404 0.40615,-2.78213 0.24568,-2.95939 -0.22001,-0.24301 -0.23134,-0.43075 -0.045,-0.72974 0.18667,-0.29934 -1.5264,-5.84451 -1.823,-5.90165 -0.26734,-0.0517 -2.44368,2.58084 -2.3454,2.83698 0.041,0.10633 0.007,0.31766 -0.0738,0.46942 -0.12534,0.23434 0.10999,1.06132 1.5522,5.45302 0.93496,2.84724 1.74045,5.15177 1.78994,5.1212 0.0494,-0.03 0.13032,-0.38817 0.17965,-0.79463 z m -32.38924,-4.40043 c 1.36294,-4.11208 1.67174,-5.17291 1.54894,-5.32088 -0.0844,-0.10166 -0.12166,-0.30668 -0.0826,-0.45561 0.0541,-0.20633 -0.19433,-0.58859 -1.04077,-1.60357 -0.61136,-0.73302 -1.18583,-1.33279 -1.27659,-1.33279 -0.21668,0 -0.26901,0.13666 -1.19834,3.13011 -0.64064,2.06366 -0.7645,2.59793 -0.64627,2.78726 0.19534,0.31267 0.18466,0.43742 -0.058,0.68022 -0.18569,0.18568 -0.18668,0.31269 -0.01,1.38764 0.10633,0.65081 0.3538,2.23636 0.54979,3.52348 0.196,1.2871 0.39157,2.34021 0.43451,2.34021 0.043,0 0.84413,-2.31124 1.78043,-5.13607 z m 0.91618,0.84166 c 1.78168,-3.12768 1.97305,-3.5228 1.98736,-4.10341 0.0134,-0.50216 -0.0657,-0.77543 -0.35728,-1.25154 -0.20532,-0.33499 -0.44349,-0.6091 -0.52956,-0.6091 -0.12399,0 -1.4956,3.95341 -3.3809,9.74553 -0.13133,0.40295 0.3715,-0.43054 2.2804,-3.78148 z m 30.72352,3.42886 c -0.091,-0.26465 -0.82143,-2.48609 -1.62329,-4.9369 -0.91934,-2.80971 -1.51935,-4.45601 -1.62398,-4.45601 -0.0913,0 -0.33299,0.26835 -0.53709,0.5963 -0.295,0.47381 -0.3674,0.73138 -0.35286,1.25391 0.0166,0.60035 0.20099,0.97826 2.11766,4.34057 1.15468,2.02564 2.11866,3.68297 2.14216,3.68297 0.0233,0 -0.03,-0.21632 -0.12266,-0.48084 z m -12.18827,-4.23163 c 0.7216,-2.24467 0.83469,-2.7157 0.72323,-3.01207 -0.0727,-0.19333 -0.102,-0.4671 -0.0646,-0.60867 0.0646,-0.24732 -0.82868,-1.93969 -1.1184,-2.11876 -0.0757,-0.0463 -0.12634,0.14966 -0.12634,0.48929 0,0.51787 -0.17634,4.4921 -0.30699,6.91722 -0.03,0.54659 -0.0335,0.99379 -0.007,0.99379 0.0266,0 0.43056,-1.19732 0.90102,-2.66077 z m -7.76458,-1.82726 c -0.0857,-2.08054 -0.19533,-3.82479 -0.243,-3.87605 -0.048,-0.0513 -0.35147,0.3599 -0.67463,0.91374 -0.44089,0.75554 -0.55753,1.06067 -0.46719,1.22213 0.0817,0.14602 0.0625,0.30566 -0.0597,0.49681 -0.16268,0.25432 -0.0987,0.54044 0.66295,2.95652 0.508,1.61165 0.86197,2.55461 0.89044,2.37228 0.0265,-0.16634 -0.0233,-2.0049 -0.10868,-4.08547 z m -2.33517,-1.82698 c 0.0637,-0.33101 -1.10699,-2.14825 -1.38374,-2.14825 -0.125,0 -0.30132,-0.089 -0.39182,-0.19801 -0.104,-0.12533 -0.28601,-0.17365 -0.49658,-0.13165 -0.18266,0.0367 -1.05345,0.12565 -1.93506,0.198 -2.3405,0.19233 -2.66058,0.24733 -2.74697,0.47239 -0.11567,0.30135 0.66155,1.58267 0.96007,1.58267 0.13534,0 0.31867,0.11635 0.40734,0.25867 0.15466,0.248 0.27266,0.25733 2.85253,0.22433 2.44353,-0.0299 2.69513,-0.0549 2.73423,-0.25833 z m 17.27138,0.0335 c 0.12767,-0.14101 0.32501,-0.25634 0.43871,-0.25634 0.26166,0 1.06233,-1.3208 0.96082,-1.58534 -0.084,-0.21866 -0.23033,-0.24299 -3.06653,-0.51126 -1.63833,-0.15467 -1.95347,-0.15533 -2.12591,-0.004 -0.11132,0.0977 -0.298,0.17734 -0.41516,0.17734 -0.20366,0 -0.464,0.34637 -1.11519,1.48462 -0.53594,0.9367 -0.49677,0.95179 2.4783,0.95179 2.45,0 2.62733,-0.0166 2.84496,-0.25634 z m -28.58459,-2.75107 c 0.57509,-1.83001 0.69418,-2.3491 0.58073,-2.53082 -0.0786,-0.12566 -0.14266,-0.31399 -0.14266,-0.41812 0,-0.239 0.43197,-0.47807 0.68673,-0.38031 0.25033,0.096 2.26257,-1.81186 2.26257,-2.14519 0,-0.13268 0.064,-0.34341 0.14201,-0.46834 0.11232,-0.18 -0.0777,-0.99984 -0.91345,-3.94137 -0.58044,-2.04279 -1.09468,-3.78793 -1.14281,-3.87808 -0.048,-0.0904 -0.21898,0.80425 -0.37989,1.98756 -0.161,1.18332 -0.37203,2.72852 -0.46939,3.43379 -0.0973,0.70525 -0.26401,1.91704 -0.37001,2.69283 -0.10633,0.77581 -0.39662,2.88198 -0.64543,4.6804 -0.24869,1.79845 -0.44784,3.32762 -0.4423,3.39811 0.0134,0.17869 0.0166,0.17301 0.8341,-2.43046 z m 12.59385,1.54027 c 0.77396,-1.33621 0.72246,-1.47501 -0.9741,-2.62531 -1.5471,-1.04897 -1.7618,-1.06224 -1.64807,-0.10167 0.0418,0.3515 0.17099,0.74455 0.28766,0.87345 0.13368,0.14766 0.18801,0.36098 0.14667,0.57651 -0.0491,0.256 0.0844,0.57994 0.52921,1.28615 0.77919,1.23717 0.93709,1.23634 1.65843,-0.01 z m 10.79615,-0.01 c 0.39565,-0.65836 0.56384,-1.07189 0.5376,-1.32187 -0.0233,-0.21299 0.0447,-0.43249 0.16166,-0.52953 0.22733,-0.18866 0.285,-1.47693 0.0724,-1.60843 -0.0701,-0.0437 -0.7266,0.32899 -1.45896,0.82766 -1.68495,1.14694 -1.7356,1.2888 -0.94669,2.65088 0.71753,1.2388 0.87955,1.23693 1.63415,-0.0166 z m 11.08551,-4.23778 c -1.0347,-7.48861 -1.0579,-7.65932 -1.29438,-9.51665 -0.11932,-0.9364 -0.25632,-1.65771 -0.30499,-1.60286 -0.0487,0.0549 -0.56637,1.78999 -1.15075,3.85588 -0.9187,3.2478 -1.0412,3.796 -0.9051,4.05033 0.0866,0.16167 0.13868,0.37607 0.11568,0.47617 -0.0538,0.23301 2.0157,2.2184 2.19599,2.10697 0.214,-0.13233 0.6255,0.051 0.70967,0.31601 0.042,0.133 0.007,0.35119 -0.0749,0.4848 -0.12533,0.20066 -0.0233,0.66044 0.59073,2.63833 0.40834,1.31746 0.76117,2.37667 0.78406,2.35378 0.0233,-0.0233 -0.27666,-2.34622 -0.66594,-5.16287 z m -27.6901,3.02228 c 2.4344,-0.21867 2.5594,-0.24301 2.81911,-0.54624 0.33622,-0.39262 0.27798,-1.4051 -0.10401,-1.80849 -0.26734,-0.28234 -0.40919,-0.30101 -3.48454,-0.45242 -1.76319,-0.0869 -3.50873,-0.19132 -3.879,-0.23233 -0.94473,-0.10432 -0.8971,0.0977 0.38471,1.63051 0.86255,1.0315 1.12375,1.2665 1.41455,1.27246 0.19602,0.004 0.39041,0.0953 0.43168,0.20267 0.0531,0.13768 0.19334,0.17735 0.47682,0.13368 0.22102,-0.034 1.09435,-0.12401 1.94065,-0.20001 z m 23.13928,0.071 c 0.0844,-0.10167 0.30534,-0.20267 0.49101,-0.22434 0.24633,-0.0299 0.62529,-0.37918 1.40116,-1.2952 0.58491,-0.69052 1.06346,-1.34716 1.06346,-1.45916 0,-0.17133 -0.11699,-0.19133 -0.73732,-0.12668 -0.40555,0.0426 -2.15107,0.14568 -3.87898,0.22967 -3.02243,0.14702 -3.15227,0.16401 -3.42197,0.45028 -0.15599,0.16534 -0.31899,0.55566 -0.36757,0.87924 -0.0774,0.51579 -0.0499,0.61929 0.24334,0.91223 0.30866,0.30866 0.48177,0.3456 2.61164,0.55912 1.25464,0.12567 2.31737,0.23568 2.36163,0.244 0.044,0.007 0.14933,-0.0676 0.23368,-0.16932 z m -16.63819,-0.7811 c 0.0374,-0.0378 -0.037,-0.51907 -0.165,-1.0701 -0.17232,-0.74066 -0.33528,-1.1111 -0.62463,-1.42081 -0.41499,-0.44426 -0.0987,-0.34429 -6.58146,-2.07956 -1.14987,-0.30767 -1.54697,-0.36879 -1.6606,-0.25534 -0.082,0.082 -0.28633,0.14934 -0.45357,0.14934 -0.31867,0 -2.33711,1.72903 -2.33723,2.00201 -1.2e-4,0.15832 0.6237,0.21499 4.96539,0.45263 2.62148,0.14333 2.86874,0.13866 3.08763,-0.0593 0.13101,-0.11834 0.33235,-0.21533 0.44776,-0.21533 0.21802,0 0.50383,0.40607 0.44495,0.6324 -0.0299,0.11432 2.54161,1.93137 2.73383,1.93196 0.041,1e-4 0.10534,-0.0299 0.14301,-0.068 z m 2.00587,-1.0364 c 1.21257,-0.98429 1.36384,-1.1525 1.3889,-1.54406 0.0233,-0.37227 -0.26332,-0.88467 -1.87774,-3.35141 -1.04818,-1.60157 -2.3953,-3.66211 -2.99349,-4.57893 -3.75317,-5.75241 -4.74556,-7.24627 -4.78654,-7.2053 -0.0266,0.0267 1.23524,3.26064 2.80127,7.18957 2.4392,6.11973 2.89387,7.16583 3.17227,7.29926 0.3906,0.18734 0.47624,0.5003 0.20966,0.7668 -0.34849,0.3485 0.22967,2.52867 0.67048,2.52867 0.03,0 0.66667,-0.49706 1.4151,-1.10464 z m 5.38311,0.99328 c 0.0931,-0.059 0.27434,-0.59035 0.4023,-1.18062 0.20866,-0.96109 0.21233,-1.08818 0.036,-1.2171 -0.27933,-0.20432 -0.11167,-0.79489 0.241,-0.84813 0.23034,-0.0342 0.65993,-1.01503 2.82897,-6.45247 3.20011,-8.0222 3.32207,-8.33537 3.19151,-8.1942 -0.0589,0.0637 -2.29867,3.47977 -4.97737,7.59141 -4.2913,6.58689 -4.86101,7.51969 -4.79167,7.84543 0.0577,0.271 0.43814,0.66215 1.42509,1.4651 0.74055,0.60247 1.37528,1.096 1.41054,1.0967 0.0353,8.8e-4 0.14032,-0.047 0.23367,-0.106 z m 1.90604,-0.75425 c 0.95663,-0.62812 1.31876,-0.93763 1.3204,-1.1284 0.004,-0.54303 0.5054,-0.7353 0.92527,-0.35529 0.21899,0.19799 0.46616,0.203 3.08764,0.0593 4.34604,-0.23765 4.96586,-0.29433 4.96223,-0.45266 -0.002,-0.0782 -0.45866,-0.56099 -1.01526,-1.07232 -0.76744,-0.70505 -1.10128,-0.92967 -1.38161,-0.92967 -0.20332,0 -0.43083,-0.0614 -0.50567,-0.13601 -0.13998,-0.14 -0.31199,-0.0993 -5.5334,1.30128 -1.29157,0.34649 -2.37349,0.62999 -2.40432,0.62999 -0.03,0 -0.056,0.0794 -0.056,0.17666 0,0.0973 -0.11766,0.256 -0.26166,0.35267 -0.17233,0.11601 -0.32534,0.45984 -0.4489,1.00941 -0.10302,0.45839 -0.21735,0.96332 -0.25401,1.12203 -0.0411,0.17801 -0.007,0.28833 0.0902,0.28833 0.0864,0 0.74987,-0.3895 1.47483,-0.86557 z m -10.13774,-2.40036 c 0.04,-0.10368 -1.2748,-3.56571 -2.92127,-7.69358 -2.21355,-5.54953 -3.05565,-7.52533 -3.23185,-7.58256 -0.31633,-0.10267 -4.36736,3.84017 -4.38934,4.27226 -0.007,0.15634 -0.0774,0.35995 -0.154,0.45235 -0.10365,0.12499 0.14001,1.15429 0.95014,4.01139 0.91358,3.2226 1.14009,3.88137 1.40258,4.07846 0.17199,0.12934 0.31332,0.30234 0.31332,0.3847 3e-4,0.11333 7.25156,2.19444 7.85772,2.25534 0.0549,0.007 0.13266,-0.0746 0.17232,-0.17832 z m 6.24876,-1.73504 c 0.67008,-1.02264 2.06353,-3.1577 3.09662,-4.74454 1.03306,-1.58686 2.76286,-4.24122 3.84397,-5.89859 1.4399,-2.20744 1.93039,-3.0563 1.83378,-3.17371 -0.16535,-0.20099 -9.84603,-0.23666 -9.84603,-0.0363 0,0.068 -0.10933,0.18234 -0.24266,0.25367 -0.18534,0.0993 -0.31867,0.07 -0.5652,-0.12367 -0.30834,-0.24233 -0.53444,-0.25367 -5.12921,-0.25367 -3.99807,0 -4.81832,0.03 -4.87555,0.17935 -0.0603,0.15766 1.01861,1.86162 5.79119,9.14522 0.61079,0.93214 1.82709,2.79597 2.70296,4.14187 1.36501,2.09757 1.63384,2.44161 1.8822,2.4086 0.21467,-0.0265 0.60484,-0.51933 1.50805,-1.89782 z m 4.50991,1.59684 c 2.37271,-0.6172 6.54337,-1.754 6.62888,-1.80683 0.0549,-0.034 0.0997,-0.136 0.0997,-0.22668 0,-0.091 0.12933,-0.223 0.28734,-0.29332 0.24701,-0.11035 0.44131,-0.67298 1.38906,-4.02539 0.94824,-3.35396 1.07661,-3.92236 0.92097,-4.07798 -0.0993,-0.0993 -0.15466,-0.281 -0.12266,-0.40348 0.041,-0.15599 -0.56541,-0.84532 -2.02503,-2.30295 -1.65298,-1.65068 -2.13497,-2.06398 -2.33361,-2.00094 -0.19265,0.061 -0.94637,1.82359 -3.2666,7.638 -2.98209,7.47296 -3.13897,7.95126 -2.54576,7.763 0.11098,-0.0349 0.54652,-0.15366 0.96776,-0.26334 z"
         id="path302-9" /></g></g></svg>
